<svg width="1440" height="743" viewBox="0 0 1440 743" fill="none" xmlns="http://www.w3.org/2000/svg">
<path d="M1440 0H0V743H1440V0Z" fill="#00C0F0"/>
<path d="M1440 571.89V171.11H1429.61V203.514H1410.23V171.11H1378.91V192.339H1328.2V224.753H1283.46V171.11H1247.66V202.402H1198.45V171.11H1164.15V200.169H1122.38V171.11H1073.17V184.518H1004.56V171.11H962.8V210.223H922.533V171.11H891.215V192.339H833.049V218.054H777.867V182.285H740.583V201.281H707.778V178.931H661.545V205.757H592.933V171.11H537.75V187.873H491.517V171.11H449.763V186.761H387.118V214.689H346.85V171.11H311.063V194.582H260.35V171.11H234.998V185.64H157.447V221.398H121.65V171.11H67.9633V191.227H0V571.89H1440Z" fill="#4EC8EC"/>
<path d="M1440 743V342.221H1429.61V374.624H1410.23V342.221H1378.91V363.449H1328.2V395.863H1283.46V342.221H1247.66V373.513H1198.45V342.221H1164.15V371.27H1122.38V342.221H1073.17V355.629H1004.56V342.221H962.8V381.333H922.533V342.221H891.215V363.449H833.049V389.154H777.867V353.396H740.583V372.391H707.778V350.041H661.545V376.867H592.933V342.221H537.75V358.983H491.517V342.221H449.763V357.862H387.118V385.809H346.85V342.221H311.063V365.682H260.35V342.221H234.998V356.74H157.447V392.508H121.65V342.221H67.9633V362.338H0V743H1440Z" fill="#77D0EE"/>
</svg>
