<svg width="173" height="88" viewBox="0 0 173 88" fill="none" xmlns="http://www.w3.org/2000/svg">
<path d="M158.4 81.9V78.97H154.96V76.05H151.53V73.12V70.2H148.09V67.27V64.35V61.43V58.5V55.58V52.65V49.73H144.66V52.65H141.23V55.58H137.79H134.36H130.92H127.49H124.06H120.62V52.65H117.19V49.73H113.75V46.8H110.32V49.73H106.89V52.65V55.58H103.45V58.5H100.02V61.43H96.5799V64.35H93.1499H89.7199V67.27H86.2799H82.8499H79.4199H75.9799H72.5499H69.1099H65.6799H62.2399V64.35H58.8099H55.3799V61.43H51.9499V58.5H48.5099V55.58H45.0799H41.6399V58.5H38.2099V61.43H34.7699H31.3399H27.9099H24.4699H21.0399H17.5999V58.5H14.1699V55.58H10.7399V52.65V49.73H7.29994V46.8V43.88V40.95V38.03H3.86993V40.95V43.88V46.8H0.429932V49.73V52.65V55.58V58.5V61.43V64.35H3.86993V67.27V70.2V73.12H7.29994V76.05V78.97H10.7399V81.9H14.1699V84.82H17.5999H21.0399V87.75H24.4699H27.9099H31.3399H34.7699H38.2099H41.6399H45.0799H48.5099H51.9499H55.3799H58.8099H62.2399H65.6799H69.1099H72.5499H75.9799H79.4199H82.8499H86.2799H89.7199H93.1499H96.5799H100.02H103.45H106.89H110.32H113.75H117.19H120.62H124.06H127.49H130.92H134.36H137.79H141.23H144.66H148.09H151.53H154.96H158.4V84.82H161.83V81.9H158.4Z" fill="#B2E2F1"/>
<path d="M168.7 55.58V52.65V49.73H165.26V46.8H161.83V43.88H158.4V40.95H154.96H151.53H148.09V38.03V35.11V32.18H144.66V29.26V26.33V23.41H141.23V20.48H137.79V17.56H134.36V14.63H130.92V11.71H127.49H124.06H120.62H117.19H113.75H110.32H106.89H103.45V14.63H100.02V11.71V8.78001H96.5799V5.86001H93.1499H89.7199V2.94001H86.2799V0.0100098H82.8499H79.4199H75.9799H72.5499H69.1099H65.6799V2.94001H62.2399H58.8099V5.86001H55.3799V8.78001H51.9499V11.71H48.5099V14.63H45.0799V17.56V20.48V23.41H41.6399H38.2099H34.7699H31.3399H27.9099H24.4699H21.0399V26.33H17.5999H14.1699V29.26H10.7399V32.18H7.29993V35.11V38.03V40.95V43.88V46.8V49.73H10.7399V52.65V55.58H14.1699V58.5H17.5999V61.43H21.0399H24.4699H27.9099H31.3399H34.7699H38.2099V58.5H41.6399V55.58H45.0799H48.5099V58.5H51.9499V61.43H55.3799V64.35H58.8099H62.2399V67.27H65.6799H69.1099H72.5499H75.9799H79.4199H82.8499H86.2799H89.7199V64.35H93.1499H96.5799V61.43H100.02V58.5H103.45V55.58H106.89V52.65V49.73H110.32V46.8H113.75V49.73H117.19V52.65H120.62V55.58H124.06H127.49H130.92H134.36H137.79H141.23V52.65H144.66V49.73H148.09V52.65V55.58V58.5V61.43V64.35V67.27V70.2H151.53V73.12V76.05H154.96V78.97H158.4V81.9H161.83V84.82H165.26V81.9V78.97H168.7V76.05H172.13V73.12V70.2V67.27V64.35V61.43V58.5V55.58H168.7Z" fill="white"/>
</svg>
