<svg width="410" height="218" viewBox="0 0 410 218" fill="none" xmlns="http://www.w3.org/2000/svg">
<path d="M46.8579 214.887H40.999V218H46.8579V214.887Z" fill="#232022"/>
<path d="M410 211.774H404.145V214.887H410V211.774Z" fill="#252526"/>
<path d="M380.715 211.774H374.856V214.887H380.715V211.774Z" fill="#CDA67E"/>
<path d="M35.1403 211.774H29.2847V214.887H35.1403V211.774Z" fill="#CEA67E"/>
<path d="M5.85559 211.774H0V214.887H5.85559V211.774Z" fill="#252526"/>
<path d="M386.571 205.544H380.715V208.657H386.571V205.544Z" fill="#888F95"/>
<path d="M29.2876 205.544H23.4287V208.657H29.2876V205.544Z" fill="#899096"/>
<path d="M93.7158 193.084H87.8569V196.198H93.7158V193.084Z" fill="#8A7668"/>
<path d="M81.9982 189.971H76.1426V193.085H81.9982V189.971Z" fill="#202323"/>
<path d="M199.143 186.858H193.287V189.971H199.143V186.858Z" fill="#A77962"/>
<path d="M64.4279 77.8564H58.5723V80.9696H64.4279V77.8564Z" fill="#242526"/>
<path d="M410 37.3716H404.145V40.4848H410V37.3716Z" fill="#232022"/>
<path d="M292.859 37.3716H287.003V40.4848H292.859V37.3716Z" fill="#837367"/>
<path d="M5.85559 34.2584H0V37.3716H5.85559V34.2584Z" fill="#262627"/>
<path d="M298.717 31.142H292.858V34.2552H298.717V31.142Z" fill="#807268"/>
<path d="M246 31.142H240.142V34.2552H246V31.142Z" fill="#847368"/>
<path d="M287.003 28.0287H281.144V31.1419H287.003V28.0287Z" fill="#8C7769"/>
<path d="M333.857 40.4848V37.3716V34.2584V31.1419H327.998V28.0287H322.143H316.287H310.428V31.1419H304.573V34.2584H298.714H292.858V37.3716H298.714V40.4848H292.858V43.6013H287.003V40.4848H281.144V37.3716V34.2584H275.288V31.1419V28.0287H269.429H263.57V31.1419H257.715V34.2584H251.856V37.3716H246V40.4848H240.142H234.286V37.3716H228.43V34.2584H222.571H216.713H210.857H205.001V31.1419H199.143V34.2584H193.287H187.428H181.572H175.714H169.858H163.999H158.144H152.285H146.429H140.57H134.715H128.859H123V37.3716V40.4848H117.145V43.6013H111.286V46.7145H105.43V49.8277H99.5712H93.7156V46.7145V43.6013H87.8567V40.4848V37.3716H82.0011V34.2584H76.1422V37.3716V40.4848V43.6013V46.7145V49.8277V52.9442V56.0574V59.1706V62.2871V65.4003H70.2866V68.5135V71.63V74.7432V77.8564V80.9729V84.0861V87.1993V90.3158V93.429V96.5422V99.6587V102.772V105.885V109.002V112.115V115.228V118.345V121.458V124.571V127.687V130.801V133.914V137.03V140.144V143.257V146.37V149.486V152.6V155.713V158.829V161.943V165.059V168.172V171.285V174.402V177.515V180.628H76.1422V177.515H82.0011V174.402H87.8567H93.7156H99.5712H105.43H111.286H117.145H123V177.515H128.859V180.628H134.715H140.57V183.742H146.429H152.285H158.144H163.999H169.858H175.714H181.572V180.628H187.428H193.287H199.143H205.001H210.857H216.713H222.571H228.43H234.286H240.142V177.515H246V174.402H251.856H257.715H263.57H269.429V177.515V180.628H275.288H281.144H287.003H292.858V177.515V174.402H298.714V171.285V168.172H304.573V165.059H310.428V168.172H316.287V171.285V174.402H322.143V177.515V180.628H327.998H333.857V177.515V174.402V171.285V168.172V165.059V161.943V158.829V155.713H339.716V152.6V149.486V146.37V143.257V140.144V137.03V133.914V130.801V127.687V124.571V121.458V118.345V115.228V112.115V109.002V105.885V102.772V99.6587V96.5422V93.429V90.3158V87.1993V84.0861V80.9729V77.8564V74.7432V71.63V68.5135V65.4003V62.2871V59.1706V56.0574V52.9442V49.8277V46.7145V43.6013V40.4848H333.857Z" fill="#BF8863"/>
<path d="M105.43 34.2584H99.5713V37.3716H105.43V34.2584Z" fill="#BF8863"/>
<path d="M111.289 28.0287H105.43V31.1419H111.289V28.0287Z" fill="#90979E"/>
<path d="M81.9982 24.9155H76.1426V28.0287H81.9982V24.9155Z" fill="#A87861"/>
<path d="M76.1422 180.628H70.2866V177.515V174.402V171.286V168.172V165.059V161.943V158.829V155.713V152.6V149.486V146.37V143.257V140.144V137.03V133.914V130.801V127.687V124.571V121.458V118.345V115.228V112.115V109.002V105.885V102.772V99.6588V96.5423V93.4291V90.3159V87.1994V84.0862V80.973V77.8565V74.7432V71.6301V68.5135V65.4003H76.1422V62.2871V59.1706V56.0574V52.9442V49.8277V46.7145V43.6013V40.4848V37.3716V34.2584H82.0011V37.3716H87.8567V40.4848V43.6013H93.7156V46.7145V49.8277H99.5712H105.43V46.7145H111.286V43.6013H117.145V40.4848H123V37.3716V34.2584H128.859H134.715H140.57H146.429H152.285H158.144H163.999H169.858H175.714H181.572H187.428H193.287H199.143V31.1419H205.001V34.2584H210.857H216.713H222.571H228.43V37.3716H234.286V40.4848H240.142H246V37.3716H251.856V34.2584H257.715V31.1419H263.57V28.0287H269.429H275.288V31.1419V34.2584H281.144V37.3716V40.4848H287.003V37.3716V34.2584V31.1419H281.144V28.0287V24.9155H275.288H269.429H263.57H257.715H251.856H246V28.0287V31.1419V34.2584H240.142V31.1419V28.0287H234.286V24.9155H228.43H222.571H216.713H210.857H205.001H199.143H193.287H187.428H181.572H175.714H169.858H163.999H158.144H152.285H146.429H140.57H134.715H128.859H123H117.145V28.0287H111.286V31.1419V34.2584H105.43V37.3716H99.5712V34.2584V31.1419V28.0287V24.9155H93.7156H87.8567H82.0011V28.0287H76.1422H70.2866V24.9155H64.4277V28.0287V31.1419V34.2584V37.3716V40.4848V43.6013V46.7145V49.8277V52.9442V56.0574V59.1706V62.2871V65.4003V68.5135V71.6301V74.7432V77.8565V80.973V84.0862V87.1994V90.3159V93.4291V96.5423V99.6588V102.772V105.885V109.002V112.115V115.228V118.345V121.458V124.571V127.687V130.801V133.914V137.03V140.144V143.257V146.37V149.486V152.6V155.713V158.829V161.943V165.059V168.172V171.286V174.402V177.515V180.628V183.742V186.858V189.971V193.085V196.201H70.2866H76.1422V193.085V189.971V186.858H82.0011V183.742V180.628V177.515H76.1422V180.628Z" fill="#B1765B"/>
<path d="M269.429 174.402H263.57H257.715H251.856H246V177.515H240.141V180.628H234.286H228.43H222.571H216.712H210.857H205.001H199.142H193.287H187.428H181.572V183.742H175.713H169.858H163.999H158.143H152.285H146.429H140.57V180.628H134.714H128.859V177.515H123V174.402H117.144H111.286H105.43H99.571H93.7154H87.8566H82.001V177.515H87.8566V180.628V183.742V186.858V189.971V193.084H93.7154V196.201H99.571H105.43H111.286V193.084V189.971V186.858H117.144V189.971H123V193.084V196.201H128.859H134.714H140.57H146.429H152.285H158.143H163.999H169.858H175.713H181.572H187.428H193.287V193.084V189.971V186.858H199.142H205.001V189.971V193.084V196.201H210.857H216.712H222.571H228.43H234.286H240.141H246H251.856H257.715H263.57V193.084V189.971V186.858V183.742V180.628H269.429V177.515V174.402Z" fill="#B1765B"/>
<path d="M292.859 40.4849H287.003V43.5981H292.859V40.4849Z" fill="#B1765B"/>
<path d="M298.717 37.3716H292.858V40.4848H298.717V37.3716Z" fill="#B1765B"/>
<path d="M339.716 24.9155H333.857H327.998H322.143H316.287H310.428H304.573H298.714V28.0287V31.1419V34.2584H304.573V31.1419H310.428V28.0287H316.287H322.143H327.998V31.1419H333.857V34.2584V37.3716V40.4848H339.716V43.6013V46.7145V49.8277V52.9442V56.0574V59.1706V62.2871V65.4003V68.5135V71.6301V74.7432V77.8565V80.973V84.0862V87.1994V90.3159V93.4291V96.5423V99.6588V102.772V105.885V109.002V112.115V115.228V118.345V121.458V124.571V127.687V130.801V133.914V137.03V140.144V143.257V146.37V149.486V152.6V155.713H333.857V158.829V161.943V165.059V168.172V171.286V174.402V177.515V180.628H327.998H322.143V177.515V174.402H316.287V171.286V168.172H310.428V165.059H304.573V168.172H298.714V171.286V174.402H292.858V177.515V180.628H287.003H281.144H275.288H269.429V183.742V186.858V189.971V193.085V196.201H275.288H281.144H287.003H292.858H298.714V193.085V189.971V186.858H304.573V189.971V193.085V196.201H310.428H316.287H322.143H327.998H333.857H339.716H345.572V193.085V189.971V186.858V183.742V180.628V177.515V174.402V171.286V168.172V165.059V161.943V158.829V155.713V152.6V149.486V146.37V143.257V140.144V137.03V133.914V130.801V127.687V124.571V121.458V118.345V115.228V112.115V109.002V105.885V102.772V99.6588V96.5423V93.4291V90.3159V87.1994V84.0862V80.973V77.8565V74.7432V71.6301V68.5135V65.4003V62.2871V59.1706V56.0574V52.9442V49.8277V46.7145V43.6013V40.4848V37.3716V34.2584V31.1419V28.0287V24.9155H339.716Z" fill="#B1765B"/>
<path d="M246 21.8024H240.142V24.9156H246V21.8024Z" fill="#7D848A"/>
<path d="M240.145 21.8024H234.286V24.9156H240.145V21.8024Z" fill="#858D93"/>
<path d="M404.141 9.3429H398.286V12.4561H404.141V9.3429Z" fill="#9F8B72"/>
<path d="M11.7144 9.3429H5.85547V12.4561H11.7144V9.3429Z" fill="#9D8A73"/>
<path d="M398.289 6.22974H392.43V9.34294H398.289V6.22974Z" fill="#9D8A73"/>
<path d="M369.001 6.22974H363.142V9.34294H369.001V6.22974Z" fill="#262627"/>
<path d="M17.5732 6.22974H11.7144V9.34294H17.5732V6.22974Z" fill="#9F8B72"/>
<path d="M410 3.11316H404.145V6.22636H410V3.11316Z" fill="#888F95"/>
<path d="M363.142 3.11316H357.287V6.22636H363.142V3.11316Z" fill="#858D93"/>
<path d="M52.7168 3.11316H46.8579V6.22636H52.7168V3.11316Z" fill="#858C92"/>
<path d="M374.857 174.402V171.285V168.172V165.059V161.943V158.829V155.713V152.6V149.486V146.37V143.257V140.144V137.03V133.914V130.801V127.687V124.571V121.458V118.345V115.228V112.115V109.002V105.885V102.772V99.6587V96.5422V93.429V90.3158V87.1993V84.0861V80.9729V77.8564V74.7432V71.63V68.5135V65.4003V62.2871V59.1706V56.0574V52.9442V49.8277V46.7145V43.6013V40.4848V37.3716V34.2584V31.1419V28.0287V24.9155V21.8023V18.6858V15.5726V12.4561V9.34286V6.22966V3.11316H369.001V6.22966V9.34286V12.4561H363.142H357.287V9.34286V6.22966H351.428V9.34286V12.4561V15.5726V18.6858V21.8023V24.9155V28.0287V31.1419V34.2584V37.3716V40.4848V43.6013V46.7145V49.8277V52.9442V56.0574V59.1706V62.2871V65.4003V68.5135V71.63V74.7432V77.8564V80.9729V84.0861V87.1993V90.3158V93.429V96.5422V99.6587V102.772V105.885V109.002V112.115V115.228V118.345V121.458V124.571V127.687V130.801V133.914V137.03V140.144V143.257V146.37V149.486V152.6V155.713V158.829V161.943V165.059V168.172V171.285V174.402V177.515V180.628V183.742V186.858V189.971V193.084V196.201V199.314V202.431V205.544V208.657V211.774H357.287V214.887H363.142H369.001H374.857V211.774H380.716V208.657V205.544V202.431V199.314V196.201V193.084V189.971V186.858V183.742V180.628V177.515V174.402H374.857Z" fill="#DBA878"/>
<path d="M52.7136 9.34286V12.4561H46.858H40.9991V9.34286V6.22966V3.11316H35.1436V6.22966V9.34286V12.4561V15.5726V18.6858V21.8023V24.9155V28.0287V31.1419V34.2584V37.3716V40.4848V43.6013V46.7145V49.8277V52.9442V56.0574V59.1706V62.2871V65.4003V68.5135V71.63V74.7432V77.8564V80.9729V84.0861V87.1993V90.3158V93.429V96.5422V99.6587V102.772V105.885V109.002V112.115V115.228V118.345V121.458V124.571V127.687V130.801V133.914V137.03V140.144V143.257V146.37V149.486V152.6V155.713V158.829V161.943V165.059V168.172V171.285V174.402H29.2847V177.515V180.628V183.742V186.858V189.971V193.084V196.201V199.314V202.431V205.544V208.657V211.774H35.1436V214.887H40.9991H46.858H52.7136V211.774H58.5725V208.657V205.544V202.431V199.314V196.201V193.084V189.971V186.858V183.742V180.628V177.515V174.402V171.285V168.172V165.059V161.943V158.829V155.713V152.6V149.486V146.37V143.257V140.144V137.03V133.914V130.801V127.687V124.571V121.458V118.345V115.228V112.115V109.002V105.885V102.772V99.6587V96.5422V93.429V90.3158V87.1993V84.0861V80.9729V77.8564V74.7432V71.63V68.5135V65.4003V62.2871V59.1706V56.0574V52.9442V49.8277V46.7145V43.6013V40.4848V37.3716V34.2584V31.1419V28.0287V24.9155V21.8023V18.6858V15.5726V12.4561V9.34286V6.22966H52.7136V9.34286Z" fill="#DBA878"/>
<path d="M398.285 12.4561V9.34286H392.43V6.22966V3.11316H386.571V6.22966V9.34286H380.715V12.4561H374.856V15.5726V18.6858V21.8023V24.9155V28.0287V31.1419V34.2584V37.3716V40.4848V43.6013V46.7145V49.8277V52.9442V56.0574V59.1706V62.2871V65.4003V68.5135V71.63V74.7432V77.8564V80.9729V84.0861V87.1993V90.3158V93.429V96.5422V99.6587V102.772V105.885V109.002V112.115V115.228V118.345V121.458V124.571V127.687V130.801V133.914V137.03V140.144V143.257V146.37V149.486V152.6V155.713V158.829V161.943V165.059V168.172V171.285V174.402H380.715V177.515V180.628V183.742V186.858V189.971V193.084V196.201V199.314H386.571V202.431V205.544H392.43V202.431V199.314H398.285V202.431V205.544V208.657V211.774H404.144V208.657V205.544V202.431V199.314V196.201V193.084V189.971V186.858V183.742V180.628V177.515V174.402V171.285V168.172V165.059V161.943V158.829V155.713V152.6V149.486V146.37V143.257V140.144V137.03V133.914V130.801V127.687V124.571V121.458V118.345V115.228V112.115V109.002V105.885V102.772V99.6587V96.5422V93.429V90.3158V87.1993V84.0861V80.9729V77.8564V74.7432V71.63V68.5135V65.4003V62.2871V59.1706V56.0574V52.9442V49.8277V46.7145V43.6013V40.4848V37.3716V34.2584V31.1419V28.0287V24.9155V21.8023V18.6858V15.5726V12.4561H398.285Z" fill="#C69B70"/>
<path d="M29.2844 9.34286H23.4288V6.22966V3.11316H17.5732V6.22966V9.34286H11.7144V12.4561H5.85547V15.5726V18.6858V21.8023V24.9155V28.0287V31.1419V34.2584V37.3716V40.4848V43.6013V46.7145V49.8277V52.9442V56.0574V59.1706V62.2871V65.4003V68.5135V71.63V74.7432V77.8564V80.9729V84.0861V87.1993V90.3158V93.429V96.5422V99.6587V102.772V105.885V109.002V112.115V115.228V118.345V121.458V124.571V127.687V130.801V133.914V137.03V140.144V143.257V146.37V149.486V152.6V155.713V158.829V161.943V165.059V168.172V171.285V174.402V177.515V180.628V183.742V186.858V189.971V193.084V196.201V199.314V202.431V205.544V208.657V211.774H11.7144V208.657V205.544V202.431V199.314H17.5732V202.431V205.544H23.4288V202.431V199.314H29.2844V196.201V193.084V189.971V186.858V183.742V180.628V177.515V174.402H35.1433V171.285V168.172V165.059V161.943V158.829V155.713V152.6V149.486V146.37V143.257V140.144V137.03V133.914V130.801V127.687V124.571V121.458V118.345V115.228V112.115V109.002V105.885V102.772V99.6587V96.5422V93.429V90.3158V87.1993V84.0861V80.9729V77.8564V74.7432V71.63V68.5135V65.4003V62.2871V59.1706V56.0574V52.9442V49.8277V46.7145V43.6013V40.4848V37.3716V34.2584V31.1419V28.0287V24.9155V21.8023V18.6858V15.5726V12.4561H29.2844V9.34286Z" fill="#C69B70"/>
<path d="M5.85559 3.11316H0V6.22636H5.85559V3.11316Z" fill="#878E94"/>
<path d="M392.427 0H386.571V3.1132H392.427V0Z" fill="#8E959B"/>
<path d="M369.001 0H363.142V3.1132H369.001V0Z" fill="#858D93"/>
<path d="M46.8579 0H40.999V3.1132H46.8579V0Z" fill="#858D93"/>
<path d="M123 193.084H117.145V196.198H123V193.084Z" fill="#231F20"/>
<path d="M386.571 199.314H380.715V202.431V205.544H386.571V202.431V199.314Z" fill="#231F20"/>
<path d="M52.7168 214.887H46.8579V218H52.7168V214.887Z" fill="#231F20"/>
<path d="M81.9982 193.084H76.1426V196.198H81.9982V193.084Z" fill="#231F20"/>
<path d="M123 193.084V189.971H117.145V186.858H111.286V189.971V193.084H117.145H123Z" fill="#231F20"/>
<path d="M269.43 186.858V183.742V180.628H263.571V183.742V186.858V189.971H269.43V186.858Z" fill="#231F20"/>
<path d="M257.715 24.9156H263.571H269.429H275.288H281.144V21.8024H275.288H269.429H263.571H257.715H251.856H246V24.9156H251.856H257.715Z" fill="#231F20"/>
<path d="M369.001 214.887H363.142H357.287V218H363.142H369.001H374.857H380.716V214.887H374.857H369.001Z" fill="#231F20"/>
<path d="M29.2847 214.887V218H35.1436H40.9991V214.887H35.1436H29.2847Z" fill="#231F20"/>
<path d="M404.144 211.774H398.286V214.887H404.144V211.774Z" fill="#231F20"/>
<path d="M11.7144 211.774H5.85547V214.887H11.7144V211.774Z" fill="#231F20"/>
<path d="M351.427 211.774V208.657V205.544V202.431V199.314V196.201V193.084V189.971V186.858V183.742V180.628V177.515V174.402V171.285V168.172V165.059V161.943V158.829V155.713V152.6V149.486V146.37V143.257V140.144V137.03V133.914V130.801V127.687V124.571V121.458V118.345V115.228V112.115V109.002V105.885V102.772V99.6587V96.5422V93.429V90.3158V87.1993V84.0861V80.9729V77.8564V74.7432V71.63V68.5135V65.4003V62.2871V59.1706V56.0574V52.9442V49.8277V46.7145V43.6013V40.4848V37.3716V34.2584V31.1419V28.0287V24.9155V21.8023V18.6858V15.5726V12.4561V9.34286V6.22966H357.286V3.11316H351.427H345.572V6.22966V9.34286V12.4561V15.5726V18.6858V21.8023H339.716H333.857H327.999H322.143H316.287H310.428H304.573H298.714H292.858V24.9155V28.0287V31.1419H298.714V28.0287V24.9155H304.573H310.428H316.287H322.143H327.999H333.857H339.716H345.572V28.0287V31.1419V34.2584V37.3716V40.4848V43.6013V46.7145V49.8277V52.9442V56.0574V59.1706V62.2871V65.4003V68.5135V71.63V74.7432V77.8564V80.9729V84.0861V87.1993V90.3158V93.429V96.5422V99.6587V102.772V105.885V109.002V112.115V115.228V118.345V121.458V124.571V127.687V130.801V133.914V137.03V140.144V143.257V146.37V149.486V152.6V155.713V158.829V161.943V165.059V168.172V171.285V174.402V177.515V180.628V183.742V186.858V189.971V193.084V196.201H339.716H333.857H327.999H322.143H316.287H310.428H304.573V199.314H310.428H316.287H322.143H327.999H333.857H339.716H345.572V202.431V205.544V208.657V211.774V214.887H351.427H357.286V211.774H351.427Z" fill="#231F20"/>
<path d="M398.286 205.544V202.431V199.314H392.43V202.431V205.544H386.571V208.657V211.774H392.43H398.286V208.657V205.544Z" fill="#231F20"/>
<path d="M5.85559 205.544V202.431V199.314V196.201V193.084V189.971V186.858V183.742V180.628V177.515V174.402V171.285V168.172V165.059V161.943V158.829V155.713V152.6V149.486V146.37V143.257V140.144V137.03V133.914V130.801V127.687V124.571V121.458V118.345V115.228V112.115V109.002V105.885V102.772V99.6587V96.5422V93.429V90.3158V87.1993V84.0861V80.9729V77.8564V74.7432V71.63V68.5135V65.4003V62.2871V59.1706V56.0574V52.9442V49.8277V46.7145V43.6013V40.4848V37.3716H0V40.4848V43.6013V46.7145V49.8277V52.9442V56.0574V59.1706V62.2871V65.4003V68.5135V71.63V74.7432V77.8564V80.9729V84.0861V87.1993V90.3158V93.429V96.5422V99.6587V102.772V105.885V109.002V112.115V115.228V118.345V121.458V124.571V127.687V130.801V133.914V137.03V140.144V143.257V146.37V149.486V152.6V155.713V158.829V161.943V165.059V168.172V171.285V174.402V177.515V180.628V183.742V186.858V189.971V193.084V196.201V199.314V202.431V205.544V208.657V211.774H5.85559V208.657V205.544Z" fill="#231F20"/>
<path d="M17.5732 202.431V199.314H11.7144V202.431V205.544V208.657V211.774H17.5732H23.4288V208.657V205.544H17.5732V202.431Z" fill="#231F20"/>
<path d="M29.2843 202.431V199.314H23.4287V202.431V205.544H29.2843V202.431Z" fill="#231F20"/>
<path d="M287.003 196.201H281.144H275.289H269.43V199.314H275.289H281.144H287.003H292.859H298.714V196.201H292.859H287.003Z" fill="#231F20"/>
<path d="M251.856 196.201H246H240.142H234.286H228.43H222.572H216.713H210.857H205.001V199.314H210.857H216.713H222.572H228.43H234.286H240.142H246H251.856H257.715H263.571V196.201H257.715H251.856Z" fill="#231F20"/>
<path d="M99.5714 196.201H93.7158H87.8569V199.314H93.7158H99.5714H105.43H111.286V196.201H105.43H99.5714Z" fill="#231F20"/>
<path d="M64.4279 196.201V193.084V189.971V186.858V183.742V180.628V177.515V174.402V171.285V168.172V165.059V161.943V158.829V155.713V152.6V149.486V146.37V143.257V140.144V137.03V133.914V130.801V127.687V124.571V121.458V118.345V115.228V112.115V109.002V105.885V102.772V99.6587V96.5422V93.429V90.3158V87.1993V84.0861V80.9729H58.5723V84.0861V87.1993V90.3158V93.429V96.5422V99.6587V102.772V105.885V109.002V112.115V115.228V118.345V121.458V124.571V127.687V130.801V133.914V137.03V140.144V143.257V146.37V149.486V152.6V155.713V158.829V161.943V165.059V168.172V171.285V174.402V177.515V180.628V183.742V186.858V189.971V193.084V196.201V199.314V202.431V205.544V208.657V211.774H52.7134V214.887H58.5723H64.4279V211.774V208.657V205.544V202.431V199.314H70.2867H76.1423V196.201H70.2867H64.4279Z" fill="#231F20"/>
<path d="M304.573 189.971V186.858H298.714V189.971V193.084V196.201H304.573V193.084V189.971Z" fill="#231F20"/>
<path d="M205.001 189.971V186.858H199.143V189.971H193.287V193.084V196.201H187.428H181.572H175.714H169.858H163.999H158.144H152.285H146.429H140.57H134.715H128.859H123H117.145V199.314H123H128.859H134.715H140.57H146.429H152.285H158.144H163.999H169.858H175.714H181.572H187.428H193.287H199.143V196.201H205.001V193.084V189.971Z" fill="#231F20"/>
<path d="M81.9982 186.858H76.1426V189.971H81.9982V186.858Z" fill="#231F20"/>
<path d="M87.8571 183.742V180.628V177.515H82.0015V180.628V183.742V186.858H87.8571V183.742Z" fill="#231F20"/>
<path d="M404.145 43.6014V46.7146V49.8278V52.9443V56.0575V59.1707V62.2872V65.4004V68.5136V71.6301V74.7433V77.8565V80.973V84.0862V87.1994V90.3159V93.4291V96.5423V99.6588V102.772V105.885V109.002V112.115V115.228V118.345V121.458V124.571V127.688V130.801V133.914V137.03V140.144V143.257V146.37V149.487V152.6V155.713V158.829V161.943V165.059V168.172V171.286V174.402V177.515V180.628V183.742V186.858V189.971V193.085V196.201V199.314V202.431V205.544V208.657V211.774H410V208.657V205.544V202.431V199.314V196.201V193.085V189.971V186.858V183.742V180.628V177.515V174.402V171.286V168.172V165.059V161.943V158.829V155.713V152.6V149.487V146.37V143.257V140.144V137.03V133.914V130.801V127.688V124.571V121.458V118.345V115.228V112.115V109.002V105.885V102.772V99.6588V96.5423V93.4291V90.3159V87.1994V84.0862V80.973V77.8565V74.7433V71.6301V68.5136V65.4004V62.2872V59.1707V56.0575V52.9443V49.8278V46.7146V43.6014V40.4849H404.145V43.6014Z" fill="#231F20"/>
<path d="M287.003 34.2585V37.3717H292.859V34.2585V31.142H287.003V34.2585Z" fill="#231F20"/>
<path d="M5.85559 31.1419V28.0287V24.9155V21.8023V18.6858V15.5726V12.4561V9.34286H11.7145V6.22966H17.5734V3.11316H11.7145H5.85559V6.22966H0V9.34286V12.4561V15.5726V18.6858V21.8023V24.9155V28.0287V31.1419V34.2584H5.85559V31.1419Z" fill="#231F20"/>
<path d="M287.003 24.9155H281.144V28.0287H287.003V24.9155Z" fill="#231F20"/>
<path d="M117.145 24.9156H123H128.859H134.715H140.57H146.429H152.285H158.144H163.999H169.858H175.714H181.572H187.428H193.287H199.143H205.001H210.857H216.713H222.571H228.43H234.286V28.0288H240.142V31.142H246V28.0288V24.9156H240.142H234.286V21.8024H228.43H222.571H216.713H210.857H205.001H199.143H193.287H187.428H181.572H175.714H169.858H163.999H158.144H152.285H146.429H140.57H134.715H128.859H123H117.145H111.286V24.9156V28.0288H117.145V24.9156Z" fill="#231F20"/>
<path d="M357.287 12.4561H363.142H369.001V9.34294H363.142V6.22974H357.287V9.34294V12.4561Z" fill="#231F20"/>
<path d="M58.5723 9.34286V12.4561V15.5726V18.6858V21.8023V24.9155V28.0287V31.1419V34.2584V37.3716V40.4848V43.6013V46.7145V49.8277V52.9442V56.0574V59.1706V62.2871V65.4003V68.5135V71.63V74.7432V77.8564H64.4279V74.7432V71.63V68.5135V65.4003V62.2871V59.1706V56.0574V52.9442V49.8277V46.7145V43.6013V40.4848V37.3716V34.2584V31.1419V28.0287V24.9155H70.2867V28.0287H76.1423V24.9155H82.0012H87.8568H93.7157H99.5713V28.0287V31.1419V34.2584H105.43H111.286V31.1419H105.43V28.0287V24.9155V21.8023H99.5713H93.7157H87.8568H82.0012H76.1423H70.2867H64.4279V18.6858V15.5726V12.4561V9.34286V6.22966V3.11316H58.5723H52.7134V6.22966H58.5723V9.34286Z" fill="#231F20"/>
<path d="M40.999 9.34286V12.4561H46.8579H52.7135V9.34286V6.22966H46.8579V3.11316H40.999V6.22966V9.34286Z" fill="#231F20"/>
<path d="M404.145 6.22966V3.11316H398.286H392.43V6.22966H398.286V9.34286H404.145V12.4561V15.5726V18.6858V21.8023V24.9155V28.0287V31.1419V34.2584V37.3716H410V34.2584V31.1419V28.0287V24.9155V21.8023V18.6858V15.5726V12.4561V9.34286V6.22966H404.145Z" fill="#231F20"/>
<path d="M374.857 6.2297V9.3429V12.4561H380.715V9.3429H386.571V6.2297V3.1132V0H380.715H374.857H369.001V3.1132H374.857V6.2297Z" fill="#231F20"/>
<path d="M369.001 3.11316H363.142V6.22636H369.001V3.11316Z" fill="#231F20"/>
<path d="M35.1432 0H29.2843H23.4287V3.1132V6.2297V9.3429H29.2843V12.4561H35.1432V9.3429V6.2297V3.1132H40.9988V0H35.1432Z" fill="#231F20"/>
<path d="M23.4288 0H17.5732V3.1132H23.4288V0Z" fill="#8E959B"/>
<g filter="url(#filter0_d_58_7)">
<path d="M157 98H153.25H149.5H145.75H142H138.25H134.5V94.25V90.5H138.25H142H145.75H149.5H153.25H157H160.75V94.25V98H157ZM160.75 90.5V86.75V83V79.25V75.5H157H153.25V71.75V68H157H160.75H164.5H168.25V71.75V75.5V79.25V83V86.75V90.5H164.5H160.75ZM134.5 90.5H130.75H127V86.75V83V79.25V75.5V71.75V68V64.25V60.5H130.75H134.5V64.25V68V71.75V75.5V79.25V83V86.75V90.5ZM164.5 60.5H160.75H157H153.25H149.5H145.75H142H138.25H134.5V56.75V53H138.25H142H145.75H149.5H153.25H157H160.75H164.5H168.25V56.75V60.5H164.5ZM202 98H198.25V94.25V90.5V86.75V83V79.25V75.5H194.5H190.75H187H183.25H179.5V79.25V83V86.75V90.5V94.25V98H175.75H172V94.25V90.5V86.75V83V79.25V75.5V71.75V68V64.25V60.5H175.75H179.5V64.25V68H183.25H187H190.75H194.5H198.25V64.25V60.5H202H205.75V64.25V68V71.75V75.5V79.25V83V86.75V90.5V94.25V98H202ZM198.25 60.5H194.5H190.75H187H183.25H179.5V56.75V53H183.25H187H190.75H194.5H198.25V56.75V60.5ZM243.25 98H239.5V94.25V90.5V86.75V83V79.25V75.5V71.75V68H235.75H232V71.75V75.5H228.25H224.5V71.75V68H228.25H232V64.25V60.5H235.75H239.5V56.75V53H243.25H247V56.75V60.5V64.25V68V71.75V75.5V79.25V83V86.75V90.5V94.25V98H243.25ZM213.25 98H209.5V94.25V90.5V86.75V83V79.25V75.5V71.75V68V64.25V60.5V56.75V53H213.25H217V56.75V60.5H220.75H224.5V64.25V68H220.75H217V71.75V75.5V79.25V83V86.75V90.5V94.25V98H213.25ZM284.5 98H280.75H277H273.25H269.5H265.75H262H258.25H254.5H250.75V94.25V90.5V86.75V83V79.25V75.5V71.75V68V64.25V60.5V56.75V53H254.5H258.25H262H265.75H269.5H273.25H277H280.75H284.5H288.25V56.75V60.5H284.5H280.75H277H273.25H269.5H265.75H262H258.25V64.25V68H262H265.75H269.5V71.75V75.5H265.75H262H258.25V79.25V83V86.75V90.5H262H265.75H269.5H273.25H277H280.75H284.5H288.25V94.25V98H284.5ZM160.75 163H157H153.25H149.5H145.75H142H138.25H134.5V159.25V155.5H138.25H142H145.75H149.5H153.25H157H160.75H164.5V159.25V163H160.75ZM164.5 155.5V151.75V148V144.25V140.5V136.75V133V129.25V125.5H168.25H172V129.25V133V136.75V140.5V144.25V148V151.75V155.5H168.25H164.5ZM134.5 155.5H130.75H127V151.75V148V144.25V140.5V136.75V133V129.25V125.5H130.75H134.5V129.25V133V136.75V140.5V144.25V148V151.75V155.5ZM164.5 125.5H160.75H157H153.25H149.5H145.75H142H138.25H134.5V121.75V118H138.25H142H145.75H149.5H153.25H157H160.75H164.5V121.75V125.5ZM194.5 163H190.75V159.25V155.5V151.75V148H194.5H198.25V151.75V155.5V159.25V163H194.5ZM198.25 148V144.25V140.5V136.75H202H205.75V140.5V144.25V148H202H198.25ZM190.75 148H187H183.25V144.25V140.5V136.75H187H190.75V140.5V144.25V148ZM205.75 136.75V133V129.25V125.5V121.75V118H209.5H213.25V121.75V125.5V129.25V133V136.75H209.5H205.75ZM183.25 136.75H179.5H175.75V133V129.25V125.5V121.75V118H179.5H183.25V121.75V125.5V129.25V133V136.75ZM250.75 163H247H243.25H239.5H235.75H232H228.25H224.5H220.75H217V159.25V155.5V151.75V148V144.25V140.5V136.75V133V129.25V125.5V121.75V118H220.75H224.5H228.25H232H235.75H239.5H243.25H247H250.75H254.5V121.75V125.5H250.75H247H243.25H239.5H235.75H232H228.25H224.5V129.25V133H228.25H232H235.75V136.75V140.5H232H228.25H224.5V144.25V148V151.75V155.5H228.25H232H235.75H239.5H243.25H247H250.75H254.5V159.25V163H250.75ZM299.5 163H295.75V159.25V155.5H299.5H303.25V159.25V163H299.5ZM262 163H258.25V159.25V155.5V151.75V148V144.25V140.5V136.75V133V129.25V125.5V121.75V118H262H265.75H269.5H273.25H277H280.75H284.5H288.25H292V121.75V125.5H295.75H299.5V129.25V133H295.75H292V129.25V125.5H288.25H284.5H280.75H277H273.25H269.5H265.75V129.25V133H269.5H273.25H277H280.75H284.5H288.25H292V136.75V140.5H288.25V144.25V148H292H295.75V151.75V155.5H292H288.25V151.75V148H284.5H280.75V144.25V140.5H277H273.25H269.5H265.75V144.25V148V151.75V155.5V159.25V163H262Z" fill="#231F20"/>
</g>
<defs>
<filter id="filter0_d_58_7" x="123" y="53" width="184.25" height="118" filterUnits="userSpaceOnUse" color-interpolation-filters="sRGB">
<feFlood flood-opacity="0" result="BackgroundImageFix"/>
<feColorMatrix in="SourceAlpha" type="matrix" values="0 0 0 0 0 0 0 0 0 0 0 0 0 0 0 0 0 0 127 0" result="hardAlpha"/>
<feOffset dy="4"/>
<feGaussianBlur stdDeviation="2"/>
<feComposite in2="hardAlpha" operator="out"/>
<feColorMatrix type="matrix" values="0 0 0 0 0 0 0 0 0 0 0 0 0 0 0 0 0 0 0.25 0"/>
<feBlend mode="normal" in2="BackgroundImageFix" result="effect1_dropShadow_58_7"/>
<feBlend mode="normal" in="SourceGraphic" in2="effect1_dropShadow_58_7" result="shape"/>
</filter>
</defs>
</svg>
