<svg width="227" height="93" viewBox="0 0 227 93" fill="none" xmlns="http://www.w3.org/2000/svg">
<g clip-path="url(#clip0_10_7656)">
<path d="M218.857 92.9899H8.13134C3.65221 92.9899 0 89.8042 0 85.8747V7.11519C0 3.18576 3.64073 0 8.13134 0H218.869C223.348 0 227 3.18576 227 7.11519V85.8848C227 89.8042 223.359 93 218.869 93L218.857 92.9899ZM8.13134 4.74346C6.6383 4.74346 5.4209 5.80873 5.4209 7.11519V85.8848C5.4209 87.1913 6.6383 88.2565 8.13134 88.2565H218.869C220.362 88.2565 221.579 87.1913 221.579 85.8848V7.11519C221.579 5.80873 220.362 4.74346 218.869 4.74346H8.13134Z" fill="#2A8D47"/>
<path d="M16.24 76.1799H9.95996V82.4599H16.24V76.1799Z" fill="#B7DFCD"/>
<path d="M14.0497 74.99H12.1597V83.66H14.0497V74.99Z" fill="#85D0CB"/>
<path d="M17.4297 80.27V78.38H8.75968V80.27H17.4297Z" fill="#85D0CB"/>
<path d="M14.71 77.64H11.48V80.87H14.71V77.64Z" fill="white"/>
<path d="M16.2395 8.34998H9.95947V14.63H16.2395V8.34998Z" fill="#B7DFCD"/>
<path d="M14.0497 7.16003H12.1597V15.83H14.0497V7.16003Z" fill="#85D0CB"/>
<path d="M17.4395 12.44V10.55H8.76945V12.44H17.4395Z" fill="#85D0CB"/>
<path d="M14.7095 9.81006H11.4795V13.0401H14.7095V9.81006Z" fill="white"/>
<path d="M218.04 76.1799H211.76V82.4599H218.04V76.1799Z" fill="#B7DFCD"/>
<path d="M215.85 74.99H213.96V83.66H215.85V74.99Z" fill="#85D0CB"/>
<path d="M219.23 80.27V78.38H210.56V80.27H219.23Z" fill="#85D0CB"/>
<path d="M216.51 77.64H213.28V80.87H216.51V77.64Z" fill="white"/>
<path d="M218.04 8.34998H211.76V14.63H218.04V8.34998Z" fill="#B7DFCD"/>
<path d="M215.85 7.16003H213.96V15.83H215.85V7.16003Z" fill="#85D0CB"/>
<path d="M219.23 12.44V10.55H210.56V12.44H219.23Z" fill="#85D0CB"/>
<path d="M216.51 9.81006H213.28V13.0401H216.51V9.81006Z" fill="white"/>
<path d="M58.625 57H56.75V55.125V53.25H58.625H60.5V55.125V57H58.625ZM39.875 57H38V55.125V53.25V51.375V49.5V47.625V45.75V43.875V42V40.125V38.25V36.375V34.5H39.875H41.75H43.625H45.5H47.375H49.25H51.125H53H54.875V36.375V38.25H56.75H58.625V40.125V42H56.75H54.875V40.125V38.25H53H51.125H49.25H47.375H45.5H43.625H41.75V40.125V42H43.625H45.5H47.375H49.25H51.125H53H54.875V43.875V45.75H53V47.625V49.5H54.875H56.75V51.375V53.25H54.875H53V51.375V49.5H51.125H49.25V47.625V45.75H47.375H45.5H43.625H41.75V47.625V49.5V51.375V53.25V55.125V57H39.875ZM79.25 57H77.375H75.5H73.625H71.75H69.875H68H66.125H64.25H62.375V55.125V53.25V51.375V49.5V47.625V45.75V43.875V42V40.125V38.25V36.375V34.5H64.25H66.125H68H69.875H71.75H73.625H75.5H77.375H79.25H81.125V36.375V38.25H79.25H77.375H75.5H73.625H71.75H69.875H68H66.125V40.125V42H68H69.875H71.75V43.875V45.75H69.875H68H66.125V47.625V49.5V51.375V53.25H68H69.875H71.75H73.625H75.5H77.375H79.25H81.125V55.125V57H79.25ZM94.25 57H92.375H90.5H88.625H86.75H84.875H83V55.125V53.25H84.875H86.75H88.625H90.5H92.375H94.25H96.125V55.125V57H94.25ZM96.125 53.25V51.375V49.5V47.625V45.75H98H99.875V47.625V49.5V51.375V53.25H98H96.125ZM96.125 45.75H94.25H92.375H90.5H88.625H86.75V43.875V42H88.625H90.5H92.375H94.25H96.125V43.875V45.75ZM86.75 42H84.875H83V40.125V38.25H84.875H86.75V40.125V42ZM98 38.25H96.125H94.25H92.375H90.5H88.625H86.75V36.375V34.5H88.625H90.5H92.375H94.25H96.125H98H99.875V36.375V38.25H98ZM111.125 57H109.25V55.125V53.25V51.375V49.5V47.625V45.75V43.875V42V40.125V38.25H107.375H105.5H103.625H101.75V36.375V34.5H103.625H105.5H107.375H109.25H111.125H113H114.875H116.75H118.625H120.5V36.375V38.25H118.625H116.75H114.875H113V40.125V42V43.875V45.75V47.625V49.5V51.375V53.25V55.125V57H111.125ZM137.375 57H135.5V55.125V53.25V51.375V49.5V47.625V45.75H133.625H131.75H129.875H128H126.125V47.625V49.5V51.375V53.25V55.125V57H124.25H122.375V55.125V53.25V51.375V49.5V47.625V45.75V43.875V42V40.125V38.25H124.25H126.125V40.125V42H128H129.875H131.75H133.625H135.5V40.125V38.25H137.375H139.25V40.125V42V43.875V45.75V47.625V49.5V51.375V53.25V55.125V57H137.375ZM135.5 38.25H133.625H131.75H129.875H128H126.125V36.375V34.5H128H129.875H131.75H133.625H135.5V36.375V38.25ZM161.75 57H159.875V55.125V53.25H161.75H163.625V55.125V57H161.75ZM143 57H141.125V55.125V53.25V51.375V49.5V47.625V45.75V43.875V42V40.125V38.25V36.375V34.5H143H144.875H146.75H148.625H150.5H152.375H154.25H156.125H158V36.375V38.25H159.875H161.75V40.125V42H159.875H158V40.125V38.25H156.125H154.25H152.375H150.5H148.625H146.75H144.875V40.125V42H146.75H148.625H150.5H152.375H154.25H156.125H158V43.875V45.75H156.125V47.625V49.5H158H159.875V51.375V53.25H158H156.125V51.375V49.5H154.25H152.375V47.625V45.75H150.5H148.625H146.75H144.875V47.625V49.5V51.375V53.25V55.125V57H143ZM174.875 57H173V55.125V53.25V51.375V49.5V47.625V45.75V43.875V42V40.125V38.25H171.125H169.25H167.375H165.5V36.375V34.5H167.375H169.25H171.125H173H174.875H176.75H178.625H180.5H182.375H184.25V36.375V38.25H182.375H180.5H178.625H176.75V40.125V42V43.875V45.75V47.625V49.5V51.375V53.25V55.125V57H174.875Z" fill="#231F20"/>
</g>
<defs>
<clipPath id="clip0_10_7656">
<rect width="227" height="93" fill="white"/>
</clipPath>
</defs>
</svg>
