<svg width="227" height="93" viewBox="0 0 227 93" fill="none" xmlns="http://www.w3.org/2000/svg">
<g clip-path="url(#clip0_17_113)">
<path d="M218.857 92.9899H8.13134C3.65221 92.9899 0 89.8042 0 85.8747V7.11519C0 3.18576 3.64073 0 8.13134 0H218.869C223.348 0 227 3.18576 227 7.11519V85.8848C227 89.8042 223.359 93 218.869 93L218.857 92.9899ZM8.13134 4.74346C6.6383 4.74346 5.4209 5.80873 5.4209 7.11519V85.8848C5.4209 87.1913 6.6383 88.2565 8.13134 88.2565H218.869C220.362 88.2565 221.579 87.1913 221.579 85.8848V7.11519C221.579 5.80873 220.362 4.74346 218.869 4.74346H8.13134Z" fill="#2A8D47"/>
<path d="M16.24 76.1799H9.95996V82.4599H16.24V76.1799Z" fill="#B7DFCD"/>
<path d="M14.0499 74.99H12.1599V83.66H14.0499V74.99Z" fill="#85D0CB"/>
<path d="M17.4299 80.27V78.38H8.75993V80.27H17.4299Z" fill="#85D0CB"/>
<path d="M14.71 77.64H11.48V80.87H14.71V77.64Z" fill="white"/>
<path d="M16.24 8.34998H9.95996V14.63H16.24V8.34998Z" fill="#B7DFCD"/>
<path d="M14.0499 7.16003H12.1599V15.83H14.0499V7.16003Z" fill="#85D0CB"/>
<path d="M17.4399 12.44V10.55H8.76994V12.44H17.4399Z" fill="#85D0CB"/>
<path d="M14.71 9.81006H11.48V13.0401H14.71V9.81006Z" fill="white"/>
<path d="M218.04 76.1799H211.76V82.4599H218.04V76.1799Z" fill="#B7DFCD"/>
<path d="M215.85 74.99H213.96V83.66H215.85V74.99Z" fill="#85D0CB"/>
<path d="M219.23 80.27V78.38H210.56V80.27H219.23Z" fill="#85D0CB"/>
<path d="M216.51 77.64H213.28V80.87H216.51V77.64Z" fill="white"/>
<path d="M218.04 8.34998H211.76V14.63H218.04V8.34998Z" fill="#B7DFCD"/>
<path d="M215.85 7.16003H213.96V15.83H215.85V7.16003Z" fill="#85D0CB"/>
<path d="M219.23 12.44V10.55H210.56V12.44H219.23Z" fill="#85D0CB"/>
<path d="M216.51 9.81006H213.28V13.0401H216.51V9.81006Z" fill="white"/>
<path d="M73.25 59H71.375H69.5H67.625H65.75H63.875H62V57.125V55.25H63.875H65.75H67.625H69.5H71.375H73.25H75.125V57.125V59H73.25ZM75.125 55.25V53.375V51.5V49.625V47.75H77H78.875V49.625V51.5V53.375V55.25H77H75.125ZM75.125 47.75H73.25H71.375H69.5H67.625H65.75V45.875V44H67.625H69.5H71.375H73.25H75.125V45.875V47.75ZM65.75 44H63.875H62V42.125V40.25H63.875H65.75V42.125V44ZM77 40.25H75.125H73.25H71.375H69.5H67.625H65.75V38.375V36.5H67.625H69.5H71.375H73.25H75.125H77H78.875V38.375V40.25H77ZM90.125 59H88.25V57.125V55.25V53.375V51.5V49.625V47.75V45.875V44V42.125V40.25H86.375H84.5H82.625H80.75V38.375V36.5H82.625H84.5H86.375H88.25H90.125H92H93.875H95.75H97.625H99.5V38.375V40.25H97.625H95.75H93.875H92V42.125V44V45.875V47.75V49.625V51.5V53.375V55.25V57.125V59H90.125ZM116.375 59H114.5V57.125V55.25V53.375V51.5V49.625V47.75H112.625H110.75H108.875H107H105.125V49.625V51.5V53.375V55.25V57.125V59H103.25H101.375V57.125V55.25V53.375V51.5V49.625V47.75V45.875V44V42.125V40.25H103.25H105.125V42.125V44H107H108.875H110.75H112.625H114.5V42.125V40.25H116.375H118.25V42.125V44V45.875V47.75V49.625V51.5V53.375V55.25V57.125V59H116.375ZM114.5 40.25H112.625H110.75H108.875H107H105.125V38.375V36.5H107H108.875H110.75H112.625H114.5V38.375V40.25ZM140.75 59H138.875V57.125V55.25H140.75H142.625V57.125V59H140.75ZM122 59H120.125V57.125V55.25V53.375V51.5V49.625V47.75V45.875V44V42.125V40.25V38.375V36.5H122H123.875H125.75H127.625H129.5H131.375H133.25H135.125H137V38.375V40.25H138.875H140.75V42.125V44H138.875H137V42.125V40.25H135.125H133.25H131.375H129.5H127.625H125.75H123.875V42.125V44H125.75H127.625H129.5H131.375H133.25H135.125H137V45.875V47.75H135.125V49.625V51.5H137H138.875V53.375V55.25H137H135.125V53.375V51.5H133.25H131.375V49.625V47.75H129.5H127.625H125.75H123.875V49.625V51.5V53.375V55.25V57.125V59H122ZM153.875 59H152V57.125V55.25V53.375V51.5V49.625V47.75V45.875V44V42.125V40.25H150.125H148.25H146.375H144.5V38.375V36.5H146.375H148.25H150.125H152H153.875H155.75H157.625H159.5H161.375H163.25V38.375V40.25H161.375H159.5H157.625H155.75V42.125V44V45.875V47.75V49.625V51.5V53.375V55.25V57.125V59H153.875Z" fill="#231F20"/>
</g>
<defs>
<clipPath id="clip0_17_113">
<rect width="227" height="93" fill="white"/>
</clipPath>
</defs>
</svg>
