<svg width="1440" height="743" viewBox="0 0 1440 743" fill="none" xmlns="http://www.w3.org/2000/svg">
<path d="M1443 0H0V743H1443V0Z" fill="#00C0F0"/>
<path d="M1443.32 572.12V171.88H1432.91V204.24H1413.48V171.88H1382.09V193.08H1331.26V225.45H1286.42V171.88H1250.54V203.13H1201.21V171.88H1166.83V200.9H1124.97V171.88H1075.64V185.27H1006.88V171.88H965.02V210.94H924.66V171.88H893.27V193.08H834.97V218.76H779.66V183.04H742.29V202.01H709.41V179.69H663.07V206.48H594.3V171.88H538.99V188.62H492.65V171.88H450.8V187.51H388.01V215.4H347.65V171.88H311.78V195.32H260.95V171.88H235.54V186.39H157.81V222.1H121.93V171.88H68.12V191.97H0V572.12H1443.32Z" fill="#4EC8EC"/>
<path d="M1443.32 743V342.76H1432.91V375.12H1413.48V342.76H1382.09V363.96H1331.26V396.33H1286.42V342.76H1250.54V374.01H1201.21V342.76H1166.83V371.77H1124.97V342.76H1075.64V356.15H1006.88V342.76H965.02V381.82H924.66V342.76H893.27V363.96H834.97V389.63H779.66V353.92H742.29V372.89H709.41V350.57H663.07V377.36H594.3V342.76H538.99V359.5H492.65V342.76H450.8V358.38H388.01V386.29H347.65V342.76H311.78V366.19H260.95V342.76H235.54V357.26H157.81V392.98H121.93V342.76H68.12V362.85H0V743H1443.32Z" fill="#77D0EE"/>
<path d="M1440.46 599H1023.92V666.21H1440.46V599Z" fill="#98C261"/>
<path d="M1440.45 610.5H1408.99V624.29H1345.74V633.77H1253.94V657.9H1213.14V624.29H1160.1V636.35H1090.74V653.59H1023.92V666.21H1440.45V610.5Z" fill="#7EA351"/>
<path d="M1440.46 666.21H1023.92V743.76H1440.46V666.21Z" fill="#764B30"/>
<path d="M1440.45 725.97V688.92H1431.43V701.84H1380.42V687.2H1333.51V675.13H1315.14V684.61H1298.83V698.4H1264.15V684.61H1219.26V701.84H1184.58V679.44H1119.3V688.92H1064.22V704.43H1023.92V719.94H1072.38V743.77H1098.9V712.18H1137.66V727.7H1166.22V717.35H1229.47V731.14H1260.07V718.22H1319.22V733.73H1364.11V722.53H1402.87V725.97H1440.45Z" fill="#8D573A"/>
<path d="M1341.15 699.39H1314.12V710.59H1341.15V699.39Z" fill="#764B30"/>
<path d="M1401.85 708.15H1374.82V719.35H1401.85V708.15Z" fill="#764B30"/>
<path d="M1287.1 710.59H1260.07V721.79H1287.1V710.59Z" fill="#764B30"/>
<path d="M1193.25 711.4H1166.22V722.6H1193.25V711.4Z" fill="#764B30"/>
<path d="M1145.65 688.19H1118.62V699.39H1145.65V688.19Z" fill="#764B30"/>
<path d="M1074.93 704.13H1047.9V715.33H1074.93V704.13Z" fill="#764B30"/>
<path d="M1337.58 655.87H1304.94V667.07H1337.58V655.87Z" fill="#764B30"/>
<path d="M1180.5 660.61H1147.86V671.81H1180.5V660.61Z" fill="#764B30"/>
<path d="M1304.94 661.47H1272.3V672.67H1304.94V661.47Z" fill="#7EA351"/>
<path d="M1401.85 660.91H1369.21V672.11H1401.85V660.91Z" fill="#7EA351"/>
<path d="M1236.6 663.84H1203.96V675.04H1236.6V663.84Z" fill="#7EA351"/>
<path d="M1109.1 660.61H1076.46V671.81H1109.1V660.61Z" fill="#7EA351"/>
<path d="M1049.55 599H0V666.21H1049.55V599Z" fill="#98C261"/>
<path d="M1019.52 616.53V626.87H999.12V637.21H952.2V645.83H907.31V631.18H886.92V626.87H846.11V621.7H809.39V634.63H791.03V653.59H770.63V634.63H737.99V617.4H715.55V641.52H642.11V618.26H574.79V635.49H538.07V644.11H491.14V632.9H474.83V638.07H427.9V610.5H385.06V624.29H321.82V633.77H230.02V657.9H189.22V624.29H136.18V636.35H66.82V653.59H0V666.21H1049.55V616.53H1019.52Z" fill="#7EA351"/>
<path d="M1049.55 666.21H0V743.76H1049.55V666.21Z" fill="#764B30"/>
<path d="M1015.44 706.15H1049.55V698.4H1027.68V674.27H970.55V688.06H907.31V666.21H884.88V684.61H856.32V691.5H819.6V684.61H764.51V694.95H711.47V666.21H701.27V682.89H638.03V700.98H560.51V687.2H509.51V679.44H493.18V706.15H436.07V688.92H407.51V701.84H356.5V687.2H309.58V675.13H291.22V684.61H274.9V698.4H240.22V684.61H195.34V701.84H160.66V679.44H95.38V688.92H40.3V704.43H0V719.94H48.46V743.77H74.98V712.18H113.74V727.7H142.3V717.35H205.54V731.14H236.14V718.22H295.3V733.73H340.18V722.53H378.94V725.97H436.07V717.35H536.03V712.18H660.47V731.14H678.83V720.8H778.79V743.77H817.55V706.15H858.36V724.25H888.96V711.32H960.36V737.17H1009.31V725.97H1015.44V706.15Z" fill="#8D573A"/>
<path d="M1010.9 680.86H1020.99V680.66C1017.62 680.7 1014.26 680.77 1010.9 680.86Z" fill="#996F58"/>
<path d="M950.16 655.87H917.51V667.07H950.16V655.87Z" fill="#764B30"/>
<path d="M625.79 655.87H593.15V667.07H625.79V655.87Z" fill="#764B30"/>
<path d="M454.42 655.87H421.78V667.07H454.42V655.87Z" fill="#764B30"/>
<path d="M317.23 699.39H290.2V710.59H317.23V699.39Z" fill="#764B30"/>
<path d="M377.93 708.15H350.9V719.35H377.93V708.15Z" fill="#764B30"/>
<path d="M542.82 692.64H515.79V703.84H542.82V692.64Z" fill="#764B30"/>
<path d="M516.13 709.16H489.1V720.36H516.13V709.16Z" fill="#764B30"/>
<path d="M617.12 696.23H590.09V707.43H617.12V696.23Z" fill="#764B30"/>
<path d="M698.72 699.39H671.69V710.59H698.72V699.39Z" fill="#764B30"/>
<path d="M744.62 704.99H717.59V716.19H744.62V704.99Z" fill="#764B30"/>
<path d="M808.37 690.63H781.34V701.83H808.37V690.63Z" fill="#764B30"/>
<path d="M878.5 694.5H851.47V705.7H878.5V694.5Z" fill="#764B30"/>
<path d="M987.3 690.63H960.27V701.83H987.3V690.63Z" fill="#764B30"/>
<path d="M1008.04 710.59H981.01V721.79H1008.04V710.59Z" fill="#764B30"/>
<path d="M944.54 704.99H917.51V716.19H944.54V704.99Z" fill="#764B30"/>
<path d="M827.54 723.23H800.51V734.43H827.54V723.23Z" fill="#764B30"/>
<path d="M263.17 710.59H236.14V721.79H263.17V710.59Z" fill="#764B30"/>
<path d="M169.33 711.4H142.3V722.6H169.33V711.4Z" fill="#764B30"/>
<path d="M121.73 688.19H94.7V699.39H121.73V688.19Z" fill="#764B30"/>
<path d="M51.01 704.13H23.98V715.33H51.01V704.13Z" fill="#764B30"/>
<path d="M313.66 655.87H281.02V667.07H313.66V655.87Z" fill="#764B30"/>
<path d="M723.71 660.91H691.07V672.11H723.71V660.91Z" fill="#764B30"/>
<path d="M830.35 660.61H797.71V671.81H830.35V660.61Z" fill="#764B30"/>
<path d="M156.58 660.61H123.94V671.81H156.58V660.61Z" fill="#764B30"/>
<path d="M281.02 661.47H248.38V672.67H281.02V661.47Z" fill="#7EA351"/>
<path d="M377.92 660.91H345.28V672.11H377.92V660.91Z" fill="#7EA351"/>
<path d="M505.43 663.84H472.79V675.04H505.43V663.84Z" fill="#7EA351"/>
<path d="M571.73 660.91H539.09V672.11H571.73V660.91Z" fill="#7EA351"/>
<path d="M691.07 663.84H658.43V675.04H691.07V663.84Z" fill="#7EA351"/>
<path d="M781.34 663.84H748.7V675.04H781.34V663.84Z" fill="#7EA351"/>
<path d="M881.3 663.84H848.66V675.04H881.3V663.84Z" fill="#7EA351"/>
<path d="M1001.67 657.17H969.03V668.37H1001.67V657.17Z" fill="#7EA351"/>
<path d="M212.68 663.84H180.04V675.04H212.68V663.84Z" fill="#7EA351"/>
<path d="M85.18 660.61H52.54V671.81H85.18V660.61Z" fill="#7EA351"/>
<path d="M189.68 595.38H187.87V599.05H189.68V595.38Z" fill="#529351"/>
<path d="M195.11 591.71H193.3V595.38H195.11V591.71Z" fill="#529351"/>
<path d="M144.44 566.01H142.63V569.68H144.44V566.01Z" fill="#98C261"/>
<path d="M101.01 558.67H99.2V562.34H101.01V558.67Z" fill="#529351"/>
<path d="M202.35 555H200.54V558.67H202.35V555Z" fill="#529351"/>
<path d="M193.3 551.33H191.49V555H193.3V551.33Z" fill="#4D8861"/>
<path d="M111.87 551.33H110.06V555H111.87V551.33Z" fill="#98C261"/>
<path d="M106.44 547.65H104.63V551.32H106.44V547.65Z" fill="#529351"/>
<path d="M101.01 577.03H106.44V580.7H102.82V591.71H104.63V595.38H108.25V599.06H120.92V599.18H180.63V599.06H187.87V595.38H173.39V591.71H169.77V588.04H167.97V584.37H166.16V591.71H162.54V595.38H148.06V591.71H144.44V588.04H142.63V584.37H124.54V580.7H120.92V577.03H117.3V566.01H111.87V562.34H106.44V558.67H104.63V555H102.82V558.67H101.01V562.34H99.2V573.35H101.01V577.03Z" fill="#529351"/>
<path d="M151.68 584.37H149.87V588.04H151.68H153.49H155.3V584.37H153.49H151.68Z" fill="#529351"/>
<path d="M120.92 566.01V562.34H119.11H117.3V566.01H119.11H120.92Z" fill="#529351"/>
<path d="M166.16 562.34H167.97H169.77H171.59H173.39H175.2H177.01H178.82H180.63H182.44V558.67H180.63H178.82H177.01H175.2H173.39H171.59H169.77H167.97H166.16H164.35V562.34H166.16Z" fill="#529351"/>
<path d="M133.58 551.33H135.39H137.2H139.01H140.82H142.63H144.44H146.25H148.06H149.87H151.68V547.65H149.87H148.06H146.25H144.44H142.63H140.82H139.01H137.2H135.39H133.58H131.77V551.33H133.58Z" fill="#529351"/>
<path d="M184.25 577.03H182.44H180.63V580.7V584.37H182.44H184.25H186.06V580.7V577.03H184.25Z" fill="#98C261"/>
<path d="M126.34 577.03H124.54V580.7V584.37H126.34H128.15H129.97V580.7V577.03H128.15H126.34Z" fill="#98C261"/>
<path d="M144.44 562.34H142.63V566.01H144.44V569.68H146.25H148.06V566.01V562.34H146.25H144.44Z" fill="#98C261"/>
<path d="M164.35 540.31H162.54V543.98H164.35H166.16H167.97V540.31H166.16H164.35Z" fill="#98C261"/>
<path d="M110.06 540.31H108.25V543.98H110.06V540.31Z" fill="#529351"/>
<path d="M171.58 532.97H169.77V536.64H171.58V532.97Z" fill="#98C261"/>
<path d="M117.3 532.97H115.49V536.64H117.3V532.97Z" fill="#4F8762"/>
<path d="M124.53 529.3H122.72V532.97H124.53V529.3Z" fill="#529351"/>
<path d="M198.73 558.67V555H191.49V540.31H189.68V536.64H186.06V532.97H171.58V536.64H169.77V532.97H171.58V529.3H169.77V525.63H166.15V521.96H149.86V525.63H148.05V521.96H137.19V525.63H131.76V529.3H129.95V536.64H126.33V532.97H117.28V536.64H111.85V540.31H110.04V543.98H108.23V551.32H111.85V554.99H104.61V558.66H106.42V562.33H111.85V566H117.28V562.33H120.9V566H117.28V577.02H120.9V580.69H124.52V577.02H129.95V584.36H142.62V588.03H144.43V591.7H148.05V595.37H162.53V591.7H166.15V584.36H167.96V588.03H169.77V591.7H173.39V595.37H193.3V591.7H196.92V580.68H195.11V577.01H196.92V573.34H200.54V558.65H198.73V558.67ZM164.35 558.67H182.45V562.34H164.35V558.67ZM142.64 566.01V562.34H148.07V569.68H142.64V566.01ZM135.4 547.65H151.69V551.32H131.78V547.65H135.4ZM180.64 580.7V577.03H186.07V584.37H180.64V580.7ZM167.97 543.99H162.54V540.32H167.97V543.99ZM149.87 584.38H155.3V588.05H149.87V584.38Z" fill="#98C261"/>
<path d="M204.16 569.68V566.01V562.34V558.67H202.35H200.54V562.34V566.01V569.68H202.35V566.01V562.34V566.01V569.68H200.54V573.35H202.35H204.16V569.68Z" fill="#529351"/>
<path d="M164.35 518.28H162.54H160.73H158.92H157.11H155.3H153.49H151.68H149.87V521.95H151.68H153.49H155.3H157.11H158.92H160.73H162.54H164.35H166.16V518.28H164.35Z" fill="#529351"/>
<path d="M108.25 599.06V599.18H119.11V599.06H110.06H108.25V595.38H104.63V599.06H108.25Z" fill="#529351"/>
<path d="M184.25 599.06H180.63V599.19H184.25V599.06Z" fill="#529351"/>
<path d="M189.68 595.38V599.06H191.49H193.3V595.38H191.49H189.68Z" fill="#529351"/>
<path d="M102.82 591.71V588.04V584.37V580.7H104.63H106.44V577.03H104.63H102.82H101.01V580.7H99.2V584.37V588.04V591.71H101.01V595.38H102.82H104.63V591.71H102.82Z" fill="#529351"/>
<path d="M196.92 573.35V577.03H195.11V580.7H196.92V584.37V588.04V591.71H195.11V595.38H196.92H198.73V591.71H200.54V588.04V584.37V580.7H198.73V577.03H200.54V573.35H198.73H196.92Z" fill="#529351"/>
<path d="M99.2 573.35V569.68V566.01V562.34V558.67H97.39V562.34H95.58V566.01V569.68V573.35H97.39V577.03H99.2H101.01V573.35H99.2Z" fill="#529351"/>
<path d="M200.54 555H198.73V558.67H200.54V555Z" fill="#529351"/>
<path d="M102.82 558.67V555H104.63H106.44H108.25H110.06V551.33H108.25V547.65V543.98V540.31H106.44V543.98H104.63V547.65H106.44V551.33H104.63H102.82V555H101.01H99.2V558.67H101.01H102.82Z" fill="#529351"/>
<path d="M196.92 551.33H195.11H193.3V555H195.11H196.92H198.73V551.33H196.92Z" fill="#529351"/>
<path d="M195.11 547.65V543.98H193.3V540.31V536.64H191.49V532.97H189.68H187.87H186.06V536.64H187.87H189.68V540.31H191.49V543.98V547.65V551.33H193.3V547.65H195.11Z" fill="#529351"/>
<path d="M111.87 540.31V536.64H110.06H108.25V540.31H110.06H111.87Z" fill="#529351"/>
<path d="M115.49 536.64V532.97H113.68H111.87V536.64H113.68H115.49Z" fill="#529351"/>
<path d="M184.25 529.3H182.44H180.63H178.82H177.01H175.2H173.39V525.62H171.59V521.95H169.77H167.97H166.16V525.62H167.97H169.77V529.3H171.59V532.97H173.39H175.2H177.01H178.82H180.63H182.44H184.25H186.06V529.3H184.25Z" fill="#529351"/>
<path d="M119.11 529.3H117.3V532.97H119.11H120.92H122.72V529.3H120.92H119.11Z" fill="#529351"/>
<path d="M149.87 521.95H148.06V525.62H149.87V521.95Z" fill="#529351"/>
<path d="M133.58 521.95H131.77H129.97V525.62H128.15V529.3H126.34V532.97V536.64H128.15H129.97V532.97V529.3H131.77V525.62H133.58H135.39H137.2V521.95H135.39H133.58Z" fill="#529351"/>
<path d="M142.63 521.95H144.44H146.25V518.28H144.44H142.63H140.82H139.01V521.95H140.82H142.63Z" fill="#529351"/>
</svg>
