<svg width="1440" height="743" viewBox="0 0 1440 743" fill="none" xmlns="http://www.w3.org/2000/svg">
<path d="M1443.32 0H0V742H1443.32V0Z" fill="#00C0F0"/>
<path d="M1443.32 571.12V170.88H1432.91V203.24H1413.48V170.88H1382.09V192.08H1331.26V224.45H1286.42V170.88H1250.54V202.13H1201.21V170.88H1166.83V199.9H1124.97V170.88H1075.64V184.27H1006.88V170.88H965.02V209.94H924.66V170.88H893.27V192.08H834.97V217.76H779.66V182.04H742.29V201.01H709.41V178.69H663.07V205.48H594.3V170.88H538.99V187.62H492.65V170.88H450.8V186.51H388.01V214.4H347.65V170.88H311.78V194.32H260.95V170.88H235.54V185.39H157.81V221.1H121.93V170.88H68.12V190.97H0V571.12H1443.32Z" fill="#4EC8EC"/>
<path d="M1443.32 742V341.76H1432.91V374.12H1413.48V341.76H1382.09V362.96H1331.26V395.33H1286.42V341.76H1250.54V373.01H1201.21V341.76H1166.83V370.77H1124.97V341.76H1075.64V355.15H1006.88V341.76H965.02V380.82H924.66V341.76H893.27V362.96H834.97V388.63H779.66V352.92H742.29V371.89H709.41V349.57H663.07V376.36H594.3V341.76H538.99V358.5H492.65V341.76H450.8V357.38H388.01V385.29H347.65V341.76H311.78V365.19H260.95V341.76H235.54V356.26H157.81V391.98H121.93V341.76H68.12V361.85H0V742H1443.32Z" fill="#77D0EE"/>
<path d="M1440.34 598.34H1023.8V665.55H1440.34V598.34Z" fill="#98C261"/>
<path d="M1440.33 609.84H1408.87V623.63H1345.62V633.11H1253.82V657.24H1213.02V623.63H1159.98V635.69H1090.62V652.93H1023.8V665.55H1440.33V609.84Z" fill="#7EA351"/>
<path d="M1440.34 665.55H1023.8V743.1H1440.34V665.55Z" fill="#764B30"/>
<path d="M1440.33 725.31V688.26H1431.31V701.18H1380.3V686.54H1333.39V674.47H1315.02V683.95H1298.71V697.74H1264.03V683.95H1219.14V701.18H1184.46V678.78H1119.18V688.26H1064.1V703.77H1023.8V719.28H1072.26V743.11H1098.78V711.52H1137.54V727.04H1166.1V716.69H1229.35V730.48H1259.95V717.56H1319.1V733.07H1363.99V721.87H1402.75V725.31H1440.33Z" fill="#8D573A"/>
<path d="M1341.03 698.73H1314V709.93H1341.03V698.73Z" fill="#764B30"/>
<path d="M1401.73 707.49H1374.7V718.69H1401.73V707.49Z" fill="#764B30"/>
<path d="M1286.98 709.93H1259.95V721.13H1286.98V709.93Z" fill="#764B30"/>
<path d="M1193.13 710.74H1166.1V721.94H1193.13V710.74Z" fill="#764B30"/>
<path d="M1145.53 687.53H1118.5V698.73H1145.53V687.53Z" fill="#764B30"/>
<path d="M1074.81 703.47H1047.78V714.67H1074.81V703.47Z" fill="#764B30"/>
<path d="M1337.46 655.21H1304.82V666.41H1337.46V655.21Z" fill="#764B30"/>
<path d="M1180.38 659.95H1147.74V671.15H1180.38V659.95Z" fill="#764B30"/>
<path d="M1304.82 660.81H1272.18V672.01H1304.82V660.81Z" fill="#7EA351"/>
<path d="M1401.73 660.25H1369.09V671.45H1401.73V660.25Z" fill="#7EA351"/>
<path d="M1236.48 663.18H1203.84V674.38H1236.48V663.18Z" fill="#7EA351"/>
<path d="M1108.98 659.95H1076.34V671.15H1108.98V659.95Z" fill="#7EA351"/>
<path d="M1049.43 598.34H-0.120117V665.55H1049.43V598.34Z" fill="#98C261"/>
<path d="M1019.4 615.87V626.21H999V636.55H952.08V645.17H907.19V630.52H886.8V626.21H845.99V621.04H809.27V633.97H790.91V652.93H770.51V633.97H737.87V616.74H715.43V640.86H641.99V617.6H574.67V634.83H537.95V643.45H491.02V632.24H474.71V637.41H427.78V609.84H384.94V623.63H321.7V633.11H229.9V657.24H189.1V623.63H136.06V635.69H66.6999V652.93H-0.120117V665.55H1049.43V615.87H1019.4Z" fill="#7EA351"/>
<path d="M1049.43 665.55H-0.120117V743.1H1049.43V665.55Z" fill="#764B30"/>
<path d="M1015.32 705.49H1049.43V697.74H1027.56V673.61H970.43V687.4H907.19V665.55H884.76V683.95H856.2V690.84H819.48V683.95H764.39V694.29H711.35V665.55H701.15V682.23H637.91V700.32H560.39V686.54H509.39V678.78H493.06V705.49H435.95V688.26H407.39V701.18H356.38V686.54H309.46V674.47H291.1V683.95H274.78V697.74H240.1V683.95H195.22V701.18H160.54V678.78H95.2599V688.26H40.1799V703.77H-0.120117V719.28H48.3399V743.11H74.8599V711.52H113.62V727.04H142.18V716.69H205.42V730.48H236.02V717.56H295.18V733.07H340.06V721.87H378.82V725.31H435.95V716.69H535.91V711.52H660.35V730.48H678.71V720.14H778.67V743.11H817.43V705.49H858.24V723.59H888.84V710.66H960.24V736.51H1009.19V725.31H1015.32V705.49Z" fill="#8D573A"/>
<path d="M1010.78 680.2H1020.87V680C1017.5 680.04 1014.14 680.11 1010.78 680.2Z" fill="#996F58"/>
<path d="M950.04 655.21H917.39V666.41H950.04V655.21Z" fill="#764B30"/>
<path d="M625.67 655.21H593.03V666.41H625.67V655.21Z" fill="#764B30"/>
<path d="M454.3 655.21H421.66V666.41H454.3V655.21Z" fill="#764B30"/>
<path d="M317.11 698.73H290.08V709.93H317.11V698.73Z" fill="#764B30"/>
<path d="M377.81 707.49H350.78V718.69H377.81V707.49Z" fill="#764B30"/>
<path d="M542.7 691.98H515.67V703.18H542.7V691.98Z" fill="#764B30"/>
<path d="M516.01 708.5H488.98V719.7H516.01V708.5Z" fill="#764B30"/>
<path d="M617 695.57H589.97V706.77H617V695.57Z" fill="#764B30"/>
<path d="M698.6 698.73H671.57V709.93H698.6V698.73Z" fill="#764B30"/>
<path d="M744.5 704.33H717.47V715.53H744.5V704.33Z" fill="#764B30"/>
<path d="M808.25 689.97H781.22V701.17H808.25V689.97Z" fill="#764B30"/>
<path d="M878.38 693.84H851.35V705.04H878.38V693.84Z" fill="#764B30"/>
<path d="M987.18 689.97H960.15V701.17H987.18V689.97Z" fill="#764B30"/>
<path d="M1007.92 709.93H980.89V721.13H1007.92V709.93Z" fill="#764B30"/>
<path d="M944.42 704.33H917.39V715.53H944.42V704.33Z" fill="#764B30"/>
<path d="M827.42 722.57H800.39V733.77H827.42V722.57Z" fill="#764B30"/>
<path d="M263.05 709.93H236.02V721.13H263.05V709.93Z" fill="#764B30"/>
<path d="M169.21 710.74H142.18V721.94H169.21V710.74Z" fill="#764B30"/>
<path d="M121.61 687.53H94.5801V698.73H121.61V687.53Z" fill="#764B30"/>
<path d="M50.8899 703.47H23.8599V714.67H50.8899V703.47Z" fill="#764B30"/>
<path d="M313.54 655.21H280.9V666.41H313.54V655.21Z" fill="#764B30"/>
<path d="M723.59 660.25H690.95V671.45H723.59V660.25Z" fill="#764B30"/>
<path d="M830.23 659.95H797.59V671.15H830.23V659.95Z" fill="#764B30"/>
<path d="M156.46 659.95H123.82V671.15H156.46V659.95Z" fill="#764B30"/>
<path d="M280.9 660.81H248.26V672.01H280.9V660.81Z" fill="#7EA351"/>
<path d="M377.8 660.25H345.16V671.45H377.8V660.25Z" fill="#7EA351"/>
<path d="M505.31 663.18H472.67V674.38H505.31V663.18Z" fill="#7EA351"/>
<path d="M571.61 660.25H538.97V671.45H571.61V660.25Z" fill="#7EA351"/>
<path d="M690.95 663.18H658.31V674.38H690.95V663.18Z" fill="#7EA351"/>
<path d="M781.22 663.18H748.58V674.38H781.22V663.18Z" fill="#7EA351"/>
<path d="M881.18 663.18H848.54V674.38H881.18V663.18Z" fill="#7EA351"/>
<path d="M1001.55 656.51H968.91V667.71H1001.55V656.51Z" fill="#7EA351"/>
<path d="M212.56 663.18H179.92V674.38H212.56V663.18Z" fill="#7EA351"/>
<path d="M85.0599 659.95H52.4199V671.15H85.0599V659.95Z" fill="#7EA351"/>
<path d="M666.77 594.54H664.96V598.21H666.77V594.54Z" fill="#529351"/>
<path d="M672.19 590.87H670.38V594.54H672.19V590.87Z" fill="#529351"/>
<path d="M621.53 565.17H619.72V568.84H621.53V565.17Z" fill="#98C261"/>
<path d="M578.1 557.83H576.29V561.5H578.1V557.83Z" fill="#529351"/>
<path d="M679.43 554.16H677.62V557.83H679.43V554.16Z" fill="#529351"/>
<path d="M670.39 550.48H668.58V554.15H670.39V550.48Z" fill="#4D8861"/>
<path d="M588.95 550.48H587.14V554.15H588.95V550.48Z" fill="#98C261"/>
<path d="M583.53 546.81H581.72V550.48H583.53V546.81Z" fill="#529351"/>
<path d="M578.1 576.19H583.53V579.86H579.9V590.87H581.72V594.54H585.33V598.22H598V598.34H657.72V598.22H664.96V594.54H650.48V590.87H646.86V587.2H645.05V583.53H643.24V590.87H639.62V594.54H625.15V590.87H621.53V587.2H619.72V583.53H601.62V579.86H598V576.19H594.38V565.17H588.95V561.5H583.53V557.83H581.72V554.16H579.9V557.83H578.1V561.5H576.29V572.51H578.1V576.19Z" fill="#529351"/>
<path d="M628.76 583.53H626.95V587.2H628.76H630.57H632.38V583.53H630.57H628.76Z" fill="#529351"/>
<path d="M598 565.17V561.5H596.19H594.38V565.17H596.19H598Z" fill="#529351"/>
<path d="M643.24 561.5H645.05H646.86H648.67H650.48H652.29H654.1H655.91H657.72H659.53V557.83H657.72H655.91H654.1H652.29H650.48H648.67H646.86H645.05H643.24H641.43V561.5H643.24Z" fill="#529351"/>
<path d="M610.67 550.48H612.48H614.29H616.1H617.91H619.72H621.53H623.34H625.15H626.95H628.76V546.81H626.95H625.15H623.34H621.53H619.72H617.91H616.1H614.29H612.48H610.67H608.86V550.48H610.67Z" fill="#529351"/>
<path d="M661.34 576.19H659.53H657.72V579.86V583.53H659.53H661.34H663.15V579.86V576.19H661.34Z" fill="#98C261"/>
<path d="M603.43 576.19H601.62V579.86V583.53H603.43H605.24H607.05V579.86V576.19H605.24H603.43Z" fill="#98C261"/>
<path d="M621.53 561.5H619.72V565.17H621.53V568.84H623.34H625.15V565.17V561.5H623.34H621.53Z" fill="#98C261"/>
<path d="M641.43 539.47H639.62V543.14H641.43H643.24H645.05V539.47H643.24H641.43Z" fill="#98C261"/>
<path d="M587.14 539.47H585.33V543.14H587.14V539.47Z" fill="#529351"/>
<path d="M648.67 532.12H646.86V535.79H648.67V532.12Z" fill="#98C261"/>
<path d="M594.38 532.12H592.57V535.79H594.38V532.12Z" fill="#4F8762"/>
<path d="M601.62 528.46H599.81V532.13H601.62V528.46Z" fill="#529351"/>
<path d="M675.81 557.83V554.16H668.57V539.47H666.76V535.8H663.14V532.13H648.66V535.8H646.85V532.13H648.66V528.46H646.85V524.79H643.23V521.12H626.94V524.79H625.13V521.12H614.27V524.79H608.84V528.46H607.03V535.8H603.41V532.13H594.36V535.8H588.93V539.47H587.12V543.14H585.31V550.48H588.93V554.15H581.69V557.82H583.5V561.49H588.93V565.16H594.36V561.49H597.98V565.16H594.36V576.18H597.98V579.85H601.6V576.18H607.03V583.52H619.7V587.19H621.51V590.86H625.13V594.53H639.61V590.86H643.23V583.52H645.04V587.19H646.85V590.86H650.47V594.53H670.38V590.86H674V579.84H672.19V576.17H674V572.5H677.62V557.81H675.81V557.83ZM641.43 557.83H659.53V561.5H641.43V557.83ZM619.72 565.17V561.5H625.15V568.84H619.72V565.17ZM612.48 546.81H628.77V550.48H608.86V546.81H612.48ZM657.72 579.86V576.19H663.15V583.53H657.72V579.86ZM645.05 543.15H639.62V539.48H645.05V543.15ZM626.95 583.54H632.38V587.21H626.95V583.54Z" fill="#98C261"/>
<path d="M681.24 568.84V565.17V561.5V557.83H679.43H677.62V561.5V565.17V568.84H679.43V565.17V561.5V565.17V568.84H677.62V572.51H679.43H681.24V568.84Z" fill="#529351"/>
<path d="M641.43 517.44H639.62H637.81H636H634.19H632.38H630.57H628.76H626.95V521.11H628.76H630.57H632.38H634.19H636H637.81H639.62H641.43H643.24V517.44H641.43Z" fill="#529351"/>
<path d="M585.33 598.22V598.34H596.19V598.22H587.14H585.33V594.54H581.72V598.22H585.33Z" fill="#529351"/>
<path d="M661.34 598.22H657.72V598.35H661.34V598.22Z" fill="#529351"/>
<path d="M666.77 594.54V598.22H668.58H670.38V594.54H668.58H666.77Z" fill="#529351"/>
<path d="M579.9 590.87V587.2V583.53V579.86H581.72H583.53V576.19H581.72H579.9H578.1V579.86H576.29V583.53V587.2V590.87H578.1V594.54H579.9H581.72V590.87H579.9Z" fill="#529351"/>
<path d="M674 572.51V576.19H672.2V579.86H674V583.53V587.2V590.87H672.2V594.54H674H675.81V590.87H677.62V587.2V583.53V579.86H675.81V576.19H677.62V572.51H675.81H674Z" fill="#529351"/>
<path d="M576.29 572.51V568.84V565.17V561.5V557.83H574.48V561.5H572.67V565.17V568.84V572.51H574.48V576.19H576.29H578.1V572.51H576.29Z" fill="#529351"/>
<path d="M677.62 554.16H675.81V557.83H677.62V554.16Z" fill="#529351"/>
<path d="M579.9 557.83V554.16H581.72H583.53H585.33H587.14V550.48H585.33V546.81V543.14V539.47H583.53V543.14H581.72V546.81H583.53V550.48H581.72H579.9V554.16H578.1H576.29V557.83H578.1H579.9Z" fill="#529351"/>
<path d="M674 550.48H672.2H670.38V554.16H672.2H674H675.81V550.48H674Z" fill="#529351"/>
<path d="M672.2 546.81V543.14H670.38V539.47V535.8H668.58V532.12H666.77H664.96H663.15V535.8H664.96H666.77V539.47H668.58V543.14V546.81V550.48H670.38V546.81H672.2Z" fill="#529351"/>
<path d="M588.95 539.47V535.8H587.14H585.33V539.47H587.14H588.95Z" fill="#529351"/>
<path d="M592.57 535.8V532.12H590.76H588.95V535.8H590.76H592.57Z" fill="#529351"/>
<path d="M661.34 528.46H659.53H657.72H655.91H654.1H652.29H650.48V524.78H648.67V521.11H646.86H645.05H643.24V524.78H645.05H646.86V528.46H648.67V532.12H650.48H652.29H654.1H655.91H657.72H659.53H661.34H663.15V528.46H661.34Z" fill="#529351"/>
<path d="M596.19 528.46H594.38V532.12H596.19H598H599.81V528.46H598H596.19Z" fill="#529351"/>
<path d="M626.96 521.11H625.15V524.78H626.96V521.11Z" fill="#529351"/>
<path d="M610.67 521.11H608.86H607.05V524.78H605.24V528.46H603.43V532.12V535.8H605.24H607.05V532.12V528.46H608.86V524.78H610.67H612.48H614.29V521.11H612.48H610.67Z" fill="#529351"/>
<path d="M619.72 521.11H621.53H623.34V517.44H621.53H619.72H617.91H616.1V521.11H617.91H619.72Z" fill="#529351"/>
<path d="M189.68 595.38H187.87V599.05H189.68V595.38Z" fill="#529351"/>
<path d="M195.11 591.71H193.3V595.38H195.11V591.71Z" fill="#529351"/>
<path d="M144.44 566.01H142.63V569.68H144.44V566.01Z" fill="#98C261"/>
<path d="M101.01 558.67H99.2002V562.34H101.01V558.67Z" fill="#529351"/>
<path d="M202.35 555H200.54V558.67H202.35V555Z" fill="#529351"/>
<path d="M193.3 551.33H191.49V555H193.3V551.33Z" fill="#4D8861"/>
<path d="M111.87 551.33H110.06V555H111.87V551.33Z" fill="#98C261"/>
<path d="M106.44 547.65H104.63V551.32H106.44V547.65Z" fill="#529351"/>
<path d="M101.01 577.03H106.44V580.7H102.82V591.71H104.63V595.38H108.25V599.06H120.92V599.18H180.63V599.06H187.87V595.38H173.39V591.71H169.77V588.04H167.97V584.37H166.16V591.71H162.54V595.38H148.06V591.71H144.44V588.04H142.63V584.37H124.54V580.7H120.92V577.03H117.3V566.01H111.87V562.34H106.44V558.67H104.63V555H102.82V558.67H101.01V562.34H99.2002V573.35H101.01V577.03Z" fill="#529351"/>
<path d="M151.68 584.37H149.87V588.04H151.68H153.49H155.3V584.37H153.49H151.68Z" fill="#529351"/>
<path d="M120.92 566.01V562.34H119.11H117.3V566.01H119.11H120.92Z" fill="#529351"/>
<path d="M166.16 562.34H167.97H169.77H171.59H173.39H175.2H177.01H178.82H180.63H182.44V558.67H180.63H178.82H177.01H175.2H173.39H171.59H169.77H167.97H166.16H164.35V562.34H166.16Z" fill="#529351"/>
<path d="M133.58 551.33H135.39H137.2H139.01H140.82H142.63H144.44H146.25H148.06H149.87H151.68V547.65H149.87H148.06H146.25H144.44H142.63H140.82H139.01H137.2H135.39H133.58H131.77V551.33H133.58Z" fill="#529351"/>
<path d="M184.25 577.03H182.44H180.63V580.7V584.37H182.44H184.25H186.06V580.7V577.03H184.25Z" fill="#98C261"/>
<path d="M126.34 577.03H124.54V580.7V584.37H126.34H128.15H129.97V580.7V577.03H128.15H126.34Z" fill="#98C261"/>
<path d="M144.44 562.34H142.63V566.01H144.44V569.68H146.25H148.06V566.01V562.34H146.25H144.44Z" fill="#98C261"/>
<path d="M164.35 540.31H162.54V543.98H164.35H166.16H167.97V540.31H166.16H164.35Z" fill="#98C261"/>
<path d="M110.06 540.31H108.25V543.98H110.06V540.31Z" fill="#529351"/>
<path d="M171.58 532.97H169.77V536.64H171.58V532.97Z" fill="#98C261"/>
<path d="M117.3 532.97H115.49V536.64H117.3V532.97Z" fill="#4F8762"/>
<path d="M124.53 529.3H122.72V532.97H124.53V529.3Z" fill="#529351"/>
<path d="M198.73 558.67V555H191.49V540.31H189.68V536.64H186.06V532.97H171.58V536.64H169.77V532.97H171.58V529.3H169.77V525.63H166.15V521.96H149.86V525.63H148.05V521.96H137.19V525.63H131.76V529.3H129.95V536.64H126.33V532.97H117.28V536.64H111.85V540.31H110.04V543.98H108.23V551.32H111.85V554.99H104.61V558.66H106.42V562.33H111.85V566H117.28V562.33H120.9V566H117.28V577.02H120.9V580.69H124.52V577.02H129.95V584.36H142.62V588.03H144.43V591.7H148.05V595.37H162.53V591.7H166.15V584.36H167.96V588.03H169.77V591.7H173.39V595.37H193.3V591.7H196.92V580.68H195.11V577.01H196.92V573.34H200.54V558.65H198.73V558.67ZM164.35 558.67H182.45V562.34H164.35V558.67ZM142.64 566.01V562.34H148.07V569.68H142.64V566.01ZM135.4 547.65H151.69V551.32H131.78V547.65H135.4ZM180.64 580.7V577.03H186.07V584.37H180.64V580.7ZM167.97 543.99H162.54V540.32H167.97V543.99ZM149.87 584.38H155.3V588.05H149.87V584.38Z" fill="#98C261"/>
<path d="M204.16 569.68V566.01V562.34V558.67H202.35H200.54V562.34V566.01V569.68H202.35V566.01V562.34V566.01V569.68H200.54V573.35H202.35H204.16V569.68Z" fill="#529351"/>
<path d="M164.35 518.28H162.54H160.73H158.92H157.11H155.3H153.49H151.68H149.87V521.95H151.68H153.49H155.3H157.11H158.92H160.73H162.54H164.35H166.16V518.28H164.35Z" fill="#529351"/>
<path d="M108.25 599.06V599.18H119.11V599.06H110.06H108.25V595.38H104.63V599.06H108.25Z" fill="#529351"/>
<path d="M184.25 599.06H180.63V599.19H184.25V599.06Z" fill="#529351"/>
<path d="M189.68 595.38V599.06H191.49H193.3V595.38H191.49H189.68Z" fill="#529351"/>
<path d="M102.82 591.71V588.04V584.37V580.7H104.63H106.44V577.03H104.63H102.82H101.01V580.7H99.2002V584.37V588.04V591.71H101.01V595.38H102.82H104.63V591.71H102.82Z" fill="#529351"/>
<path d="M196.92 573.35V577.03H195.11V580.7H196.92V584.37V588.04V591.71H195.11V595.38H196.92H198.73V591.71H200.54V588.04V584.37V580.7H198.73V577.03H200.54V573.35H198.73H196.92Z" fill="#529351"/>
<path d="M99.2001 573.35V569.68V566.01V562.34V558.67H97.3901V562.34H95.5801V566.01V569.68V573.35H97.3901V577.03H99.2001H101.01V573.35H99.2001Z" fill="#529351"/>
<path d="M200.54 555H198.73V558.67H200.54V555Z" fill="#529351"/>
<path d="M102.82 558.67V555H104.63H106.44H108.25H110.06V551.33H108.25V547.65V543.98V540.31H106.44V543.98H104.63V547.65H106.44V551.33H104.63H102.82V555H101.01H99.2002V558.67H101.01H102.82Z" fill="#529351"/>
<path d="M196.92 551.33H195.11H193.3V555H195.11H196.92H198.73V551.33H196.92Z" fill="#529351"/>
<path d="M195.11 547.65V543.98H193.3V540.31V536.64H191.49V532.97H189.68H187.87H186.06V536.64H187.87H189.68V540.31H191.49V543.98V547.65V551.33H193.3V547.65H195.11Z" fill="#529351"/>
<path d="M111.87 540.31V536.64H110.06H108.25V540.31H110.06H111.87Z" fill="#529351"/>
<path d="M115.49 536.64V532.97H113.68H111.87V536.64H113.68H115.49Z" fill="#529351"/>
<path d="M184.25 529.3H182.44H180.63H178.82H177.01H175.2H173.39V525.62H171.59V521.95H169.77H167.97H166.16V525.62H167.97H169.77V529.3H171.59V532.97H173.39H175.2H177.01H178.82H180.63H182.44H184.25H186.06V529.3H184.25Z" fill="#529351"/>
<path d="M119.11 529.3H117.3V532.97H119.11H120.92H122.72V529.3H120.92H119.11Z" fill="#529351"/>
<path d="M149.87 521.95H148.06V525.62H149.87V521.95Z" fill="#529351"/>
<path d="M133.58 521.95H131.77H129.97V525.62H128.15V529.3H126.34V532.97V536.64H128.15H129.97V532.97V529.3H131.77V525.62H133.58H135.39H137.2V521.95H135.39H133.58Z" fill="#529351"/>
<path d="M142.63 521.95H144.44H146.25V518.28H144.44H142.63H140.82H139.01V521.95H140.82H142.63Z" fill="#529351"/>
</svg>
