<svg width="1440" height="741" viewBox="0 0 1440 741" fill="none" xmlns="http://www.w3.org/2000/svg">
<path d="M1443.32 0H0V742H1443.32V0Z" fill="#00C0F0"/>
<path d="M1443.32 571.12V170.88H1432.91V203.24H1413.48V170.88H1382.09V192.08H1331.26V224.45H1286.42V170.88H1250.54V202.13H1201.21V170.88H1166.83V199.9H1124.97V170.88H1075.64V184.27H1006.88V170.88H965.02V209.94H924.66V170.88H893.27V192.08H834.97V217.76H779.66V182.04H742.29V201.01H709.41V178.69H663.07V205.48H594.3V170.88H538.99V187.62H492.65V170.88H450.8V186.51H388.01V214.4H347.65V170.88H311.78V194.32H260.95V170.88H235.54V185.39H157.81V221.1H121.93V170.88H68.12V190.97H0V571.12H1443.32Z" fill="#4EC8EC"/>
<path d="M1443.32 742V341.76H1432.91V374.12H1413.48V341.76H1382.09V362.96H1331.26V395.33H1286.42V341.76H1250.54V373.01H1201.21V341.76H1166.83V370.77H1124.97V341.76H1075.64V355.15H1006.88V341.76H965.02V380.82H924.66V341.76H893.27V362.96H834.97V388.63H779.66V352.92H742.29V371.89H709.41V349.57H663.07V376.36H594.3V341.76H538.99V358.5H492.65V341.76H450.8V357.38H388.01V385.29H347.65V341.76H311.78V365.19H260.95V341.76H235.54V356.26H157.81V391.98H121.93V341.76H68.12V361.85H0V742H1443.32Z" fill="#77D0EE"/>
<path d="M1440.46 597H1023.92V664.21H1440.46V597Z" fill="#98C261"/>
<path d="M1440.45 608.5H1408.99V622.29H1345.74V631.77H1253.94V655.9H1213.14V622.29H1160.1V634.35H1090.74V651.59H1023.92V664.21H1440.45V608.5Z" fill="#7EA351"/>
<path d="M1440.46 664.21H1023.92V741.76H1440.46V664.21Z" fill="#764B30"/>
<path d="M1440.45 723.97V686.92H1431.43V699.84H1380.42V685.2H1333.51V673.13H1315.14V682.61H1298.83V696.4H1264.15V682.61H1219.26V699.84H1184.58V677.44H1119.3V686.92H1064.22V702.43H1023.92V717.94H1072.38V741.77H1098.9V710.18H1137.66V725.7H1166.22V715.35H1229.47V729.14H1260.07V716.22H1319.22V731.73H1364.11V720.53H1402.87V723.97H1440.45Z" fill="#8D573A"/>
<path d="M1341.15 697.39H1314.12V708.59H1341.15V697.39Z" fill="#764B30"/>
<path d="M1401.85 706.15H1374.82V717.35H1401.85V706.15Z" fill="#764B30"/>
<path d="M1287.1 708.59H1260.07V719.79H1287.1V708.59Z" fill="#764B30"/>
<path d="M1193.25 709.4H1166.22V720.6H1193.25V709.4Z" fill="#764B30"/>
<path d="M1145.65 686.19H1118.62V697.39H1145.65V686.19Z" fill="#764B30"/>
<path d="M1074.93 702.13H1047.9V713.33H1074.93V702.13Z" fill="#764B30"/>
<path d="M1337.58 653.87H1304.94V665.07H1337.58V653.87Z" fill="#764B30"/>
<path d="M1180.5 658.61H1147.86V669.81H1180.5V658.61Z" fill="#764B30"/>
<path d="M1304.94 659.47H1272.3V670.67H1304.94V659.47Z" fill="#7EA351"/>
<path d="M1401.85 658.91H1369.21V670.11H1401.85V658.91Z" fill="#7EA351"/>
<path d="M1236.6 661.84H1203.96V673.04H1236.6V661.84Z" fill="#7EA351"/>
<path d="M1109.1 658.61H1076.46V669.81H1109.1V658.61Z" fill="#7EA351"/>
<path d="M1049.55 597H0V664.21H1049.55V597Z" fill="#98C261"/>
<path d="M1019.52 614.53V624.87H999.12V635.21H952.2V643.83H907.31V629.18H886.92V624.87H846.11V619.7H809.39V632.63H791.03V651.59H770.63V632.63H737.99V615.4H715.55V639.52H642.11V616.26H574.79V633.49H538.07V642.11H491.14V630.9H474.83V636.07H427.9V608.5H385.06V622.29H321.82V631.77H230.02V655.9H189.22V622.29H136.18V634.35H66.82V651.59H0V664.21H1049.55V614.53H1019.52Z" fill="#7EA351"/>
<path d="M1049.55 664.21H0V741.76H1049.55V664.21Z" fill="#764B30"/>
<path d="M1015.44 704.15H1049.55V696.4H1027.68V672.27H970.55V686.06H907.31V664.21H884.88V682.61H856.32V689.5H819.6V682.61H764.51V692.95H711.47V664.21H701.27V680.89H638.03V698.98H560.51V685.2H509.51V677.44H493.18V704.15H436.07V686.92H407.51V699.84H356.5V685.2H309.58V673.13H291.22V682.61H274.9V696.4H240.22V682.61H195.34V699.84H160.66V677.44H95.38V686.92H40.3V702.43H0V717.94H48.46V741.77H74.98V710.18H113.74V725.7H142.3V715.35H205.54V729.14H236.14V716.22H295.3V731.73H340.18V720.53H378.94V723.97H436.07V715.35H536.03V710.18H660.47V729.14H678.83V718.8H778.79V741.77H817.55V704.15H858.36V722.25H888.96V709.32H960.36V735.17H1009.31V723.97H1015.44V704.15Z" fill="#8D573A"/>
<path d="M1010.9 678.86H1020.99V678.66C1017.62 678.7 1014.26 678.77 1010.9 678.86Z" fill="#996F58"/>
<path d="M950.16 653.87H917.51V665.07H950.16V653.87Z" fill="#764B30"/>
<path d="M625.79 653.87H593.15V665.07H625.79V653.87Z" fill="#764B30"/>
<path d="M454.42 653.87H421.78V665.07H454.42V653.87Z" fill="#764B30"/>
<path d="M317.23 697.39H290.2V708.59H317.23V697.39Z" fill="#764B30"/>
<path d="M377.93 706.15H350.9V717.35H377.93V706.15Z" fill="#764B30"/>
<path d="M542.82 690.64H515.79V701.84H542.82V690.64Z" fill="#764B30"/>
<path d="M516.13 707.16H489.1V718.36H516.13V707.16Z" fill="#764B30"/>
<path d="M617.12 694.23H590.09V705.43H617.12V694.23Z" fill="#764B30"/>
<path d="M698.72 697.39H671.69V708.59H698.72V697.39Z" fill="#764B30"/>
<path d="M744.62 702.99H717.59V714.19H744.62V702.99Z" fill="#764B30"/>
<path d="M808.37 688.63H781.34V699.83H808.37V688.63Z" fill="#764B30"/>
<path d="M878.5 692.5H851.47V703.7H878.5V692.5Z" fill="#764B30"/>
<path d="M987.3 688.63H960.27V699.83H987.3V688.63Z" fill="#764B30"/>
<path d="M1008.04 708.59H981.01V719.79H1008.04V708.59Z" fill="#764B30"/>
<path d="M944.54 702.99H917.51V714.19H944.54V702.99Z" fill="#764B30"/>
<path d="M827.54 721.23H800.51V732.43H827.54V721.23Z" fill="#764B30"/>
<path d="M263.17 708.59H236.14V719.79H263.17V708.59Z" fill="#764B30"/>
<path d="M169.33 709.4H142.3V720.6H169.33V709.4Z" fill="#764B30"/>
<path d="M121.73 686.19H94.7V697.39H121.73V686.19Z" fill="#764B30"/>
<path d="M51.01 702.13H23.98V713.33H51.01V702.13Z" fill="#764B30"/>
<path d="M313.66 653.87H281.02V665.07H313.66V653.87Z" fill="#764B30"/>
<path d="M723.71 658.91H691.07V670.11H723.71V658.91Z" fill="#764B30"/>
<path d="M830.35 658.61H797.71V669.81H830.35V658.61Z" fill="#764B30"/>
<path d="M156.58 658.61H123.94V669.81H156.58V658.61Z" fill="#764B30"/>
<path d="M281.02 659.47H248.38V670.67H281.02V659.47Z" fill="#7EA351"/>
<path d="M377.92 658.91H345.28V670.11H377.92V658.91Z" fill="#7EA351"/>
<path d="M505.43 661.84H472.79V673.04H505.43V661.84Z" fill="#7EA351"/>
<path d="M571.73 658.91H539.09V670.11H571.73V658.91Z" fill="#7EA351"/>
<path d="M691.07 661.84H658.43V673.04H691.07V661.84Z" fill="#7EA351"/>
<path d="M781.34 661.84H748.7V673.04H781.34V661.84Z" fill="#7EA351"/>
<path d="M881.3 661.84H848.66V673.04H881.3V661.84Z" fill="#7EA351"/>
<path d="M1001.67 655.17H969.03V666.37H1001.67V655.17Z" fill="#7EA351"/>
<path d="M212.68 661.84H180.04V673.04H212.68V661.84Z" fill="#7EA351"/>
<path d="M85.18 658.61H52.54V669.81H85.18V658.61Z" fill="#7EA351"/>
<path d="M152.36 593.83H150.55V597.5H152.36V593.83Z" fill="#529351"/>
<path d="M157.79 590.16H155.98V593.83H157.79V590.16Z" fill="#529351"/>
<path d="M107.12 564.46H105.31V568.13H107.12V564.46Z" fill="#98C261"/>
<path d="M63.69 557.12H61.88V560.79H63.69V557.12Z" fill="#529351"/>
<path d="M165.02 553.45H163.21V557.12H165.02V553.45Z" fill="#529351"/>
<path d="M155.98 549.77H154.17V553.44H155.98V549.77Z" fill="#4D8861"/>
<path d="M74.54 549.77H72.73V553.44H74.54V549.77Z" fill="#98C261"/>
<path d="M69.1201 546.11H67.3101V549.78H69.1201V546.11Z" fill="#529351"/>
<path d="M63.69 575.48H69.11V579.15H65.5V590.16H67.31V593.83H70.92V597.51H83.59V597.63H143.31V597.51H150.55V593.83H136.07V590.16H132.45V586.49H130.64V582.82H128.83V590.16H125.21V593.83H110.73V590.16H107.12V586.49H105.31V582.82H87.21V579.15H83.59V575.48H79.97V564.46H74.54V560.79H69.11V557.12H67.31V553.45H65.5V557.12H63.69V560.79H61.88V571.8H63.69V575.48Z" fill="#529351"/>
<path d="M114.35 582.82H112.55V586.49H114.35H116.16H117.97V582.82H116.16H114.35Z" fill="#529351"/>
<path d="M83.59 564.46V560.79H81.78H79.97V564.46H81.78H83.59Z" fill="#529351"/>
<path d="M128.83 560.79H130.64H132.45H134.26H136.07H137.88H139.69H141.5H143.31H145.12V557.12H143.31H141.5H139.69H137.88H136.07H134.26H132.45H130.64H128.83H127.02V560.79H128.83Z" fill="#529351"/>
<path d="M96.26 549.77H98.07H99.88H101.69H103.5H105.31H107.12H108.93H110.73H112.55H114.35V546.11H112.55H110.73H108.93H107.12H105.31H103.5H101.69H99.88H98.07H96.26H94.45V549.77H96.26Z" fill="#529351"/>
<path d="M146.93 575.48H145.12H143.31V579.15V582.82H145.12H146.93H148.74V579.15V575.48H146.93Z" fill="#98C261"/>
<path d="M89.02 575.48H87.21V579.15V582.82H89.02H90.83H92.64V579.15V575.48H90.83H89.02Z" fill="#98C261"/>
<path d="M107.12 560.79H105.31V564.46H107.12V568.13H108.93H110.73V564.46V560.79H108.93H107.12Z" fill="#98C261"/>
<path d="M127.02 538.76H125.21V542.43H127.02H128.83H130.64V538.76H128.83H127.02Z" fill="#98C261"/>
<path d="M72.73 538.76H70.92V542.43H72.73V538.76Z" fill="#529351"/>
<path d="M134.26 531.42H132.45V535.09H134.26V531.42Z" fill="#98C261"/>
<path d="M79.97 531.42H78.16V535.09H79.97V531.42Z" fill="#4F8762"/>
<path d="M87.21 527.75H85.4V531.42H87.21V527.75Z" fill="#529351"/>
<path d="M161.4 557.12V553.45H154.16V538.76H152.35V535.09H148.73V531.42H134.25V535.09H132.44V531.42H134.25V527.75H132.44V524.08H128.82V520.41H112.53V524.08H110.72V520.41H99.86V524.08H94.43V527.75H92.62V535.09H89V531.42H79.95V535.09H74.52V538.76H72.71V542.43H70.9V549.77H74.52V553.44H67.28V557.11H69.09V560.78H74.52V564.45H79.95V560.78H83.57V564.45H79.95V575.47H83.57V579.14H87.19V575.47H92.62V582.81H105.29V586.48H107.1V590.15H110.72V593.82H125.2V590.15H128.82V582.81H130.63V586.48H132.44V590.15H136.06V593.82H155.96V590.15H159.58V579.13H157.77V575.46H159.58V571.79H163.2V557.1H161.39L161.4 557.12ZM127.02 557.12H145.12V560.79H127.02V557.12ZM105.31 564.46V560.79H110.74V568.13H105.31V564.46ZM98.07 546.1H114.35V549.77H94.44V546.1H98.06H98.07ZM143.31 579.14V575.47H148.74V582.81H143.31V579.14ZM130.64 542.43H125.21V538.76H130.64V542.43ZM112.54 582.82H117.97V586.49H112.54V582.82Z" fill="#98C261"/>
<path d="M166.83 568.13V564.46V560.79V557.12H165.02H163.21V560.79V564.46V568.13H165.02V564.46V560.79V564.46V568.13H163.21V571.8H165.02H166.83V568.13Z" fill="#529351"/>
<path d="M127.02 516.73H125.21H123.4H121.59H119.78H117.97H116.16H114.35H112.55V520.4H114.35H116.16H117.97H119.78H121.59H123.4H125.21H127.02H128.83V516.73H127.02Z" fill="#529351"/>
<path d="M70.9201 597.51V597.63H81.7801V597.51H72.7301H70.9201V593.83H67.3101V597.51H70.9201Z" fill="#529351"/>
<path d="M146.93 597.51H143.31V597.64H146.93V597.51Z" fill="#529351"/>
<path d="M152.36 593.83V597.51H154.17H155.97V593.83H154.17H152.36Z" fill="#529351"/>
<path d="M65.5 590.16V586.49V582.82V579.15H67.31H69.11V575.48H67.31H65.5H63.69V579.15H61.88V582.82V586.49V590.16H63.69V593.83H65.5H67.31V590.16H65.5Z" fill="#529351"/>
<path d="M159.6 571.8V575.48H157.78V579.15H159.6V582.82V586.49V590.16H157.78V593.83H159.6H161.4V590.16H163.21V586.49V582.82V579.15H161.4V575.48H163.21V571.8H161.4H159.6Z" fill="#529351"/>
<path d="M61.88 571.8V568.13V564.46V560.79V557.12H60.07V560.79H58.26V564.46V568.13V571.8H60.07V575.48H61.88H63.69V571.8H61.88Z" fill="#529351"/>
<path d="M163.21 553.45H161.4V557.12H163.21V553.45Z" fill="#529351"/>
<path d="M65.5 557.12V553.45H67.31H69.11H70.92H72.73V549.77H70.92V546.11V542.43V538.76H69.11V542.43H67.31V546.11H69.11V549.77H67.31H65.5V553.45H63.69H61.88V557.12H63.69H65.5Z" fill="#529351"/>
<path d="M159.6 549.77H157.78H155.97V553.45H157.78H159.6H161.4V549.77H159.6Z" fill="#529351"/>
<path d="M157.78 546.11V542.43H155.97V538.76V535.09H154.17V531.42H152.36H150.55H148.74V535.09H150.55H152.36V538.76H154.17V542.43V546.11V549.77H155.97V546.11H157.78Z" fill="#529351"/>
<path d="M74.54 538.76V535.09H72.73H70.92V538.76H72.73H74.54Z" fill="#529351"/>
<path d="M78.16 535.09V531.42H76.35H74.54V535.09H76.35H78.16Z" fill="#529351"/>
<path d="M146.93 527.75H145.12H143.31H141.5H139.69H137.88H136.07V524.07H134.26V520.4H132.45H130.64H128.83V524.07H130.64H132.45V527.75H134.26V531.42H136.07H137.88H139.69H141.5H143.31H145.12H146.93H148.74V527.75H146.93Z" fill="#529351"/>
<path d="M81.78 527.75H79.97V531.42H81.78H83.59H85.4V527.75H83.59H81.78Z" fill="#529351"/>
<path d="M112.54 520.4H110.73V524.07H112.54V520.4Z" fill="#529351"/>
<path d="M96.26 520.4H94.45H92.64V524.07H90.83V527.75H89.02V531.42V535.09H90.83H92.64V531.42V527.75H94.45V524.07H96.26H98.07H99.88V520.4H98.07H96.26Z" fill="#529351"/>
<path d="M105.31 520.4H107.12H108.93V516.73H107.12H105.31H103.5H101.69V520.4H103.5H105.31Z" fill="#529351"/>
<path d="M1251.85 593.51H1250.04V597.18H1251.85V593.51Z" fill="#529351"/>
<path d="M1257.28 589.84H1255.47V593.51H1257.28V589.84Z" fill="#529351"/>
<path d="M1206.61 564.14H1204.8V567.81H1206.61V564.14Z" fill="#98C261"/>
<path d="M1163.19 556.79H1161.38V560.46H1163.19V556.79Z" fill="#529351"/>
<path d="M1264.52 553.12H1262.71V556.79H1264.52V553.12Z" fill="#529351"/>
<path d="M1255.47 549.45H1253.66V553.12H1255.47V549.45Z" fill="#4D8861"/>
<path d="M1174.04 549.45H1172.23V553.12H1174.04V549.45Z" fill="#98C261"/>
<path d="M1168.61 545.78H1166.8V549.45H1168.61V545.78Z" fill="#529351"/>
<path d="M1163.18 575.15H1168.61V578.82H1164.99V589.84H1166.8V593.51H1170.42V597.18H1183.09V597.31H1242.81V597.18H1250.04V593.51H1235.57V589.84H1231.95V586.16H1230.14V582.5H1228.33V589.84H1224.71V593.51H1210.23V589.84H1206.61V586.16H1204.8V582.5H1186.71V578.82H1183.09V575.15H1179.47V564.14H1174.04V560.47H1168.61V556.79H1166.8V553.12H1164.99V556.79H1163.18V560.47H1161.38V571.48H1163.18V575.15Z" fill="#529351"/>
<path d="M1213.85 582.5H1212.04V586.16H1213.85H1215.66H1217.47V582.5H1215.66H1213.85Z" fill="#529351"/>
<path d="M1183.09 564.14V560.47H1181.28H1179.47V564.14H1181.28H1183.09Z" fill="#529351"/>
<path d="M1228.33 560.47H1230.14H1231.95H1233.76H1235.57H1237.38H1239.19H1241H1242.81H1244.62V556.79H1242.81H1241H1239.19H1237.38H1235.57H1233.76H1231.95H1230.14H1228.33H1226.52V560.47H1228.33Z" fill="#529351"/>
<path d="M1195.76 549.45H1197.57H1199.38H1201.18H1203H1204.8H1206.61H1208.42H1210.23H1212.04H1213.85V545.78H1212.04H1210.23H1208.42H1206.61H1204.8H1203H1201.18H1199.38H1197.57H1195.76H1193.95V549.45H1195.76Z" fill="#529351"/>
<path d="M1246.43 575.15H1244.62H1242.81V578.82V582.5H1244.62H1246.43H1248.23V578.82V575.15H1246.43Z" fill="#98C261"/>
<path d="M1188.52 575.15H1186.71V578.82V582.5H1188.52H1190.33H1192.14V578.82V575.15H1190.33H1188.52Z" fill="#98C261"/>
<path d="M1206.61 560.47H1204.8V564.14H1206.61V567.81H1208.42H1210.23V564.14V560.47H1208.42H1206.61Z" fill="#98C261"/>
<path d="M1226.52 538.43H1224.71V542.11H1226.52H1228.33H1230.14V538.43H1228.33H1226.52Z" fill="#98C261"/>
<path d="M1172.23 538.43H1170.42V542.1H1172.23V538.43Z" fill="#529351"/>
<path d="M1233.76 531.09H1231.95V534.76H1233.76V531.09Z" fill="#98C261"/>
<path d="M1179.47 531.09H1177.66V534.76H1179.47V531.09Z" fill="#4F8762"/>
<path d="M1186.71 527.42H1184.9V531.09H1186.71V527.42Z" fill="#529351"/>
<path d="M1260.9 556.79V553.12H1253.66V538.43H1251.85V534.76H1248.23V531.09H1233.75V534.76H1231.94V531.09H1233.75V527.42H1231.94V523.75H1228.32V520.08H1212.03V523.75H1210.22V520.08H1199.36V523.75H1193.93V527.42H1192.12V534.76H1188.5V531.09H1179.45V534.76H1174.02V538.43H1172.21V542.1H1170.4V549.44H1174.02V553.11H1166.78V556.78H1168.59V560.45H1174.02V564.12H1179.45V560.45H1183.07V564.12H1179.45V575.14H1183.07V578.81H1186.69V575.14H1192.12V582.48H1204.79V586.15H1206.6V589.82H1210.22V593.49H1224.7V589.82H1228.32V582.48H1230.13V586.15H1231.94V589.82H1235.56V593.49H1255.47V589.82H1259.09V578.8H1257.28V575.13H1259.09V571.46H1262.71V556.77H1260.9V556.79ZM1226.52 556.79H1244.62V560.46H1226.52V556.79ZM1204.81 564.13V560.46H1210.24V567.8H1204.81V564.13ZM1197.57 545.77H1213.86V549.44H1193.95V545.77H1197.57ZM1242.81 578.82V575.15H1248.24V582.49H1242.81V578.82ZM1230.14 542.11H1224.71V538.44H1230.14V542.11ZM1212.04 582.5H1217.47V586.17H1212.04V582.5Z" fill="#98C261"/>
<path d="M1266.33 567.81V564.14V560.47V556.79H1264.52H1262.71V560.47V564.14V567.81H1264.52V564.14V560.47V564.14V567.81H1262.71V571.48H1264.52H1266.33V567.81Z" fill="#529351"/>
<path d="M1226.52 516.4H1224.71H1222.9H1221.09H1219.28H1217.47H1215.66H1213.85H1212.04V520.08H1213.85H1215.66H1217.47H1219.28H1221.09H1222.9H1224.71H1226.52H1228.33V516.4H1226.52Z" fill="#529351"/>
<path d="M1170.42 597.18V597.31H1181.28V597.18H1172.23H1170.42V593.51H1166.8V597.18H1170.42Z" fill="#529351"/>
<path d="M1246.43 597.18H1242.81V597.31H1246.43V597.18Z" fill="#529351"/>
<path d="M1251.85 593.51V597.18H1253.66H1255.47V593.51H1253.66H1251.85Z" fill="#529351"/>
<path d="M1164.99 589.84V586.16V582.5V578.82H1166.8H1168.61V575.15H1166.8H1164.99H1163.18V578.82H1161.38V582.5V586.16V589.84H1163.18V593.51H1164.99H1166.8V589.84H1164.99Z" fill="#529351"/>
<path d="M1259.09 571.48V575.15H1257.28V578.82H1259.09V582.5V586.16V589.84H1257.28V593.51H1259.09H1260.9V589.84H1262.71V586.16V582.5V578.82H1260.9V575.15H1262.71V571.48H1260.9H1259.09Z" fill="#529351"/>
<path d="M1161.38 571.48V567.81V564.14V560.47V556.79H1159.56V560.47H1157.75V564.14V567.81V571.48H1159.56V575.15H1161.38H1163.18V571.48H1161.38Z" fill="#529351"/>
<path d="M1262.71 553.12H1260.9V556.79H1262.71V553.12Z" fill="#529351"/>
<path d="M1164.99 556.79V553.12H1166.8H1168.61H1170.42H1172.23V549.45H1170.42V545.78V542.11V538.43H1168.61V542.11H1166.8V545.78H1168.61V549.45H1166.8H1164.99V553.12H1163.18H1161.38V556.79H1163.18H1164.99Z" fill="#529351"/>
<path d="M1259.09 549.45H1257.28H1255.47V553.12H1257.28H1259.09H1260.9V549.45H1259.09Z" fill="#529351"/>
<path d="M1257.28 545.78V542.11H1255.47V538.43V534.76H1253.66V531.09H1251.85H1250.04H1248.23V534.76H1250.04H1251.85V538.43H1253.66V542.11V545.78V549.45H1255.47V545.78H1257.28Z" fill="#529351"/>
<path d="M1174.04 538.43V534.76H1172.23H1170.42V538.43H1172.23H1174.04Z" fill="#529351"/>
<path d="M1177.66 534.76V531.09H1175.85H1174.04V534.76H1175.85H1177.66Z" fill="#529351"/>
<path d="M1246.43 527.42H1244.62H1242.81H1241H1239.19H1237.38H1235.57V523.75H1233.76V520.08H1231.95H1230.14H1228.33V523.75H1230.14H1231.95V527.42H1233.76V531.09H1235.57H1237.38H1239.19H1241H1242.81H1244.62H1246.43H1248.23V527.42H1246.43Z" fill="#529351"/>
<path d="M1181.28 527.42H1179.47V531.09H1181.28H1183.09H1184.9V527.42H1183.09H1181.28Z" fill="#529351"/>
<path d="M1212.04 520.08H1210.23V523.75H1212.04V520.08Z" fill="#529351"/>
<path d="M1195.76 520.08H1193.95H1192.14V523.75H1190.33V527.42H1188.52V531.09V534.76H1190.33H1192.14V531.09V527.42H1193.95V523.75H1195.76H1197.57H1199.38V520.08H1197.57H1195.76Z" fill="#529351"/>
<path d="M1204.8 520.08H1206.61H1208.42V516.4H1206.61H1204.8H1203H1201.18V520.08H1203H1204.8Z" fill="#529351"/>
<path d="M358.37 593.54H356.56V597.21H358.37V593.54Z" fill="#529351"/>
<path d="M363.8 589.87H361.99V593.54H363.8V589.87Z" fill="#529351"/>
<path d="M313.13 564.17H311.32V567.84H313.13V564.17Z" fill="#98C261"/>
<path d="M269.7 556.83H267.89V560.5H269.7V556.83Z" fill="#529351"/>
<path d="M371.04 553.16H369.23V556.83H371.04V553.16Z" fill="#529351"/>
<path d="M361.99 549.48H360.18V553.15H361.99V549.48Z" fill="#4D8861"/>
<path d="M280.56 549.48H278.75V553.15H280.56V549.48Z" fill="#98C261"/>
<path d="M275.13 545.81H273.32V549.48H275.13V545.81Z" fill="#529351"/>
<path d="M269.7 575.19H275.13V578.86H271.51V589.87H273.32V593.54H276.94V597.22H289.61V597.34H349.32V597.22H356.56V593.54H342.08V589.87H338.46V586.2H336.66V582.53H334.85V589.87H331.23V593.54H316.75V589.87H313.13V586.2H311.32V582.53H293.23V578.86H289.61V575.19H285.99V564.17H280.56V560.5H275.13V556.83H273.32V553.16H271.51V556.83H269.7V560.5H267.89V571.51H269.7V575.19Z" fill="#529351"/>
<path d="M320.37 582.53H318.56V586.2H320.37H322.18H323.99V582.53H322.18H320.37Z" fill="#529351"/>
<path d="M289.61 564.17V560.5H287.8H285.99V564.17H287.8H289.61Z" fill="#529351"/>
<path d="M334.85 560.5H336.66H338.46H340.27H342.08H343.89H345.7H347.51H349.32H351.13V556.83H349.32H347.51H345.7H343.89H342.08H340.27H338.46H336.66H334.85H333.03V560.5H334.85Z" fill="#529351"/>
<path d="M302.27 549.48H304.08H305.89H307.7H309.51H311.32H313.13H314.94H316.75H318.56H320.37V545.81H318.56H316.75H314.94H313.13H311.32H309.51H307.7H305.89H304.08H302.27H300.46V549.48H302.27Z" fill="#529351"/>
<path d="M352.94 575.19H351.13H349.32V578.86V582.53H351.13H352.94H354.75V578.86V575.19H352.94Z" fill="#98C261"/>
<path d="M295.03 575.19H293.23V578.86V582.53H295.03H296.84H298.65V578.86V575.19H296.84H295.03Z" fill="#98C261"/>
<path d="M313.13 560.5H311.32V564.17H313.13V567.84H314.94H316.75V564.17V560.5H314.94H313.13Z" fill="#98C261"/>
<path d="M333.03 538.47H331.23V542.14H333.03H334.85H336.66V538.47H334.85H333.03Z" fill="#98C261"/>
<path d="M278.75 538.47H276.94V542.14H278.75V538.47Z" fill="#529351"/>
<path d="M340.27 531.12H338.46V534.79H340.27V531.12Z" fill="#98C261"/>
<path d="M285.99 531.12H284.18V534.79H285.99V531.12Z" fill="#4F8762"/>
<path d="M293.22 527.46H291.41V531.13H293.22V527.46Z" fill="#529351"/>
<path d="M367.42 556.83V553.16H360.18V538.47H358.37V534.8H354.75V531.13H340.27V534.8H338.46V531.13H340.27V527.46H338.46V523.79H334.84V520.12H318.55V523.79H316.74V520.12H305.88V523.79H300.45V527.46H298.64V534.8H295.02V531.13H285.97V534.8H280.54V538.47H278.73V542.14H276.92V549.48H280.54V553.15H273.3V556.82H275.11V560.49H280.54V564.16H285.97V560.49H289.59V564.16H285.97V575.18H289.59V578.85H293.21V575.18H298.64V582.52H311.31V586.19H313.12V589.86H316.74V593.53H331.22V589.86H334.84V582.52H336.65V586.19H338.46V589.86H342.08V593.53H361.99V589.86H365.61V578.84H363.8V575.17H365.61V571.5H369.23V556.81H367.42V556.83ZM333.04 556.83H351.14V560.5H333.04V556.83ZM311.33 564.17V560.5H316.76V567.84H311.33V564.17ZM304.09 545.81H320.38V549.48H300.47V545.81H304.09ZM349.33 578.86V575.19H354.76V582.53H349.33V578.86ZM336.66 542.15H331.23V538.48H336.66V542.15ZM318.56 582.54H323.99V586.21H318.56V582.54Z" fill="#98C261"/>
<path d="M372.85 567.84V564.17V560.5V556.83H371.04H369.23V560.5V564.17V567.84H371.04V564.17V560.5V564.17V567.84H369.23V571.51H371.04H372.85V567.84Z" fill="#529351"/>
<path d="M333.03 516.44H331.23H329.42H327.61H325.8H323.99H322.18H320.37H318.56V520.11H320.37H322.18H323.99H325.8H327.61H329.42H331.23H333.03H334.85V516.44H333.03Z" fill="#529351"/>
<path d="M276.94 597.22V597.34H287.8V597.22H278.75H276.94V593.54H273.32V597.22H276.94Z" fill="#529351"/>
<path d="M352.94 597.22H349.32V597.35H352.94V597.22Z" fill="#529351"/>
<path d="M358.37 593.54V597.22H360.18H361.99V593.54H360.18H358.37Z" fill="#529351"/>
<path d="M271.51 589.87V586.2V582.53V578.86H273.32H275.13V575.19H273.32H271.51H269.7V578.86H267.89V582.53V586.2V589.87H269.7V593.54H271.51H273.32V589.87H271.51Z" fill="#529351"/>
<path d="M365.61 571.51V575.19H363.8V578.86H365.61V582.53V586.2V589.87H363.8V593.54H365.61H367.42V589.87H369.23V586.2V582.53V578.86H367.42V575.19H369.23V571.51H367.42H365.61Z" fill="#529351"/>
<path d="M267.89 571.51V567.84V564.17V560.5V556.83H266.08V560.5H264.27V564.17V567.84V571.51H266.08V575.19H267.89H269.7V571.51H267.89Z" fill="#529351"/>
<path d="M369.23 553.16H367.42V556.83H369.23V553.16Z" fill="#529351"/>
<path d="M271.51 556.83V553.16H273.32H275.13H276.94H278.75V549.48H276.94V545.81V542.14V538.47H275.13V542.14H273.32V545.81H275.13V549.48H273.32H271.51V553.16H269.7H267.89V556.83H269.7H271.51Z" fill="#529351"/>
<path d="M365.61 549.48H363.8H361.99V553.16H363.8H365.61H367.42V549.48H365.61Z" fill="#529351"/>
<path d="M363.8 545.81V542.14H361.99V538.47V534.8H360.18V531.12H358.37H356.56H354.75V534.8H356.56H358.37V538.47H360.18V542.14V545.81V549.48H361.99V545.81H363.8Z" fill="#529351"/>
<path d="M280.56 538.47V534.8H278.75H276.94V538.47H278.75H280.56Z" fill="#529351"/>
<path d="M284.18 534.8V531.12H282.37H280.56V534.8H282.37H284.18Z" fill="#529351"/>
<path d="M352.94 527.46H351.13H349.32H347.51H345.7H343.89H342.08V523.78H340.27V520.11H338.46H336.66H334.85V523.78H336.66H338.46V527.46H340.27V531.12H342.08H343.89H345.7H347.51H349.32H351.13H352.94H354.75V527.46H352.94Z" fill="#529351"/>
<path d="M287.8 527.46H285.99V531.12H287.8H289.61H291.41V527.46H289.61H287.8Z" fill="#529351"/>
<path d="M318.56 520.11H316.75V523.78H318.56V520.11Z" fill="#529351"/>
<path d="M302.27 520.11H300.46H298.65V523.78H296.84V527.46H295.03V531.12V534.8H296.84H298.65V531.12V527.46H300.46V523.78H302.27H304.08H305.89V520.11H304.08H302.27Z" fill="#529351"/>
<path d="M311.32 520.11H313.13H314.94V516.44H313.13H311.32H309.51H307.7V520.11H309.51H311.32Z" fill="#529351"/>
<path d="M1390.43 593.42H1388.62V597.09H1390.43V593.42Z" fill="#529351"/>
<path d="M1395.86 589.75H1394.05V593.42H1395.86V589.75Z" fill="#529351"/>
<path d="M1345.19 564.05H1343.38V567.72H1345.19V564.05Z" fill="#98C261"/>
<path d="M1301.76 556.7H1299.95V560.37H1301.76V556.7Z" fill="#529351"/>
<path d="M1403.1 553.03H1401.29V556.7H1403.1V553.03Z" fill="#529351"/>
<path d="M1394.05 549.36H1392.24V553.03H1394.05V549.36Z" fill="#4D8861"/>
<path d="M1312.62 549.36H1310.81V553.03H1312.62V549.36Z" fill="#98C261"/>
<path d="M1307.19 545.69H1305.38V549.36H1307.19V545.69Z" fill="#529351"/>
<path d="M1301.76 575.06H1307.19V578.73H1303.57V589.75H1305.38V593.42H1309V597.09H1321.66V597.22H1381.38V597.09H1388.62V593.42H1374.14V589.75H1370.52V586.08H1368.71V582.41H1366.9V589.75H1363.28V593.42H1348.81V589.75H1345.19V586.08H1343.38V582.41H1325.28V578.73H1321.66V575.06H1318.05V564.05H1312.62V560.37H1307.19V556.7H1305.38V553.03H1303.57V556.7H1301.76V560.37H1299.95V571.39H1301.76V575.06Z" fill="#529351"/>
<path d="M1352.43 582.41H1350.62V586.08H1352.43H1354.24H1356.05V582.41H1354.24H1352.43Z" fill="#529351"/>
<path d="M1321.66 564.05V560.37H1319.85H1318.05V564.05H1319.85H1321.66Z" fill="#529351"/>
<path d="M1366.9 560.37H1368.71H1370.52H1372.33H1374.14H1375.95H1377.76H1379.57H1381.38H1383.19V556.7H1381.38H1379.57H1377.76H1375.95H1374.14H1372.33H1370.52H1368.71H1366.9H1365.09V560.37H1366.9Z" fill="#529351"/>
<path d="M1334.33 549.36H1336.14H1337.95H1339.76H1341.57H1343.38H1345.19H1347H1348.81H1350.62H1352.43V545.69H1350.62H1348.81H1347H1345.19H1343.38H1341.57H1339.76H1337.95H1336.14H1334.33H1332.52V549.36H1334.33Z" fill="#529351"/>
<path d="M1385 575.06H1383.19H1381.38V578.73V582.41H1383.19H1385H1386.81V578.73V575.06H1385Z" fill="#98C261"/>
<path d="M1327.09 575.06H1325.28V578.73V582.41H1327.09H1328.9H1330.71V578.73V575.06H1328.9H1327.09Z" fill="#98C261"/>
<path d="M1345.19 560.37H1343.38V564.05H1345.19V567.72H1347H1348.81V564.05V560.37H1347H1345.19Z" fill="#98C261"/>
<path d="M1365.09 538.34H1363.28V542.02H1365.09H1366.9H1368.71V538.34H1366.9H1365.09Z" fill="#98C261"/>
<path d="M1310.81 538.34H1309V542.01H1310.81V538.34Z" fill="#529351"/>
<path d="M1372.33 531H1370.52V534.67H1372.33V531Z" fill="#98C261"/>
<path d="M1318.04 531H1316.23V534.67H1318.04V531Z" fill="#4F8762"/>
<path d="M1325.28 527.33H1323.47V531H1325.28V527.33Z" fill="#529351"/>
<path d="M1399.48 556.7V553.03H1392.24V538.34H1390.43V534.67H1386.81V531H1372.33V534.67H1370.52V531H1372.33V527.33H1370.52V523.66H1366.9V519.99H1350.61V523.66H1348.8V519.99H1337.94V523.66H1332.51V527.33H1330.7V534.67H1327.08V531H1318.03V534.67H1312.6V538.34H1310.79V542.01H1308.98V549.35H1312.6V553.02H1305.36V556.69H1307.17V560.36H1312.6V564.03H1318.03V560.36H1321.65V564.03H1318.03V575.05H1321.65V578.72H1325.27V575.05H1330.7V582.39H1343.37V586.06H1345.18V589.73H1348.8V593.4H1363.28V589.73H1366.9V582.39H1368.71V586.06H1370.52V589.73H1374.14V593.4H1394.05V589.73H1397.67V578.71H1395.86V575.04H1397.67V571.37H1401.29V556.68H1399.48V556.7ZM1365.1 556.7H1383.2V560.37H1365.1V556.7ZM1343.38 564.04V560.37H1348.81V567.72H1343.38V564.05V564.04ZM1336.14 545.68H1352.43V549.35H1332.52V545.68H1336.14ZM1381.38 578.73V575.06H1386.81V582.4H1381.38V578.73ZM1368.71 542.02H1363.28V538.35H1368.71V542.02ZM1350.61 582.41H1356.04V586.08H1350.61V582.41Z" fill="#98C261"/>
<path d="M1404.9 567.72V564.05V560.37V556.7H1403.1H1401.29V560.37V564.05V567.72H1403.1V564.05V560.37V564.05V567.72H1401.29V571.39H1403.1H1404.9V567.72Z" fill="#529351"/>
<path d="M1365.09 516.32H1363.28H1361.47H1359.67H1357.85H1356.05H1354.24H1352.43H1350.62V519.99H1352.43H1354.24H1356.05H1357.85H1359.67H1361.47H1363.28H1365.09H1366.9V516.32H1365.09Z" fill="#529351"/>
<path d="M1309 597.09V597.22H1319.85V597.09H1310.81H1309V593.42H1305.38V597.09H1309Z" fill="#529351"/>
<path d="M1385 597.09H1381.38V597.21H1385V597.09Z" fill="#529351"/>
<path d="M1390.43 593.42V597.09H1392.24H1394.05V593.42H1392.24H1390.43Z" fill="#529351"/>
<path d="M1303.57 589.75V586.08V582.41V578.73H1305.38H1307.19V575.06H1305.38H1303.57H1301.76V578.73H1299.95V582.41V586.08V589.75H1301.76V593.42H1303.57H1305.38V589.75H1303.57Z" fill="#529351"/>
<path d="M1397.67 571.39V575.06H1395.86V578.73H1397.67V582.41V586.08V589.75H1395.86V593.42H1397.67H1399.48V589.75H1401.29V586.08V582.41V578.73H1399.48V575.06H1401.29V571.39H1399.48H1397.67Z" fill="#529351"/>
<path d="M1299.95 571.39V567.72V564.05V560.37V556.7H1298.14V560.37H1296.33V564.05V567.72V571.39H1298.14V575.06H1299.95H1301.76V571.39H1299.95Z" fill="#529351"/>
<path d="M1401.29 553.03H1399.48V556.7H1401.29V553.03Z" fill="#529351"/>
<path d="M1303.57 556.7V553.03H1305.38H1307.19H1309H1310.81V549.36H1309V545.69V542.02V538.34H1307.19V542.02H1305.38V545.69H1307.19V549.36H1305.38H1303.57V553.03H1301.76H1299.95V556.7H1301.76H1303.57Z" fill="#529351"/>
<path d="M1397.67 549.36H1395.86H1394.05V553.03H1395.86H1397.67H1399.48V549.36H1397.67Z" fill="#529351"/>
<path d="M1395.86 545.69V542.02H1394.05V538.34V534.68H1392.24V531H1390.43H1388.62H1386.81V534.68H1388.62H1390.43V538.34H1392.24V542.02V545.69V549.36H1394.05V545.69H1395.86Z" fill="#529351"/>
<path d="M1312.62 538.34V534.68H1310.81H1309V538.34H1310.81H1312.62Z" fill="#529351"/>
<path d="M1316.23 534.68V531H1314.42H1312.62V534.68H1314.42H1316.23Z" fill="#529351"/>
<path d="M1385 527.33H1383.19H1381.38H1379.57H1377.76H1375.95H1374.14V523.66H1372.33V519.99H1370.52H1368.71H1366.9V523.66H1368.71H1370.52V527.33H1372.33V531H1374.14H1375.95H1377.76H1379.57H1381.38H1383.19H1385H1386.81V527.33H1385Z" fill="#529351"/>
<path d="M1319.85 527.33H1318.05V531H1319.85H1321.66H1323.47V527.33H1321.66H1319.85Z" fill="#529351"/>
<path d="M1350.62 519.99H1348.81V523.66H1350.62V519.99Z" fill="#529351"/>
<path d="M1334.33 519.99H1332.52H1330.71V523.66H1328.9V527.33H1327.09V531V534.68H1328.9H1330.71V531V527.33H1332.52V523.66H1334.33H1336.14H1337.95V519.99H1336.14H1334.33Z" fill="#529351"/>
<path d="M1343.38 519.99H1345.19H1347V516.32H1345.19H1343.38H1341.57H1339.76V519.99H1341.57H1343.38Z" fill="#529351"/>
</svg>
