<svg width="1440" height="743" viewBox="0 0 1440 743" fill="none" xmlns="http://www.w3.org/2000/svg">
<path d="M1443.32 0H0V742H1443.32V0Z" fill="#00C0F0"/>
<path d="M1443.32 571.12V170.88H1432.91V203.24H1413.48V170.88H1382.09V192.08H1331.26V224.45H1286.42V170.88H1250.54V202.13H1201.21V170.88H1166.83V199.9H1124.97V170.88H1075.64V184.27H1006.88V170.88H965.02V209.94H924.66V170.88H893.27V192.08H834.97V217.76H779.66V182.04H742.29V201.01H709.41V178.69H663.07V205.48H594.3V170.88H538.99V187.62H492.65V170.88H450.8V186.51H388.01V214.4H347.65V170.88H311.78V194.32H260.95V170.88H235.54V185.39H157.81V221.1H121.93V170.88H68.12V190.97H0V571.12H1443.32Z" fill="#4EC8EC"/>
<path d="M1443.32 742V341.76H1432.91V374.12H1413.48V341.76H1382.09V362.96H1331.26V395.33H1286.42V341.76H1250.54V373.01H1201.21V341.76H1166.83V370.77H1124.97V341.76H1075.64V355.15H1006.88V341.76H965.02V380.82H924.66V341.76H893.27V362.96H834.97V388.63H779.66V352.92H742.29V371.89H709.41V349.57H663.07V376.36H594.3V341.76H538.99V358.5H492.65V341.76H450.8V357.38H388.01V385.29H347.65V341.76H311.78V365.19H260.95V341.76H235.54V356.26H157.81V391.98H121.93V341.76H68.12V361.85H0V742H1443.32Z" fill="#77D0EE"/>
<path d="M1441.34 598.34H1024.55V666.427H1441.34V598.34Z" fill="#98C261"/>
<path d="M1441.33 609.99H1409.85V623.96H1346.56V633.564H1254.71V658.009H1213.88V623.96H1160.81V636.178H1091.41V653.643H1024.55V666.427H1441.33V609.99Z" fill="#7EA351"/>
<path d="M1441.34 666.427H1024.55V744.99H1441.34V666.427Z" fill="#764B30"/>
<path d="M1441.33 726.968V689.434H1432.3V702.523H1381.26V687.691H1334.32V675.464H1315.94V685.068H1299.62V699.038H1264.92V685.068H1220V702.523H1185.3V679.83H1119.98V689.434H1064.87V705.146H1024.55V720.859H1073.03V745H1099.57V712.998H1138.35V728.72H1166.93V718.235H1230.22V732.205H1260.84V719.116H1320.03V734.829H1364.94V723.483H1403.73V726.968H1441.33Z" fill="#8D573A"/>
<path d="M1341.97 700.041H1314.92V711.387H1341.97V700.041Z" fill="#764B30"/>
<path d="M1402.71 708.915H1375.66V720.261H1402.71V708.915Z" fill="#764B30"/>
<path d="M1287.89 711.387H1260.84V722.733H1287.89V711.387Z" fill="#764B30"/>
<path d="M1193.98 712.207H1166.93V723.554H1193.98V712.207Z" fill="#764B30"/>
<path d="M1146.35 688.694H1119.3V700.041H1146.35V688.694Z" fill="#764B30"/>
<path d="M1075.59 704.842H1048.54V716.189H1075.59V704.842Z" fill="#764B30"/>
<path d="M1338.4 655.953H1305.74V667.299H1338.4V655.953Z" fill="#764B30"/>
<path d="M1181.22 660.754H1148.56V672.101H1181.22V660.754Z" fill="#764B30"/>
<path d="M1305.74 661.626H1273.08V672.972H1305.74V661.626Z" fill="#7EA351"/>
<path d="M1402.71 661.058H1370.05V672.404H1402.71V661.058Z" fill="#7EA351"/>
<path d="M1237.36 664.026H1204.7V675.373H1237.36V664.026Z" fill="#7EA351"/>
<path d="M1109.78 660.754H1077.12V672.101H1109.78V660.754Z" fill="#7EA351"/>
<path d="M1050.19 598.34H0V666.427H1050.19V598.34Z" fill="#98C261"/>
<path d="M1020.14 616.099V626.574H999.73V637.049H952.782V645.781H907.864V630.94H887.462V626.574H846.627V621.336H809.885V634.435H791.513V653.643H771.101V634.435H738.441V616.98H715.987V641.415H642.502V617.851H575.141V635.306H538.399V644.039H491.44V632.683H475.12V637.92H428.161V609.99H385.295V623.96H322.017V633.564H230.161V658.009H189.336V623.96H136.263V636.178H66.8608V653.643H0V666.427H1050.19V616.099H1020.14Z" fill="#7EA351"/>
<path d="M1050.19 666.427H0V744.99H1050.19V666.427Z" fill="#764B30"/>
<path d="M1016.06 706.889H1050.19V699.038H1028.31V674.593H971.143V688.563H907.864V666.427H885.421V685.068H856.843V692.048H820.101V685.068H764.977V695.543H711.905V666.427H701.698V683.325H638.42V701.651H560.852V687.692H509.821V679.83H493.481V706.889H436.336V689.434H407.759V702.523H356.718V687.692H309.769V675.464H291.398V685.068H275.068V699.038H240.367V685.068H195.459V702.523H160.758V679.83H95.4383V689.434H40.3246V705.146H0V720.859H48.4896V745H75.0258V712.998H113.809V728.72H142.387V718.235H205.666V732.205H236.284V719.116H295.48V734.829H340.388V723.483H379.172V726.968H436.336V718.235H536.357V712.998H660.873V732.205H679.245V721.73H779.266V745H818.049V706.889H858.884V725.225H889.503V712.126H960.947V738.314H1009.93V726.968H1016.06V706.889Z" fill="#8D573A"/>
<path d="M1011.52 681.269H1021.61V681.066C1018.24 681.107 1014.88 681.177 1011.52 681.269Z" fill="#996F58"/>
<path d="M950.741 655.953H918.071V667.299H950.741V655.953Z" fill="#764B30"/>
<path d="M626.172 655.953H593.512V667.299H626.172V655.953Z" fill="#764B30"/>
<path d="M454.698 655.953H422.038V667.299H454.698V655.953Z" fill="#764B30"/>
<path d="M317.424 700.041H290.377V711.387H317.424V700.041Z" fill="#764B30"/>
<path d="M378.161 708.915H351.114V720.261H378.161V708.915Z" fill="#764B30"/>
<path d="M543.152 693.202H516.105V704.549H543.152V693.202Z" fill="#764B30"/>
<path d="M516.445 709.938H489.399V721.284H516.445V709.938Z" fill="#764B30"/>
<path d="M617.497 696.839H590.45V708.186H617.497V696.839Z" fill="#764B30"/>
<path d="M699.147 700.041H672.1V711.387H699.147V700.041Z" fill="#764B30"/>
<path d="M745.075 705.714H718.028V717.06H745.075V705.714Z" fill="#764B30"/>
<path d="M808.864 691.166H781.817V702.512H808.864V691.166Z" fill="#764B30"/>
<path d="M879.037 695.087H851.99V706.433H879.037V695.087Z" fill="#764B30"/>
<path d="M987.903 691.166H960.856V702.512H987.903V691.166Z" fill="#764B30"/>
<path d="M1008.66 711.387H981.609V722.733H1008.66V711.387Z" fill="#764B30"/>
<path d="M945.117 705.714H918.071V717.06H945.117V705.714Z" fill="#764B30"/>
<path d="M828.046 724.192H800.999V735.538H828.046V724.192Z" fill="#764B30"/>
<path d="M263.331 711.387H236.284V722.733H263.331V711.387Z" fill="#764B30"/>
<path d="M169.433 712.207H142.387V723.554H169.433V712.207Z" fill="#764B30"/>
<path d="M121.804 688.694H94.7578V700.041H121.804V688.694Z" fill="#764B30"/>
<path d="M51.0411 704.842H23.9946V716.189H51.0411V704.842Z" fill="#764B30"/>
<path d="M313.852 655.953H281.192V667.299H313.852V655.953Z" fill="#764B30"/>
<path d="M724.152 661.058H691.492V672.404H724.152V661.058Z" fill="#764B30"/>
<path d="M830.857 660.754H798.198V672.101H830.857V660.754Z" fill="#764B30"/>
<path d="M156.676 660.754H124.016V672.101H156.676V660.754Z" fill="#764B30"/>
<path d="M281.192 661.626H248.532V672.972H281.192V661.626Z" fill="#7EA351"/>
<path d="M378.151 661.058H345.491V672.404H378.151V661.058Z" fill="#7EA351"/>
<path d="M505.739 664.026H473.079V675.373H505.739V664.026Z" fill="#7EA351"/>
<path d="M572.079 661.058H539.419V672.404H572.079V661.058Z" fill="#7EA351"/>
<path d="M691.492 664.026H658.832V675.373H691.492V664.026Z" fill="#7EA351"/>
<path d="M781.817 664.026H749.157V675.373H781.817V664.026Z" fill="#7EA351"/>
<path d="M881.838 664.026H849.178V675.373H881.838V664.026Z" fill="#7EA351"/>
<path d="M1002.28 657.269H969.622V668.616H1002.28V657.269Z" fill="#7EA351"/>
<path d="M212.81 664.026H180.15V675.373H212.81V664.026Z" fill="#7EA351"/>
<path d="M85.2321 660.754H52.5721V672.101H85.2321V660.754Z" fill="#7EA351"/>
<path d="M189.68 594.38H187.87V598.05H189.68V594.38Z" fill="#529351"/>
<path d="M195.11 590.71H193.3V594.38H195.11V590.71Z" fill="#529351"/>
<path d="M144.44 565.01H142.63V568.68H144.44V565.01Z" fill="#98C261"/>
<path d="M101.01 557.67H99.2V561.34H101.01V557.67Z" fill="#529351"/>
<path d="M202.35 554H200.54V557.67H202.35V554Z" fill="#529351"/>
<path d="M193.3 550.33H191.49V554H193.3V550.33Z" fill="#4D8861"/>
<path d="M111.87 550.33H110.06V554H111.87V550.33Z" fill="#98C261"/>
<path d="M106.44 546.65H104.63V550.32H106.44V546.65Z" fill="#529351"/>
<path d="M101.01 576.03H106.44V579.7H102.82V590.71H104.63V594.38H108.25V598.06H120.92V598.18H180.63V598.06H187.87V594.38H173.39V590.71H169.77V587.04H167.97V583.37H166.16V590.71H162.54V594.38H148.06V590.71H144.44V587.04H142.63V583.37H124.54V579.7H120.92V576.03H117.3V565.01H111.87V561.34H106.44V557.67H104.63V554H102.82V557.67H101.01V561.34H99.2V572.35H101.01V576.03Z" fill="#529351"/>
<path d="M151.68 583.37H149.87V587.04H151.68H153.49H155.3V583.37H153.49H151.68Z" fill="#529351"/>
<path d="M120.92 565.01V561.34H119.11H117.3V565.01H119.11H120.92Z" fill="#529351"/>
<path d="M166.16 561.34H167.97H169.77H171.59H173.39H175.2H177.01H178.82H180.63H182.44V557.67H180.63H178.82H177.01H175.2H173.39H171.59H169.77H167.97H166.16H164.35V561.34H166.16Z" fill="#529351"/>
<path d="M133.58 550.33H135.39H137.2H139.01H140.82H142.63H144.44H146.25H148.06H149.87H151.68V546.65H149.87H148.06H146.25H144.44H142.63H140.82H139.01H137.2H135.39H133.58H131.77V550.33H133.58Z" fill="#529351"/>
<path d="M184.25 576.03H182.44H180.63V579.7V583.37H182.44H184.25H186.06V579.7V576.03H184.25Z" fill="#98C261"/>
<path d="M126.34 576.03H124.54V579.7V583.37H126.34H128.15H129.97V579.7V576.03H128.15H126.34Z" fill="#98C261"/>
<path d="M144.44 561.34H142.63V565.01H144.44V568.68H146.25H148.06V565.01V561.34H146.25H144.44Z" fill="#98C261"/>
<path d="M164.35 539.31H162.54V542.98H164.35H166.16H167.97V539.31H166.16H164.35Z" fill="#98C261"/>
<path d="M110.06 539.31H108.25V542.98H110.06V539.31Z" fill="#529351"/>
<path d="M171.58 531.97H169.77V535.64H171.58V531.97Z" fill="#98C261"/>
<path d="M117.3 531.97H115.49V535.64H117.3V531.97Z" fill="#4F8762"/>
<path d="M124.53 528.3H122.72V531.97H124.53V528.3Z" fill="#529351"/>
<path d="M198.73 557.67V554H191.49V539.31H189.68V535.64H186.06V531.97H171.58V535.64H169.77V531.97H171.58V528.3H169.77V524.63H166.15V520.96H149.86V524.63H148.05V520.96H137.19V524.63H131.76V528.3H129.95V535.64H126.33V531.97H117.28V535.64H111.85V539.31H110.04V542.98H108.23V550.32H111.85V553.99H104.61V557.66H106.42V561.33H111.85V565H117.28V561.33H120.9V565H117.28V576.02H120.9V579.69H124.52V576.02H129.95V583.36H142.62V587.03H144.43V590.7H148.05V594.37H162.53V590.7H166.15V583.36H167.96V587.03H169.77V590.7H173.39V594.37H193.3V590.7H196.92V579.68H195.11V576.01H196.92V572.34H200.54V557.65H198.73V557.67ZM164.35 557.67H182.45V561.34H164.35V557.67ZM142.64 565.01V561.34H148.07V568.68H142.64V565.01ZM135.4 546.65H151.69V550.32H131.78V546.65H135.4ZM180.64 579.7V576.03H186.07V583.37H180.64V579.7ZM167.97 542.99H162.54V539.32H167.97V542.99ZM149.87 583.38H155.3V587.05H149.87V583.38Z" fill="#98C261"/>
<path d="M204.16 568.68V565.01V561.34V557.67H202.35H200.54V561.34V565.01V568.68H202.35V565.01V561.34V565.01V568.68H200.54V572.35H202.35H204.16V568.68Z" fill="#529351"/>
<path d="M164.35 517.28H162.54H160.73H158.92H157.11H155.3H153.49H151.68H149.87V520.95H151.68H153.49H155.3H157.11H158.92H160.73H162.54H164.35H166.16V517.28H164.35Z" fill="#529351"/>
<path d="M108.25 598.06V598.18H119.11V598.06H110.06H108.25V594.38H104.63V598.06H108.25Z" fill="#529351"/>
<path d="M184.25 598.06H180.63V598.19H184.25V598.06Z" fill="#529351"/>
<path d="M189.68 594.38V598.06H191.49H193.3V594.38H191.49H189.68Z" fill="#529351"/>
<path d="M102.82 590.71V587.04V583.37V579.7H104.63H106.44V576.03H104.63H102.82H101.01V579.7H99.2V583.37V587.04V590.71H101.01V594.38H102.82H104.63V590.71H102.82Z" fill="#529351"/>
<path d="M196.92 572.35V576.03H195.11V579.7H196.92V583.37V587.04V590.71H195.11V594.38H196.92H198.73V590.71H200.54V587.04V583.37V579.7H198.73V576.03H200.54V572.35H198.73H196.92Z" fill="#529351"/>
<path d="M99.2 572.35V568.68V565.01V561.34V557.67H97.39V561.34H95.58V565.01V568.68V572.35H97.39V576.03H99.2H101.01V572.35H99.2Z" fill="#529351"/>
<path d="M200.54 554H198.73V557.67H200.54V554Z" fill="#529351"/>
<path d="M102.82 557.67V554H104.63H106.44H108.25H110.06V550.33H108.25V546.65V542.98V539.31H106.44V542.98H104.63V546.65H106.44V550.33H104.63H102.82V554H101.01H99.2V557.67H101.01H102.82Z" fill="#529351"/>
<path d="M196.92 550.33H195.11H193.3V554H195.11H196.92H198.73V550.33H196.92Z" fill="#529351"/>
<path d="M195.11 546.65V542.98H193.3V539.31V535.64H191.49V531.97H189.68H187.87H186.06V535.64H187.87H189.68V539.31H191.49V542.98V546.65V550.33H193.3V546.65H195.11Z" fill="#529351"/>
<path d="M111.87 539.31V535.64H110.06H108.25V539.31H110.06H111.87Z" fill="#529351"/>
<path d="M115.49 535.64V531.97H113.68H111.87V535.64H113.68H115.49Z" fill="#529351"/>
<path d="M184.25 528.3H182.44H180.63H178.82H177.01H175.2H173.39V524.62H171.59V520.95H169.77H167.97H166.16V524.62H167.97H169.77V528.3H171.59V531.97H173.39H175.2H177.01H178.82H180.63H182.44H184.25H186.06V528.3H184.25Z" fill="#529351"/>
<path d="M119.11 528.3H117.3V531.97H119.11H120.92H122.72V528.3H120.92H119.11Z" fill="#529351"/>
<path d="M149.87 520.95H148.06V524.62H149.87V520.95Z" fill="#529351"/>
<path d="M133.58 520.95H131.77H129.97V524.62H128.15V528.3H126.34V531.97V535.64H128.15H129.97V531.97V528.3H131.77V524.62H133.58H135.39H137.2V520.95H135.39H133.58Z" fill="#529351"/>
<path d="M142.63 520.95H144.44H146.25V517.28H144.44H142.63H140.82H139.01V520.95H140.82H142.63Z" fill="#529351"/>
<path d="M795.47 595.02H793.81V598.39H795.47V595.02Z" fill="#529351"/>
<path d="M800.46 591.64H798.8V595.01H800.46V591.64Z" fill="#529351"/>
<path d="M753.91 568.03H752.25V571.4H753.91V568.03Z" fill="#98C261"/>
<path d="M714.01 561.29H712.35V564.66H714.01V561.29Z" fill="#529351"/>
<path d="M807.11 557.91H805.45V561.28H807.11V557.91Z" fill="#529351"/>
<path d="M798.79 554.54H797.13V557.91H798.79V554.54Z" fill="#4D8861"/>
<path d="M723.99 554.54H722.33V557.91H723.99V554.54Z" fill="#98C261"/>
<path d="M719 551.17H717.34V554.54H719V551.17Z" fill="#529351"/>
<path d="M714.01 578.15H719V581.53H715.68V591.64H717.34V595.02H720.66V598.39H732.3V598.51H787.16V598.39H793.81V595.02H780.51V591.64H777.18V588.27H775.52V584.9H773.86V591.64H770.54V595.02H757.24V591.64H753.91V588.27H752.25V584.9H735.63V581.53H732.3V578.15H728.98V568.03H723.99V564.66H719V561.29H717.34V557.91H715.68V561.29H714.01V564.66H712.35V574.78H714.01V578.15Z" fill="#529351"/>
<path d="M760.56 584.9H758.9V588.27H760.56H762.22H763.89V584.9H762.22H760.56Z" fill="#529351"/>
<path d="M732.3 568.03V564.66H730.64H728.98V568.03H730.64H732.3Z" fill="#529351"/>
<path d="M773.86 564.66H775.52H777.18H778.85H780.51H782.17H783.83H785.5H787.16H788.82V561.29H787.16H785.5H783.83H782.17H780.51H778.85H777.18H775.52H773.86H772.2V564.66H773.86Z" fill="#529351"/>
<path d="M743.94 554.54H745.6H747.26H748.92H750.59H752.25H753.91H755.57H757.24H758.9H760.56V551.17H758.9H757.24H755.57H753.91H752.25H750.59H748.92H747.26H745.6H743.94H742.27V554.54H743.94Z" fill="#529351"/>
<path d="M790.48 578.15H788.82H787.16V581.53V584.9H788.82H790.48H792.15V581.53V578.15H790.48Z" fill="#98C261"/>
<path d="M737.29 578.15H735.63V581.53V584.9H737.29H738.95H740.61V581.53V578.15H738.95H737.29Z" fill="#98C261"/>
<path d="M753.91 564.66H752.25V568.03H753.91V571.41H755.57H757.24V568.03V564.66H755.57H753.91Z" fill="#98C261"/>
<path d="M772.2 544.42H770.54V547.8H772.2H773.86H775.52V544.42H773.86H772.2Z" fill="#98C261"/>
<path d="M722.32 544.42H720.66V547.79H722.32V544.42Z" fill="#529351"/>
<path d="M778.84 537.68H777.18V541.05H778.84V537.68Z" fill="#98C261"/>
<path d="M728.97 537.68H727.31V541.05H728.97V537.68Z" fill="#4F8762"/>
<path d="M735.62 534.3H733.96V537.67H735.62V534.3Z" fill="#529351"/>
<path d="M803.78 561.29V557.92H797.13V544.43H795.47V541.06H792.15V537.69H778.85V541.06H777.19V537.69H778.85V534.32H777.19V530.95H773.87V527.58H758.91V530.95H757.25V527.58H747.28V530.95H742.29V534.32H740.63V541.07H737.31V537.7H729V541.07H724.01V544.44H722.35V547.81H720.69V554.56H724.02V557.93H717.37V561.3H719.03V564.67H724.02V568.04H729.01V564.67H732.33V568.04H729.01V578.16H732.33V581.53H735.65V578.16H740.64V584.91H752.28V588.28H753.94V591.65H757.26V595.02H770.56V591.65H773.88V584.9H775.54V588.27H777.2V591.64H780.53V595.01H798.82V591.64H802.14V581.52H800.48V578.15H802.14V574.78H805.47V561.29H803.81H803.78ZM772.19 561.29H788.82V564.66H772.19V561.29ZM752.24 568.04V564.67H757.23V571.42H752.24V568.05V568.04ZM745.59 551.18H760.55V554.55H742.26V551.18H745.58H745.59ZM787.15 581.54V578.17H792.14V584.92H787.15V581.55V581.54ZM775.51 547.81H770.52V544.44H775.51V547.81ZM758.89 584.91H763.88V588.28H758.89V584.91Z" fill="#98C261"/>
<path d="M808.77 571.41V568.03V564.66V561.29H807.11H805.45V564.66V568.03V571.41H807.11V568.03V564.66V568.03V571.41H805.45V574.78H807.11H808.77V571.41Z" fill="#529351"/>
<path d="M772.2 524.18H770.54H768.87H767.21H765.55H763.89H762.22H760.56H758.9V527.56H760.56H762.22H763.89H765.55H767.21H768.87H770.54H772.2H773.86V524.18H772.2Z" fill="#529351"/>
<path d="M720.66 598.39V598.51H730.64V598.39H722.33H720.66V595.02H717.34V598.39H720.66Z" fill="#529351"/>
<path d="M790.48 598.39H787.16V598.51H790.48V598.39Z" fill="#529351"/>
<path d="M795.47 595.02V598.39H797.13H798.8V595.02H797.13H795.47Z" fill="#529351"/>
<path d="M715.68 591.64V588.27V584.9V581.53H717.34H719V578.15H717.34H715.68H714.01V581.53H712.35V584.9V588.27V591.64H714.01V595.02H715.68H717.34V591.64H715.68Z" fill="#529351"/>
<path d="M802.12 574.78V578.15H800.46V581.53H802.12V584.9V588.27V591.64H800.46V595.02H802.12H803.78V591.64H805.45V588.27V584.9V581.53H803.78V578.15H805.45V574.78H803.78H802.12Z" fill="#529351"/>
<path d="M712.35 574.78V571.41V568.03V564.66V561.29H710.69V564.66H709.03V568.03V571.41V574.78H710.69V578.15H712.35H714.01V574.78H712.35Z" fill="#529351"/>
<path d="M805.44 557.91H803.78V561.28H805.44V557.91Z" fill="#529351"/>
<path d="M715.68 561.29V557.91H717.34H719H720.66H722.33V554.54H720.66V551.17V547.8V544.42H719V547.8H717.34V551.17H719V554.54H717.34H715.68V557.91H714.01H712.35V561.29H714.01H715.68Z" fill="#529351"/>
<path d="M802.12 554.54H800.46H798.8V557.91H800.46H802.12H803.78V554.54H802.12Z" fill="#529351"/>
<path d="M800.46 551.17V547.8H798.8V544.42V541.05H797.13V537.68H795.47H793.81H792.15V541.05H793.81H795.47V544.42H797.13V547.8V551.17V554.54H798.8V551.17H800.46Z" fill="#529351"/>
<path d="M723.99 544.42V541.05H722.33H720.66V544.42H722.33H723.99Z" fill="#529351"/>
<path d="M727.31 541.05V537.68H725.65H723.99V541.05H725.65H727.31Z" fill="#529351"/>
<path d="M790.48 534.3H788.82H787.16H785.5H783.83H782.17H780.51V530.93H778.85V527.56H777.18H775.52H773.86V530.93H775.52H777.18V534.3H778.85V537.68H780.51H782.17H783.83H785.5H787.16H788.82H790.48H792.15V534.3H790.48Z" fill="#529351"/>
<path d="M730.64 534.3H728.98V537.68H730.64H732.3H733.96V534.3H732.3H730.64Z" fill="#529351"/>
<path d="M758.9 527.56H757.24V530.93H758.9V527.56Z" fill="#529351"/>
<path d="M743.94 527.56H742.27H740.61V530.93H738.95V534.3H737.29V537.68V541.05H738.95H740.61V537.68V534.3H742.27V530.93H743.94H745.6H747.26V527.56H745.6H743.94Z" fill="#529351"/>
<path d="M752.25 527.56H753.91H755.57V524.18H753.91H752.25H750.59H748.92V527.56H750.59H752.25Z" fill="#529351"/>
<path d="M934.06 595.02H932.4V598.39H934.06V595.02Z" fill="#529351"/>
<path d="M939.04 591.64H937.38V595.01H939.04V591.64Z" fill="#529351"/>
<path d="M892.5 568.03H890.84V571.4H892.5V568.03Z" fill="#98C261"/>
<path d="M852.6 561.29H850.94V564.66H852.6V561.29Z" fill="#529351"/>
<path d="M945.69 557.91H944.03V561.28H945.69V557.91Z" fill="#529351"/>
<path d="M937.38 554.54H935.72V557.91H937.38V554.54Z" fill="#4D8861"/>
<path d="M862.57 554.54H860.91V557.91H862.57V554.54Z" fill="#98C261"/>
<path d="M857.59 551.17H855.93V554.54H857.59V551.17Z" fill="#529351"/>
<path d="M852.6 578.15H857.59V581.53H854.26V591.64H855.93V595.02H859.25V598.39H870.89V598.51H925.75V598.39H932.4V595.02H919.1V591.64H915.77V588.27H914.11V584.9H912.45V591.64H909.12V595.02H895.82V591.64H892.5V588.27H890.84V584.9H874.21V581.53H870.89V578.15H867.56V568.03H862.57V564.66H857.59V561.29H855.93V557.91H854.26V561.29H852.6V564.66H850.94V574.78H852.6V578.15Z" fill="#529351"/>
<path d="M899.15 584.9H897.49V588.27H899.15H900.81H902.47V584.9H900.81H899.15Z" fill="#529351"/>
<path d="M870.89 568.03V564.66H869.22H867.56V568.03H869.22H870.89Z" fill="#529351"/>
<path d="M912.45 564.66H914.11H915.77H917.43H919.1H920.76H922.42H924.08H925.75H927.41V561.29H925.75H924.08H922.42H920.76H919.1H917.43H915.77H914.11H912.45H910.78V564.66H912.45Z" fill="#529351"/>
<path d="M882.52 554.54H884.19H885.85H887.51H889.17H890.84H892.5H894.16H895.82H897.49H899.15V551.17H897.49H895.82H894.16H892.5H890.84H889.17H887.51H885.85H884.19H882.52H880.86V554.54H882.52Z" fill="#529351"/>
<path d="M929.07 578.15H927.41H925.75V581.53V584.9H927.41H929.07H930.73V581.53V578.15H929.07Z" fill="#98C261"/>
<path d="M875.87 578.15H874.21V581.53V584.9H875.87H877.54H879.2V581.53V578.15H877.54H875.87Z" fill="#98C261"/>
<path d="M892.5 564.66H890.84V568.03H892.5V571.41H894.16H895.82V568.03V564.66H894.16H892.5Z" fill="#98C261"/>
<path d="M910.78 544.42H909.12V547.8H910.78H912.45H914.11V544.42H912.45H910.78Z" fill="#98C261"/>
<path d="M860.91 544.42H859.25V547.79H860.91V544.42Z" fill="#529351"/>
<path d="M917.43 537.68H915.77V541.05H917.43V537.68Z" fill="#98C261"/>
<path d="M867.56 537.68H865.9V541.05H867.56V537.68Z" fill="#4F8762"/>
<path d="M874.21 534.3H872.55V537.67H874.21V534.3Z" fill="#529351"/>
<path d="M942.37 561.29V557.92H935.72V544.43H934.06V541.06H930.73V537.69H917.43V541.06H915.77V537.69H917.43V534.32H915.77V530.95H912.44V527.58H897.48V530.95H895.82V527.58H885.84V530.95H880.85V534.32H879.19V541.07H875.87V537.7H867.56V541.07H862.57V544.44H860.91V547.81H859.25V554.56H862.57V557.93H855.92V561.3H857.58V564.67H862.57V568.04H867.56V564.67H870.89V568.04H867.56V578.16H870.89V581.53H874.21V578.16H879.2V584.91H890.84V588.28H892.5V591.65H895.83V595.02H909.13V591.65H912.45V584.9H914.11V588.27H915.77V591.64H919.09V595.01H937.38V591.64H940.71V581.52H939.05V578.15H940.71V574.78H944.03V561.29H942.37ZM910.78 561.29H927.4V564.66H910.78V561.29ZM890.83 568.04V564.67H895.82V571.42H890.83V568.05V568.04ZM884.18 551.18H899.14V554.55H880.85V551.18H884.18ZM925.74 581.54V578.17H930.73V584.92H925.74V581.55V581.54ZM914.1 547.81H909.11V544.44H914.1V547.81ZM897.48 584.91H902.47V588.28H897.48V584.91Z" fill="#98C261"/>
<path d="M947.36 571.41V568.03V564.66V561.29H945.7H944.03V564.66V568.03V571.41H945.7V568.03V564.66V568.03V571.41H944.03V574.78H945.7H947.36V571.41Z" fill="#529351"/>
<path d="M910.78 524.19H909.12H907.46H905.8H904.14H902.47H900.81H899.15H897.49V527.56H899.15H900.81H902.47H904.14H905.8H907.46H909.12H910.78H912.45V524.19H910.78Z" fill="#529351"/>
<path d="M859.25 598.39V598.51H869.22V598.39H860.91H859.25V595.02H855.93V598.39H859.25Z" fill="#529351"/>
<path d="M929.08 598.39H925.75V598.51H929.08V598.39Z" fill="#529351"/>
<path d="M934.06 595.02V598.39H935.72H937.38V595.02H935.72H934.06Z" fill="#529351"/>
<path d="M854.26 591.64V588.27V584.9V581.53H855.93H857.59V578.15H855.93H854.26H852.6V581.53H850.94V584.9V588.27V591.64H852.6V595.02H854.26H855.93V591.64H854.26Z" fill="#529351"/>
<path d="M940.71 574.78V578.15H939.05V581.53H940.71V584.9V588.27V591.64H939.05V595.02H940.71H942.37V591.64H944.03V588.27V584.9V581.53H942.37V578.15H944.03V574.78H942.37H940.71Z" fill="#529351"/>
<path d="M850.94 574.78V571.41V568.03V564.66V561.29H849.28V564.66H847.61V568.03V571.41V574.78H849.28V578.15H850.94H852.6V574.78H850.94Z" fill="#529351"/>
<path d="M944.03 557.91H942.37V561.28H944.03V557.91Z" fill="#529351"/>
<path d="M854.26 561.29V557.91H855.93H857.59H859.25H860.91V554.54H859.25V551.17V547.8V544.42H857.59V547.8H855.93V551.17H857.59V554.54H855.93H854.26V557.91H852.6H850.94V561.29H852.6H854.26Z" fill="#529351"/>
<path d="M940.71 554.54H939.05H937.38V557.91H939.05H940.71H942.37V554.54H940.71Z" fill="#529351"/>
<path d="M939.05 551.17V547.8H937.38V544.42V541.05H935.72V537.68H934.06H932.4H930.73V541.05H932.4H934.06V544.42H935.72V547.8V551.17V554.54H937.38V551.17H939.05Z" fill="#529351"/>
<path d="M862.57 544.42V541.05H860.91H859.25V544.42H860.91H862.57Z" fill="#529351"/>
<path d="M865.9 541.05V537.68H864.24H862.57V541.05H864.24H865.9Z" fill="#529351"/>
<path d="M929.07 534.3H927.41H925.75H924.08H922.42H920.76H919.1V530.93H917.43V527.56H915.77H914.11H912.45V530.93H914.11H915.77V534.3H917.43V537.68H919.1H920.76H922.42H924.08H925.75H927.41H929.07H930.73V534.3H929.07Z" fill="#529351"/>
<path d="M869.22 534.3H867.56V537.68H869.22H870.89H872.55V534.3H870.89H869.22Z" fill="#529351"/>
<path d="M897.48 527.56H895.82V530.93H897.48V527.56Z" fill="#529351"/>
<path d="M882.52 527.56H880.86H879.2V530.93H877.54V534.3H875.87V537.68V541.05H877.54H879.2V537.68V534.3H880.86V530.93H882.52H884.19H885.85V527.56H884.19H882.52Z" fill="#529351"/>
<path d="M890.84 527.56H892.5H894.16V524.19H892.5H890.84H889.17H887.51V527.56H889.17H890.84Z" fill="#529351"/>
<path d="M1145.97 595.02H1144.31V598.39H1145.97V595.02Z" fill="#529351"/>
<path d="M1150.96 591.64H1149.3V595.01H1150.96V591.64Z" fill="#529351"/>
<path d="M1104.41 568.03H1102.75V571.4H1104.41V568.03Z" fill="#98C261"/>
<path d="M1064.51 561.29H1062.85V564.66H1064.51V561.29Z" fill="#529351"/>
<path d="M1157.61 557.91H1155.95V561.28H1157.61V557.91Z" fill="#529351"/>
<path d="M1149.3 554.54H1147.64V557.91H1149.3V554.54Z" fill="#4D8861"/>
<path d="M1074.49 554.54H1072.83V557.91H1074.49V554.54Z" fill="#98C261"/>
<path d="M1069.5 551.17H1067.84V554.54H1069.5V551.17Z" fill="#529351"/>
<path d="M1064.52 578.15H1069.5V581.53H1066.18V591.64H1067.84V595.02H1071.17V598.39H1082.8V598.51H1137.66V598.39H1144.31V595.02H1131.01V591.64H1127.69V588.27H1126.03V584.9H1124.36V591.64H1121.04V595.02H1107.74V591.64H1104.41V588.27H1102.75V584.9H1086.13V581.53H1082.8V578.15H1079.48V568.03H1074.49V564.66H1069.5V561.29H1067.84V557.91H1066.18V561.29H1064.52V564.66H1062.85V574.78H1064.52V578.15Z" fill="#529351"/>
<path d="M1111.07 584.9H1109.4V588.27H1111.07H1112.73H1114.39V584.9H1112.73H1111.07Z" fill="#529351"/>
<path d="M1082.8 568.03V564.66H1081.14H1079.48V568.03H1081.14H1082.8Z" fill="#529351"/>
<path d="M1124.36 564.66H1126.03H1127.69H1129.35H1131.01H1132.68H1134.34H1136H1137.66H1139.33V561.29H1137.66H1136H1134.34H1132.68H1131.01H1129.35H1127.69H1126.03H1124.36H1122.7V564.66H1124.36Z" fill="#529351"/>
<path d="M1094.44 554.54H1096.1H1097.76H1099.43H1101.09H1102.75H1104.41H1106.08H1107.74H1109.4H1111.07V551.17H1109.4H1107.74H1106.08H1104.41H1102.75H1101.09H1099.43H1097.76H1096.1H1094.44H1092.78V554.54H1094.44Z" fill="#529351"/>
<path d="M1140.99 578.15H1139.33H1137.66V581.53V584.9H1139.33H1140.99H1142.65V581.53V578.15H1140.99Z" fill="#98C261"/>
<path d="M1087.79 578.15H1086.13V581.53V584.9H1087.79H1089.45H1091.12V581.53V578.15H1089.45H1087.79Z" fill="#98C261"/>
<path d="M1104.41 564.66H1102.75V568.03H1104.41V571.41H1106.08H1107.74V568.03V564.66H1106.08H1104.41Z" fill="#98C261"/>
<path d="M1122.7 544.42H1121.04V547.8H1122.7H1124.36H1126.03V544.42H1124.36H1122.7Z" fill="#98C261"/>
<path d="M1072.83 544.42H1071.17V547.79H1072.83V544.42Z" fill="#529351"/>
<path d="M1129.35 537.68H1127.69V541.05H1129.35V537.68Z" fill="#98C261"/>
<path d="M1079.48 537.68H1077.82V541.05H1079.48V537.68Z" fill="#4F8762"/>
<path d="M1086.13 534.3H1084.47V537.67H1086.13V534.3Z" fill="#529351"/>
<path d="M1154.29 561.29V557.92H1147.64V544.43H1145.98V541.06H1142.66V537.69H1129.36V541.06H1127.7V537.69H1129.36V534.32H1127.7V530.95H1124.38V527.58H1109.42V530.95H1107.76V527.58H1097.79V530.95H1092.8V534.32H1091.14V541.07H1087.82V537.7H1079.51V541.07H1074.52V544.44H1072.86V547.81H1071.2V554.56H1074.52V557.93H1067.87V561.3H1069.53V564.67H1074.52V568.04H1079.51V564.67H1082.83V568.04H1079.51V578.16H1082.83V581.53H1086.16V578.16H1091.15V584.91H1102.79V588.28H1104.45V591.65H1107.77V595.02H1121.07V591.65H1124.39V584.9H1126.05V588.27H1127.71V591.64H1131.03V595.01H1149.32V591.64H1152.64V581.52H1150.98V578.15H1152.64V574.78H1155.96V561.29H1154.3H1154.29ZM1122.71 561.29H1139.33V564.66H1122.71V561.29ZM1102.76 568.04V564.67H1107.75V571.42H1102.76V568.05V568.04ZM1096.11 551.18H1111.07V554.55H1092.78V551.18H1096.1H1096.11ZM1137.67 581.54V578.17H1142.66V584.92H1137.67V581.55V581.54ZM1126.03 547.81H1121.04V544.44H1126.03V547.81ZM1109.4 584.91H1114.39V588.28H1109.4V584.91Z" fill="#98C261"/>
<path d="M1159.27 571.41V568.03V564.66V561.29H1157.61H1155.95V564.66V568.03V571.41H1157.61V568.03V564.66V568.03V571.41H1155.95V574.78H1157.61H1159.27V571.41Z" fill="#529351"/>
<path d="M1122.7 524.18H1121.04H1119.38H1117.71H1116.05H1114.39H1112.73H1111.07H1109.4V527.56H1111.07H1112.73H1114.39H1116.05H1117.71H1119.38H1121.04H1122.7H1124.36V524.18H1122.7Z" fill="#529351"/>
<path d="M1071.17 598.39V598.51H1081.14V598.39H1072.83H1071.17V595.02H1067.84V598.39H1071.17Z" fill="#529351"/>
<path d="M1140.98 598.39H1137.66V598.51H1140.98V598.39Z" fill="#529351"/>
<path d="M1145.97 595.02V598.39H1147.64H1149.3V595.02H1147.64H1145.97Z" fill="#529351"/>
<path d="M1066.18 591.64V588.27V584.9V581.53H1067.84H1069.5V578.15H1067.84H1066.18H1064.52V581.53H1062.85V584.9V588.27V591.64H1064.52V595.02H1066.18H1067.84V591.64H1066.18Z" fill="#529351"/>
<path d="M1152.62 574.78V578.15H1150.96V581.53H1152.62V584.9V588.27V591.64H1150.96V595.02H1152.62H1154.29V591.64H1155.95V588.27V584.9V581.53H1154.29V578.15H1155.95V574.78H1154.29H1152.62Z" fill="#529351"/>
<path d="M1062.85 574.78V571.41V568.03V564.66V561.29H1061.19V564.66H1059.53V568.03V571.41V574.78H1061.19V578.15H1062.85H1064.52V574.78H1062.85Z" fill="#529351"/>
<path d="M1155.95 557.91H1154.29V561.28H1155.95V557.91Z" fill="#529351"/>
<path d="M1066.18 561.29V557.91H1067.84H1069.5H1071.17H1072.83V554.54H1071.17V551.17V547.8V544.42H1069.5V547.8H1067.84V551.17H1069.5V554.54H1067.84H1066.18V557.91H1064.52H1062.85V561.29H1064.52H1066.18Z" fill="#529351"/>
<path d="M1152.62 554.54H1150.96H1149.3V557.91H1150.96H1152.62H1154.29V554.54H1152.62Z" fill="#529351"/>
<path d="M1150.96 551.17V547.8H1149.3V544.42V541.05H1147.64V537.68H1145.97H1144.31H1142.65V541.05H1144.31H1145.97V544.42H1147.64V547.8V551.17V554.54H1149.3V551.17H1150.96Z" fill="#529351"/>
<path d="M1074.49 544.42V541.05H1072.83H1071.17V544.42H1072.83H1074.49Z" fill="#529351"/>
<path d="M1077.82 541.05V537.68H1076.15H1074.49V541.05H1076.15H1077.82Z" fill="#529351"/>
<path d="M1140.99 534.3H1139.33H1137.66H1136H1134.34H1132.68H1131.01V530.93H1129.35V527.56H1127.69H1126.03H1124.36V530.93H1126.03H1127.69V534.3H1129.35V537.68H1131.01H1132.68H1134.34H1136H1137.66H1139.33H1140.99H1142.65V534.3H1140.99Z" fill="#529351"/>
<path d="M1081.14 534.3H1079.48V537.68H1081.14H1082.8H1084.47V534.3H1082.8H1081.14Z" fill="#529351"/>
<path d="M1109.4 527.56H1107.74V530.93H1109.4V527.56Z" fill="#529351"/>
<path d="M1094.44 527.56H1092.78H1091.12V530.93H1089.45V534.3H1087.79V537.68V541.05H1089.45H1091.12V537.68V534.3H1092.78V530.93H1094.44H1096.1H1097.76V527.56H1096.1H1094.44Z" fill="#529351"/>
<path d="M1102.75 527.56H1104.41H1106.08V524.18H1104.41H1102.75H1101.09H1099.43V527.56H1101.09H1102.75Z" fill="#529351"/>
<path d="M1307 595.02H1305.34V598.39H1307V595.02Z" fill="#529351"/>
<path d="M1311.99 591.64H1310.33V595.01H1311.99V591.64Z" fill="#529351"/>
<path d="M1265.44 568.03H1263.78V571.4H1265.44V568.03Z" fill="#98C261"/>
<path d="M1225.54 561.29H1223.88V564.66H1225.54V561.29Z" fill="#529351"/>
<path d="M1318.64 557.91H1316.98V561.28H1318.64V557.91Z" fill="#529351"/>
<path d="M1310.33 554.54H1308.67V557.91H1310.33V554.54Z" fill="#4D8861"/>
<path d="M1235.52 554.54H1233.86V557.91H1235.52V554.54Z" fill="#98C261"/>
<path d="M1230.53 551.17H1228.87V554.54H1230.53V551.17Z" fill="#529351"/>
<path d="M1225.55 578.15H1230.53V581.53H1227.21V591.64H1228.87V595.02H1232.2V598.39H1243.83V598.51H1298.69V598.39H1305.34V595.02H1292.04V591.64H1288.72V588.27H1287.06V584.9H1285.39V591.64H1282.07V595.02H1268.77V591.64H1265.45V588.27H1263.78V584.9H1247.16V581.53H1243.83V578.15H1240.51V568.03H1235.52V564.66H1230.53V561.29H1228.87V557.91H1227.21V561.29H1225.55V564.66H1223.88V574.78H1225.55V578.15Z" fill="#529351"/>
<path d="M1272.09 584.9H1270.43V588.27H1272.09H1273.76H1275.42V584.9H1273.76H1272.09Z" fill="#529351"/>
<path d="M1243.83 568.03V564.66H1242.17H1240.51V568.03H1242.17H1243.83Z" fill="#529351"/>
<path d="M1285.39 564.66H1287.06H1288.72H1290.38H1292.04H1293.71H1295.37H1297.03H1298.69H1300.35V561.29H1298.69H1297.03H1295.37H1293.71H1292.04H1290.38H1288.72H1287.06H1285.39H1283.73V564.66H1285.39Z" fill="#529351"/>
<path d="M1255.47 554.54H1257.13H1258.8H1260.46H1262.12H1263.78H1265.45H1267.11H1268.77H1270.43H1272.09V551.17H1270.43H1268.77H1267.11H1265.45H1263.78H1262.12H1260.46H1258.8H1257.13H1255.47H1253.81V554.54H1255.47Z" fill="#529351"/>
<path d="M1302.02 578.15H1300.35H1298.69V581.53V584.9H1300.35H1302.02H1303.68V581.53V578.15H1302.02Z" fill="#98C261"/>
<path d="M1248.82 578.15H1247.16V581.53V584.9H1248.82H1250.48H1252.15V581.53V578.15H1250.48H1248.82Z" fill="#98C261"/>
<path d="M1265.45 564.66H1263.78V568.03H1265.45V571.41H1267.11H1268.77V568.03V564.66H1267.11H1265.45Z" fill="#98C261"/>
<path d="M1283.73 544.42H1282.07V547.8H1283.73H1285.39H1287.06V544.42H1285.39H1283.73Z" fill="#98C261"/>
<path d="M1233.86 544.42H1232.2V547.79H1233.86V544.42Z" fill="#529351"/>
<path d="M1290.38 537.68H1288.72V541.05H1290.38V537.68Z" fill="#98C261"/>
<path d="M1240.51 537.68H1238.85V541.05H1240.51V537.68Z" fill="#4F8762"/>
<path d="M1247.16 534.3H1245.5V537.67H1247.16V534.3Z" fill="#529351"/>
<path d="M1315.32 561.29V557.92H1308.67V544.43H1307.01V541.06H1303.69V537.69H1290.39V541.06H1288.73V537.69H1290.39V534.32H1288.73V530.95H1285.41V527.58H1270.45V530.95H1268.79V527.58H1258.82V530.95H1253.83V534.32H1252.17V541.07H1248.85V537.7H1240.54V541.07H1235.55V544.44H1233.89V547.81H1232.23V554.56H1235.55V557.93H1228.9V561.3H1230.56V564.67H1235.55V568.04H1240.54V564.67H1243.86V568.04H1240.54V578.16H1243.86V581.53H1247.19V578.16H1252.18V584.91H1263.82V588.28H1265.48V591.65H1268.8V595.02H1282.1V591.65H1285.43V584.9H1287.09V588.27H1288.75V591.64H1292.08V595.01H1310.37V591.64H1313.69V581.52H1312.03V578.15H1313.69V574.78H1317.01V561.29H1315.35H1315.32ZM1283.74 561.29H1300.36V564.66H1283.74V561.29ZM1263.79 568.04V564.67H1268.78V571.42H1263.79V568.05V568.04ZM1257.14 551.18H1272.1V554.55H1253.81V551.18H1257.13H1257.14ZM1298.7 581.54V578.17H1303.69V584.92H1298.7V581.55V581.54ZM1287.06 547.81H1282.07V544.44H1287.06V547.81ZM1270.44 584.91H1275.43V588.28H1270.44V584.91Z" fill="#98C261"/>
<path d="M1320.3 571.41V568.03V564.66V561.29H1318.64H1316.98V564.66V568.03V571.41H1318.64V568.03V564.66V568.03V571.41H1316.98V574.78H1318.64H1320.3V571.41Z" fill="#529351"/>
<path d="M1283.73 524.19H1282.07H1280.41H1278.74H1277.08H1275.42H1273.76H1272.09H1270.43V527.56H1272.09H1273.76H1275.42H1277.08H1278.74H1280.41H1282.07H1283.73H1285.39V524.19H1283.73Z" fill="#529351"/>
<path d="M1232.2 598.39V598.51H1242.17V598.39H1233.86H1232.2V595.02H1228.87V598.39H1232.2Z" fill="#529351"/>
<path d="M1302.01 598.39H1298.69V598.51H1302.01V598.39Z" fill="#529351"/>
<path d="M1307 595.02V598.39H1308.67H1310.33V595.02H1308.67H1307Z" fill="#529351"/>
<path d="M1227.21 591.64V588.27V584.9V581.53H1228.87H1230.53V578.15H1228.87H1227.21H1225.55V581.53H1223.88V584.9V588.27V591.64H1225.55V595.02H1227.21H1228.87V591.64H1227.21Z" fill="#529351"/>
<path d="M1313.65 574.78V578.15H1311.99V581.53H1313.65V584.9V588.27V591.64H1311.99V595.02H1313.65H1315.32V591.64H1316.98V588.27V584.9V581.53H1315.32V578.15H1316.98V574.78H1315.32H1313.65Z" fill="#529351"/>
<path d="M1223.88 574.78V571.41V568.03V564.66V561.29H1222.22V564.66H1220.56V568.03V571.41V574.78H1222.22V578.15H1223.88H1225.55V574.78H1223.88Z" fill="#529351"/>
<path d="M1316.98 557.91H1315.32V561.28H1316.98V557.91Z" fill="#529351"/>
<path d="M1227.21 561.29V557.91H1228.87H1230.53H1232.2H1233.86V554.54H1232.2V551.17V547.8V544.42H1230.53V547.8H1228.87V551.17H1230.53V554.54H1228.87H1227.21V557.91H1225.55H1223.88V561.29H1225.55H1227.21Z" fill="#529351"/>
<path d="M1313.65 554.54H1311.99H1310.33V557.91H1311.99H1313.65H1315.32V554.54H1313.65Z" fill="#529351"/>
<path d="M1311.99 551.17V547.8H1310.33V544.42V541.05H1308.67V537.68H1307H1305.34H1303.68V541.05H1305.34H1307V544.42H1308.67V547.8V551.17V554.54H1310.33V551.17H1311.99Z" fill="#529351"/>
<path d="M1235.52 544.42V541.05H1233.86H1232.2V544.42H1233.86H1235.52Z" fill="#529351"/>
<path d="M1238.85 541.05V537.68H1237.18H1235.52V541.05H1237.18H1238.85Z" fill="#529351"/>
<path d="M1302.02 534.3H1300.35H1298.69H1297.03H1295.37H1293.71H1292.04V530.93H1290.38V527.56H1288.72H1287.06H1285.39V530.93H1287.06H1288.72V534.3H1290.38V537.68H1292.04H1293.71H1295.37H1297.03H1298.69H1300.35H1302.02H1303.68V534.3H1302.02Z" fill="#529351"/>
<path d="M1242.17 534.3H1240.51V537.68H1242.17H1243.83H1245.5V534.3H1243.83H1242.17Z" fill="#529351"/>
<path d="M1270.43 527.56H1268.77V530.93H1270.43V527.56Z" fill="#529351"/>
<path d="M1255.47 527.56H1253.81H1252.15V530.93H1250.48V534.3H1248.82V537.68V541.05H1250.48H1252.15V537.68V534.3H1253.81V530.93H1255.47H1257.13H1258.79V527.56H1257.13H1255.47Z" fill="#529351"/>
<path d="M1263.78 527.56H1265.45H1267.11V524.19H1265.45H1263.78H1262.12H1260.46V527.56H1262.12H1263.78Z" fill="#529351"/>
</svg>
