<svg width="133" height="54" viewBox="0 0 133 54" fill="none" xmlns="http://www.w3.org/2000/svg">
<path d="M65.9 1.82007H1.26001V52.4001H65.9V1.82007Z" fill="#96582F"/>
<path d="M65.9 22.76H60.14V6.92004H36.21V13.62H16.03V24.59H1.26001V35.55H19.02V52.39H28.74V30.07H42.94V41.03H53.41V33.72H65.9V22.76Z" fill="#A56033"/>
<path d="M63.31 29.51H53.41V37.43H63.31V29.51Z" fill="#7F4C2A"/>
<path d="M45.87 13.1001H35.97V21.0201H45.87V13.1001Z" fill="#7F4C2A"/>
<path d="M19.95 24.3701H10.05V32.2901H19.95V24.3701Z" fill="#7F4C2A"/>
<path d="M1.26001 18.5801H65.9" stroke="#4A2A14" stroke-width="2" stroke-miterlimit="10"/>
<path d="M1.26001 38.6301H65.9" stroke="#4A2A14" stroke-width="2" stroke-miterlimit="10"/>
<path d="M34.68 1.82007V18.58" stroke="#4A2A14" stroke-width="2" stroke-miterlimit="10"/>
<path d="M34.68 37.8101V52.3901" stroke="#4A2A14" stroke-width="2" stroke-miterlimit="10"/>
<path d="M13.91 18.8601V37.8101" stroke="#4A2A14" stroke-width="2" stroke-miterlimit="10"/>
<path d="M54.06 18.8601V37.8101" stroke="#4A2A14" stroke-width="2" stroke-miterlimit="10"/>
<path d="M65.9 1.82007H1.26001V52.4001H65.9V1.82007Z" stroke="#4A2A14" stroke-width="2" stroke-miterlimit="10"/>
<path d="M131.94 1.82007H67.31V52.4001H131.94V1.82007Z" fill="#96582F"/>
<path d="M131.95 22.76H126.18V6.92004H102.26V13.62H82.08V24.59H67.31V35.55H85.07V52.39H94.79V30.07H108.99V41.03H119.46V33.72H131.95V22.76Z" fill="#A56033"/>
<path d="M129.36 29.51H119.46V37.43H129.36V29.51Z" fill="#7F4C2A"/>
<path d="M111.91 13.1001H102.01V21.0201H111.91V13.1001Z" fill="#7F4C2A"/>
<path d="M86 24.3701H76.1V32.2901H86V24.3701Z" fill="#7F4C2A"/>
<path d="M67.31 18.5801H131.95" stroke="#4A2A14" stroke-width="2" stroke-miterlimit="10"/>
<path d="M67.31 38.6301H131.95" stroke="#4A2A14" stroke-width="2" stroke-miterlimit="10"/>
<path d="M100.72 1.82007V18.58" stroke="#4A2A14" stroke-width="2" stroke-miterlimit="10"/>
<path d="M100.72 37.8101V52.3901" stroke="#4A2A14" stroke-width="2" stroke-miterlimit="10"/>
<path d="M79.96 18.8601V37.8101" stroke="#4A2A14" stroke-width="2" stroke-miterlimit="10"/>
<path d="M120.1 18.8601V37.8101" stroke="#4A2A14" stroke-width="2" stroke-miterlimit="10"/>
<path d="M131.94 1.82007H67.31V52.4001H131.94V1.82007Z" stroke="#4A2A14" stroke-width="2" stroke-miterlimit="10"/>
</svg>
