<svg width="511" height="312" viewBox="0 0 511 312" fill="none" xmlns="http://www.w3.org/2000/svg">
<path d="M509.94 52.8201H445.31V103.4H509.94V52.8201Z" fill="#96582F"/>
<path d="M509.95 73.76H504.18V57.92H480.26V64.62H460.08V75.59H445.31V86.55H463.07V103.39H472.79V81.07H486.99V92.03H497.46V84.72H509.95V73.76Z" fill="#A56033"/>
<path d="M507.36 80.51H497.46V88.43H507.36V80.51Z" fill="#7F4C2A"/>
<path d="M489.91 64.1001H480.01V72.0201H489.91V64.1001Z" fill="#7F4C2A"/>
<path d="M464 75.3701H454.1V83.2901H464V75.3701Z" fill="#7F4C2A"/>
<path d="M445.31 69.5801H509.95" stroke="#4A2A14" stroke-width="2" stroke-miterlimit="10"/>
<path d="M445.31 89.6301H509.95" stroke="#4A2A14" stroke-width="2" stroke-miterlimit="10"/>
<path d="M478.72 52.8201V69.58" stroke="#4A2A14" stroke-width="2" stroke-miterlimit="10"/>
<path d="M478.72 88.8101V103.39" stroke="#4A2A14" stroke-width="2" stroke-miterlimit="10"/>
<path d="M457.96 69.8601V88.8101" stroke="#4A2A14" stroke-width="2" stroke-miterlimit="10"/>
<path d="M498.1 69.8601V88.8101" stroke="#4A2A14" stroke-width="2" stroke-miterlimit="10"/>
<path d="M509.94 52.8201H445.31V103.4H509.94V52.8201Z" stroke="#4A2A14" stroke-width="2" stroke-miterlimit="10"/>
<path d="M445.94 52.8201H381.31V103.4H445.94V52.8201Z" fill="#96582F"/>
<path d="M445.95 73.76H440.18V57.92H416.26V64.62H396.08V75.59H381.31V86.55H399.07V103.39H408.79V81.07H422.99V92.03H433.46V84.72H445.95V73.76Z" fill="#A56033"/>
<path d="M443.36 80.51H433.46V88.43H443.36V80.51Z" fill="#7F4C2A"/>
<path d="M425.91 64.1001H416.01V72.0201H425.91V64.1001Z" fill="#7F4C2A"/>
<path d="M400 75.3701H390.1V83.2901H400V75.3701Z" fill="#7F4C2A"/>
<path d="M381.31 69.5801H445.95" stroke="#4A2A14" stroke-width="2" stroke-miterlimit="10"/>
<path d="M381.31 89.6301H445.95" stroke="#4A2A14" stroke-width="2" stroke-miterlimit="10"/>
<path d="M414.72 52.8201V69.58" stroke="#4A2A14" stroke-width="2" stroke-miterlimit="10"/>
<path d="M414.72 88.8101V103.39" stroke="#4A2A14" stroke-width="2" stroke-miterlimit="10"/>
<path d="M393.96 69.8601V88.8101" stroke="#4A2A14" stroke-width="2" stroke-miterlimit="10"/>
<path d="M434.1 69.8601V88.8101" stroke="#4A2A14" stroke-width="2" stroke-miterlimit="10"/>
<path d="M445.94 52.8201H381.31V103.4H445.94V52.8201Z" stroke="#4A2A14" stroke-width="2" stroke-miterlimit="10"/>
<path d="M319.94 52.8201H255.31V103.4H319.94V52.8201Z" fill="#96582F"/>
<path d="M319.95 73.76H314.18V57.92H290.26V64.62H270.08V75.59H255.31V86.55H273.07V103.39H282.79V81.07H296.99V92.03H307.46V84.72H319.95V73.76Z" fill="#A56033"/>
<path d="M317.36 80.51H307.46V88.43H317.36V80.51Z" fill="#7F4C2A"/>
<path d="M299.91 64.1001H290.01V72.0201H299.91V64.1001Z" fill="#7F4C2A"/>
<path d="M274 75.3701H264.1V83.2901H274V75.3701Z" fill="#7F4C2A"/>
<path d="M255.31 69.5801H319.95" stroke="#4A2A14" stroke-width="2" stroke-miterlimit="10"/>
<path d="M255.31 89.6301H319.95" stroke="#4A2A14" stroke-width="2" stroke-miterlimit="10"/>
<path d="M288.72 52.8201V69.58" stroke="#4A2A14" stroke-width="2" stroke-miterlimit="10"/>
<path d="M288.72 88.8101V103.39" stroke="#4A2A14" stroke-width="2" stroke-miterlimit="10"/>
<path d="M267.96 69.8601V88.8101" stroke="#4A2A14" stroke-width="2" stroke-miterlimit="10"/>
<path d="M308.1 69.8601V88.8101" stroke="#4A2A14" stroke-width="2" stroke-miterlimit="10"/>
<path d="M319.94 52.8201H255.31V103.4H319.94V52.8201Z" stroke="#4A2A14" stroke-width="2" stroke-miterlimit="10"/>
<path d="M382.94 52.8201H318.31V103.4H382.94V52.8201Z" fill="#96582F"/>
<path d="M382.95 73.76H377.18V57.92H353.26V64.62H333.08V75.59H318.31V86.55H336.07V103.39H345.79V81.07H359.99V92.03H370.46V84.72H382.95V73.76Z" fill="#A56033"/>
<path d="M380.36 80.51H370.46V88.43H380.36V80.51Z" fill="#7F4C2A"/>
<path d="M362.91 64.1001H353.01V72.0201H362.91V64.1001Z" fill="#7F4C2A"/>
<path d="M337 75.3701H327.1V83.2901H337V75.3701Z" fill="#7F4C2A"/>
<path d="M318.31 69.5801H382.95" stroke="#4A2A14" stroke-width="2" stroke-miterlimit="10"/>
<path d="M318.31 89.6301H382.95" stroke="#4A2A14" stroke-width="2" stroke-miterlimit="10"/>
<path d="M351.72 52.8201V69.58" stroke="#4A2A14" stroke-width="2" stroke-miterlimit="10"/>
<path d="M351.72 88.8101V103.39" stroke="#4A2A14" stroke-width="2" stroke-miterlimit="10"/>
<path d="M330.96 69.8601V88.8101" stroke="#4A2A14" stroke-width="2" stroke-miterlimit="10"/>
<path d="M371.1 69.8601V88.8101" stroke="#4A2A14" stroke-width="2" stroke-miterlimit="10"/>
<path d="M382.94 52.8201H318.31V103.4H382.94V52.8201Z" stroke="#4A2A14" stroke-width="2" stroke-miterlimit="10"/>
<path d="M509.94 2.82007H445.31V53.4001H509.94V2.82007Z" fill="#96582F"/>
<path d="M509.95 23.76H504.18V7.92004H480.26V14.62H460.08V25.59H445.31V36.55H463.07V53.39H472.79V31.07H486.99V42.03H497.46V34.72H509.95V23.76Z" fill="#A56033"/>
<path d="M507.359 30.51H497.459V38.43H507.359V30.51Z" fill="#7F4C2A"/>
<path d="M489.91 14.1001H480.01V22.0201H489.91V14.1001Z" fill="#7F4C2A"/>
<path d="M464 25.3701H454.1V33.2901H464V25.3701Z" fill="#7F4C2A"/>
<path d="M445.31 19.5801H509.95" stroke="#4A2A14" stroke-width="2" stroke-miterlimit="10"/>
<path d="M445.31 39.6301H509.95" stroke="#4A2A14" stroke-width="2" stroke-miterlimit="10"/>
<path d="M478.72 2.82007V19.58" stroke="#4A2A14" stroke-width="2" stroke-miterlimit="10"/>
<path d="M478.72 38.8101V53.3901" stroke="#4A2A14" stroke-width="2" stroke-miterlimit="10"/>
<path d="M457.959 19.8601V38.8101" stroke="#4A2A14" stroke-width="2" stroke-miterlimit="10"/>
<path d="M498.1 19.8601V38.8101" stroke="#4A2A14" stroke-width="2" stroke-miterlimit="10"/>
<path d="M509.94 2.82007H445.31V53.4001H509.94V2.82007Z" stroke="#4A2A14" stroke-width="2" stroke-miterlimit="10"/>
<path d="M445.94 2.82007H381.31V53.4001H445.94V2.82007Z" fill="#96582F"/>
<path d="M445.95 23.76H440.18V7.92004H416.26V14.62H396.08V25.59H381.31V36.55H399.07V53.39H408.79V31.07H422.99V42.03H433.46V34.72H445.95V23.76Z" fill="#A56033"/>
<path d="M443.359 30.51H433.459V38.43H443.359V30.51Z" fill="#7F4C2A"/>
<path d="M425.91 14.1001H416.01V22.0201H425.91V14.1001Z" fill="#7F4C2A"/>
<path d="M400 25.3701H390.1V33.2901H400V25.3701Z" fill="#7F4C2A"/>
<path d="M381.31 19.5801H445.95" stroke="#4A2A14" stroke-width="2" stroke-miterlimit="10"/>
<path d="M381.31 39.6301H445.95" stroke="#4A2A14" stroke-width="2" stroke-miterlimit="10"/>
<path d="M414.72 2.82007V19.58" stroke="#4A2A14" stroke-width="2" stroke-miterlimit="10"/>
<path d="M414.72 38.8101V53.3901" stroke="#4A2A14" stroke-width="2" stroke-miterlimit="10"/>
<path d="M393.959 19.8601V38.8101" stroke="#4A2A14" stroke-width="2" stroke-miterlimit="10"/>
<path d="M434.1 19.8601V38.8101" stroke="#4A2A14" stroke-width="2" stroke-miterlimit="10"/>
<path d="M445.94 2.82007H381.31V53.4001H445.94V2.82007Z" stroke="#4A2A14" stroke-width="2" stroke-miterlimit="10"/>
<path d="M383.94 1.82007H319.31V52.4001H383.94V1.82007Z" fill="#96582F"/>
<path d="M383.95 22.76H378.18V6.92004H354.26V13.62H334.08V24.59H319.31V35.55H337.07V52.39H346.79V30.07H360.99V41.03H371.46V33.72H383.95V22.76Z" fill="#A56033"/>
<path d="M381.36 29.51H371.46V37.43H381.36V29.51Z" fill="#7F4C2A"/>
<path d="M363.91 13.1001H354.01V21.0201H363.91V13.1001Z" fill="#7F4C2A"/>
<path d="M338 24.3701H328.1V32.2901H338V24.3701Z" fill="#7F4C2A"/>
<path d="M319.31 18.5801H383.95" stroke="#4A2A14" stroke-width="2" stroke-miterlimit="10"/>
<path d="M319.31 38.6301H383.95" stroke="#4A2A14" stroke-width="2" stroke-miterlimit="10"/>
<path d="M352.72 1.82007V18.58" stroke="#4A2A14" stroke-width="2" stroke-miterlimit="10"/>
<path d="M352.72 37.8101V52.3901" stroke="#4A2A14" stroke-width="2" stroke-miterlimit="10"/>
<path d="M331.96 18.8601V37.8101" stroke="#4A2A14" stroke-width="2" stroke-miterlimit="10"/>
<path d="M372.1 18.8601V37.8101" stroke="#4A2A14" stroke-width="2" stroke-miterlimit="10"/>
<path d="M383.94 1.82007H319.31V52.4001H383.94V1.82007Z" stroke="#4A2A14" stroke-width="2" stroke-miterlimit="10"/>
<path d="M509.94 104.82H445.31V155.4H509.94V104.82Z" fill="#96582F"/>
<path d="M509.95 125.76H504.18V109.92H480.26V116.62H460.08V127.59H445.31V138.55H463.07V155.39H472.79V133.07H486.99V144.03H497.46V136.72H509.95V125.76Z" fill="#A56033"/>
<path d="M507.36 132.51H497.46V140.43H507.36V132.51Z" fill="#7F4C2A"/>
<path d="M489.91 116.1H480.01V124.02H489.91V116.1Z" fill="#7F4C2A"/>
<path d="M464 127.37H454.1V135.29H464V127.37Z" fill="#7F4C2A"/>
<path d="M445.31 121.58H509.95" stroke="#4A2A14" stroke-width="2" stroke-miterlimit="10"/>
<path d="M445.31 141.63H509.95" stroke="#4A2A14" stroke-width="2" stroke-miterlimit="10"/>
<path d="M478.72 104.82V121.58" stroke="#4A2A14" stroke-width="2" stroke-miterlimit="10"/>
<path d="M478.72 140.81V155.39" stroke="#4A2A14" stroke-width="2" stroke-miterlimit="10"/>
<path d="M457.96 121.86V140.81" stroke="#4A2A14" stroke-width="2" stroke-miterlimit="10"/>
<path d="M498.1 121.86V140.81" stroke="#4A2A14" stroke-width="2" stroke-miterlimit="10"/>
<path d="M509.94 104.82H445.31V155.4H509.94V104.82Z" stroke="#4A2A14" stroke-width="2" stroke-miterlimit="10"/>
<path d="M445.94 104.82H381.31V155.4H445.94V104.82Z" fill="#96582F"/>
<path d="M445.95 125.76H440.18V109.92H416.26V116.62H396.08V127.59H381.31V138.55H399.07V155.39H408.79V133.07H422.99V144.03H433.46V136.72H445.95V125.76Z" fill="#A56033"/>
<path d="M443.36 132.51H433.46V140.43H443.36V132.51Z" fill="#7F4C2A"/>
<path d="M425.91 116.1H416.01V124.02H425.91V116.1Z" fill="#7F4C2A"/>
<path d="M400 127.37H390.1V135.29H400V127.37Z" fill="#7F4C2A"/>
<path d="M381.31 121.58H445.95" stroke="#4A2A14" stroke-width="2" stroke-miterlimit="10"/>
<path d="M381.31 141.63H445.95" stroke="#4A2A14" stroke-width="2" stroke-miterlimit="10"/>
<path d="M414.72 104.82V121.58" stroke="#4A2A14" stroke-width="2" stroke-miterlimit="10"/>
<path d="M414.72 140.81V155.39" stroke="#4A2A14" stroke-width="2" stroke-miterlimit="10"/>
<path d="M393.96 121.86V140.81" stroke="#4A2A14" stroke-width="2" stroke-miterlimit="10"/>
<path d="M434.1 121.86V140.81" stroke="#4A2A14" stroke-width="2" stroke-miterlimit="10"/>
<path d="M445.94 104.82H381.31V155.4H445.94V104.82Z" stroke="#4A2A14" stroke-width="2" stroke-miterlimit="10"/>
<path d="M319.94 103.82H255.31V154.4H319.94V103.82Z" fill="#96582F"/>
<path d="M319.95 124.76H314.18V108.92H290.26V115.62H270.08V126.59H255.31V137.55H273.07V154.39H282.79V132.07H296.99V143.03H307.46V135.72H319.95V124.76Z" fill="#A56033"/>
<path d="M317.36 131.51H307.46V139.43H317.36V131.51Z" fill="#7F4C2A"/>
<path d="M299.91 115.1H290.01V123.02H299.91V115.1Z" fill="#7F4C2A"/>
<path d="M274 126.37H264.1V134.29H274V126.37Z" fill="#7F4C2A"/>
<path d="M255.31 120.58H319.95" stroke="#4A2A14" stroke-width="2" stroke-miterlimit="10"/>
<path d="M255.31 140.63H319.95" stroke="#4A2A14" stroke-width="2" stroke-miterlimit="10"/>
<path d="M288.72 103.82V120.58" stroke="#4A2A14" stroke-width="2" stroke-miterlimit="10"/>
<path d="M288.72 139.81V154.39" stroke="#4A2A14" stroke-width="2" stroke-miterlimit="10"/>
<path d="M267.96 120.86V139.81" stroke="#4A2A14" stroke-width="2" stroke-miterlimit="10"/>
<path d="M308.1 120.86V139.81" stroke="#4A2A14" stroke-width="2" stroke-miterlimit="10"/>
<path d="M319.94 103.82H255.31V154.4H319.94V103.82Z" stroke="#4A2A14" stroke-width="2" stroke-miterlimit="10"/>
<path d="M257.94 103.82H193.31V154.4H257.94V103.82Z" fill="#96582F"/>
<path d="M257.95 124.76H252.18V108.92H228.26V115.62H208.08V126.59H193.31V137.55H211.07V154.39H220.79V132.07H234.99V143.03H245.46V135.72H257.95V124.76Z" fill="#A56033"/>
<path d="M255.36 131.51H245.46V139.43H255.36V131.51Z" fill="#7F4C2A"/>
<path d="M237.91 115.1H228.01V123.02H237.91V115.1Z" fill="#7F4C2A"/>
<path d="M212 126.37H202.1V134.29H212V126.37Z" fill="#7F4C2A"/>
<path d="M193.31 120.58H257.95" stroke="#4A2A14" stroke-width="2" stroke-miterlimit="10"/>
<path d="M193.31 140.63H257.95" stroke="#4A2A14" stroke-width="2" stroke-miterlimit="10"/>
<path d="M226.72 103.82V120.58" stroke="#4A2A14" stroke-width="2" stroke-miterlimit="10"/>
<path d="M226.72 139.81V154.39" stroke="#4A2A14" stroke-width="2" stroke-miterlimit="10"/>
<path d="M205.96 120.86V139.81" stroke="#4A2A14" stroke-width="2" stroke-miterlimit="10"/>
<path d="M246.1 120.86V139.81" stroke="#4A2A14" stroke-width="2" stroke-miterlimit="10"/>
<path d="M257.94 103.82H193.31V154.4H257.94V103.82Z" stroke="#4A2A14" stroke-width="2" stroke-miterlimit="10"/>
<path d="M382.94 103.82H318.31V154.4H382.94V103.82Z" fill="#96582F"/>
<path d="M382.95 124.76H377.18V108.92H353.26V115.62H333.08V126.59H318.31V137.55H336.07V154.39H345.79V132.07H359.99V143.03H370.46V135.72H382.95V124.76Z" fill="#A56033"/>
<path d="M380.36 131.51H370.46V139.43H380.36V131.51Z" fill="#7F4C2A"/>
<path d="M362.91 115.1H353.01V123.02H362.91V115.1Z" fill="#7F4C2A"/>
<path d="M337 126.37H327.1V134.29H337V126.37Z" fill="#7F4C2A"/>
<path d="M318.31 120.58H382.95" stroke="#4A2A14" stroke-width="2" stroke-miterlimit="10"/>
<path d="M318.31 140.63H382.95" stroke="#4A2A14" stroke-width="2" stroke-miterlimit="10"/>
<path d="M351.72 103.82V120.58" stroke="#4A2A14" stroke-width="2" stroke-miterlimit="10"/>
<path d="M351.72 139.81V154.39" stroke="#4A2A14" stroke-width="2" stroke-miterlimit="10"/>
<path d="M330.96 120.86V139.81" stroke="#4A2A14" stroke-width="2" stroke-miterlimit="10"/>
<path d="M371.1 120.86V139.81" stroke="#4A2A14" stroke-width="2" stroke-miterlimit="10"/>
<path d="M382.94 103.82H318.31V154.4H382.94V103.82Z" stroke="#4A2A14" stroke-width="2" stroke-miterlimit="10"/>
<path d="M509.94 259.82H445.31V310.4H509.94V259.82Z" fill="#96582F"/>
<path d="M509.95 280.76H504.18V264.92H480.26V271.62H460.08V282.59H445.31V293.55H463.07V310.39H472.79V288.07H486.99V299.03H497.46V291.72H509.95V280.76Z" fill="#A56033"/>
<path d="M507.359 287.51H497.459V295.43H507.359V287.51Z" fill="#7F4C2A"/>
<path d="M489.91 271.1H480.01V279.02H489.91V271.1Z" fill="#7F4C2A"/>
<path d="M464 282.37H454.1V290.29H464V282.37Z" fill="#7F4C2A"/>
<path d="M445.31 276.58H509.95" stroke="#4A2A14" stroke-width="2" stroke-miterlimit="10"/>
<path d="M445.31 296.63H509.95" stroke="#4A2A14" stroke-width="2" stroke-miterlimit="10"/>
<path d="M478.72 259.82V276.58" stroke="#4A2A14" stroke-width="2" stroke-miterlimit="10"/>
<path d="M478.72 295.81V310.39" stroke="#4A2A14" stroke-width="2" stroke-miterlimit="10"/>
<path d="M457.959 276.86V295.81" stroke="#4A2A14" stroke-width="2" stroke-miterlimit="10"/>
<path d="M498.1 276.86V295.81" stroke="#4A2A14" stroke-width="2" stroke-miterlimit="10"/>
<path d="M509.94 259.82H445.31V310.4H509.94V259.82Z" stroke="#4A2A14" stroke-width="2" stroke-miterlimit="10"/>
<path d="M445.94 259.82H381.31V310.4H445.94V259.82Z" fill="#96582F"/>
<path d="M445.95 280.76H440.18V264.92H416.26V271.62H396.08V282.59H381.31V293.55H399.07V310.39H408.79V288.07H422.99V299.03H433.46V291.72H445.95V280.76Z" fill="#A56033"/>
<path d="M443.359 287.51H433.459V295.43H443.359V287.51Z" fill="#7F4C2A"/>
<path d="M425.91 271.1H416.01V279.02H425.91V271.1Z" fill="#7F4C2A"/>
<path d="M400 282.37H390.1V290.29H400V282.37Z" fill="#7F4C2A"/>
<path d="M381.31 276.58H445.95" stroke="#4A2A14" stroke-width="2" stroke-miterlimit="10"/>
<path d="M381.31 296.63H445.95" stroke="#4A2A14" stroke-width="2" stroke-miterlimit="10"/>
<path d="M414.72 259.82V276.58" stroke="#4A2A14" stroke-width="2" stroke-miterlimit="10"/>
<path d="M414.72 295.81V310.39" stroke="#4A2A14" stroke-width="2" stroke-miterlimit="10"/>
<path d="M393.959 276.86V295.81" stroke="#4A2A14" stroke-width="2" stroke-miterlimit="10"/>
<path d="M434.1 276.86V295.81" stroke="#4A2A14" stroke-width="2" stroke-miterlimit="10"/>
<path d="M445.94 259.82H381.31V310.4H445.94V259.82Z" stroke="#4A2A14" stroke-width="2" stroke-miterlimit="10"/>
<path d="M319.94 259.82H255.31V310.4H319.94V259.82Z" fill="#96582F"/>
<path d="M319.95 280.76H314.18V264.92H290.26V271.62H270.08V282.59H255.31V293.55H273.07V310.39H282.79V288.07H296.99V299.03H307.46V291.72H319.95V280.76Z" fill="#A56033"/>
<path d="M317.36 287.51H307.46V295.43H317.36V287.51Z" fill="#7F4C2A"/>
<path d="M299.91 271.1H290.01V279.02H299.91V271.1Z" fill="#7F4C2A"/>
<path d="M274 282.37H264.1V290.29H274V282.37Z" fill="#7F4C2A"/>
<path d="M255.31 276.58H319.95" stroke="#4A2A14" stroke-width="2" stroke-miterlimit="10"/>
<path d="M255.31 296.63H319.95" stroke="#4A2A14" stroke-width="2" stroke-miterlimit="10"/>
<path d="M288.72 259.82V276.58" stroke="#4A2A14" stroke-width="2" stroke-miterlimit="10"/>
<path d="M288.72 295.81V310.39" stroke="#4A2A14" stroke-width="2" stroke-miterlimit="10"/>
<path d="M267.96 276.86V295.81" stroke="#4A2A14" stroke-width="2" stroke-miterlimit="10"/>
<path d="M308.1 276.86V295.81" stroke="#4A2A14" stroke-width="2" stroke-miterlimit="10"/>
<path d="M319.94 259.82H255.31V310.4H319.94V259.82Z" stroke="#4A2A14" stroke-width="2" stroke-miterlimit="10"/>
<path d="M257.94 259.82H193.31V310.4H257.94V259.82Z" fill="#96582F"/>
<path d="M257.95 280.76H252.18V264.92H228.26V271.62H208.08V282.59H193.31V293.55H211.07V310.39H220.79V288.07H234.99V299.03H245.46V291.72H257.95V280.76Z" fill="#A56033"/>
<path d="M255.36 287.51H245.46V295.43H255.36V287.51Z" fill="#7F4C2A"/>
<path d="M237.91 271.1H228.01V279.02H237.91V271.1Z" fill="#7F4C2A"/>
<path d="M212 282.37H202.1V290.29H212V282.37Z" fill="#7F4C2A"/>
<path d="M193.31 276.58H257.95" stroke="#4A2A14" stroke-width="2" stroke-miterlimit="10"/>
<path d="M193.31 296.63H257.95" stroke="#4A2A14" stroke-width="2" stroke-miterlimit="10"/>
<path d="M226.72 259.82V276.58" stroke="#4A2A14" stroke-width="2" stroke-miterlimit="10"/>
<path d="M226.72 295.81V310.39" stroke="#4A2A14" stroke-width="2" stroke-miterlimit="10"/>
<path d="M205.96 276.86V295.81" stroke="#4A2A14" stroke-width="2" stroke-miterlimit="10"/>
<path d="M246.1 276.86V295.81" stroke="#4A2A14" stroke-width="2" stroke-miterlimit="10"/>
<path d="M257.94 259.82H193.31V310.4H257.94V259.82Z" stroke="#4A2A14" stroke-width="2" stroke-miterlimit="10"/>
<path d="M382.94 259.82H318.31V310.4H382.94V259.82Z" fill="#96582F"/>
<path d="M382.95 280.76H377.18V264.92H353.26V271.62H333.08V282.59H318.31V293.55H336.07V310.39H345.79V288.07H359.99V299.03H370.46V291.72H382.95V280.76Z" fill="#A56033"/>
<path d="M380.36 287.51H370.46V295.43H380.36V287.51Z" fill="#7F4C2A"/>
<path d="M362.91 271.1H353.01V279.02H362.91V271.1Z" fill="#7F4C2A"/>
<path d="M337 282.37H327.1V290.29H337V282.37Z" fill="#7F4C2A"/>
<path d="M318.31 276.58H382.95" stroke="#4A2A14" stroke-width="2" stroke-miterlimit="10"/>
<path d="M318.31 296.63H382.95" stroke="#4A2A14" stroke-width="2" stroke-miterlimit="10"/>
<path d="M351.72 259.82V276.58" stroke="#4A2A14" stroke-width="2" stroke-miterlimit="10"/>
<path d="M351.72 295.81V310.39" stroke="#4A2A14" stroke-width="2" stroke-miterlimit="10"/>
<path d="M330.96 276.86V295.81" stroke="#4A2A14" stroke-width="2" stroke-miterlimit="10"/>
<path d="M371.1 276.86V295.81" stroke="#4A2A14" stroke-width="2" stroke-miterlimit="10"/>
<path d="M382.94 259.82H318.31V310.4H382.94V259.82Z" stroke="#4A2A14" stroke-width="2" stroke-miterlimit="10"/>
<path d="M127.94 259.82H63.3101V310.4H127.94V259.82Z" fill="#96582F"/>
<path d="M127.95 280.76H122.18V264.92H98.2601V271.62H78.0801V282.59H63.3101V293.55H81.0701V310.39H90.79V288.07H104.99V299.03H115.46V291.72H127.95V280.76Z" fill="#A56033"/>
<path d="M125.36 287.51H115.46V295.43H125.36V287.51Z" fill="#7F4C2A"/>
<path d="M107.91 271.1H98.01V279.02H107.91V271.1Z" fill="#7F4C2A"/>
<path d="M82.0001 282.37H72.1001V290.29H82.0001V282.37Z" fill="#7F4C2A"/>
<path d="M63.3101 276.58H127.95" stroke="#4A2A14" stroke-width="2" stroke-miterlimit="10"/>
<path d="M63.3101 296.63H127.95" stroke="#4A2A14" stroke-width="2" stroke-miterlimit="10"/>
<path d="M96.72 259.82V276.58" stroke="#4A2A14" stroke-width="2" stroke-miterlimit="10"/>
<path d="M96.72 295.81V310.39" stroke="#4A2A14" stroke-width="2" stroke-miterlimit="10"/>
<path d="M75.96 276.86V295.81" stroke="#4A2A14" stroke-width="2" stroke-miterlimit="10"/>
<path d="M116.1 276.86V295.81" stroke="#4A2A14" stroke-width="2" stroke-miterlimit="10"/>
<path d="M127.94 259.82H63.3101V310.4H127.94V259.82Z" stroke="#4A2A14" stroke-width="2" stroke-miterlimit="10"/>
<path d="M65.9401 259.82H1.31006V310.4H65.9401V259.82Z" fill="#96582F"/>
<path d="M65.9501 280.76H60.1801V264.92H36.2601V271.62H16.0801V282.59H1.31006V293.55H19.0701V310.39H28.79V288.07H42.9901V299.03H53.4601V291.72H65.9501V280.76Z" fill="#A56033"/>
<path d="M63.3599 287.51H53.46V295.43H63.3599V287.51Z" fill="#7F4C2A"/>
<path d="M45.91 271.1H36.01V279.02H45.91V271.1Z" fill="#7F4C2A"/>
<path d="M20.0001 282.37H10.1001V290.29H20.0001V282.37Z" fill="#7F4C2A"/>
<path d="M1.31006 276.58H65.9501" stroke="#4A2A14" stroke-width="2" stroke-miterlimit="10"/>
<path d="M1.31006 296.63H65.9501" stroke="#4A2A14" stroke-width="2" stroke-miterlimit="10"/>
<path d="M34.72 259.82V276.58" stroke="#4A2A14" stroke-width="2" stroke-miterlimit="10"/>
<path d="M34.72 295.81V310.39" stroke="#4A2A14" stroke-width="2" stroke-miterlimit="10"/>
<path d="M13.96 276.86V295.81" stroke="#4A2A14" stroke-width="2" stroke-miterlimit="10"/>
<path d="M54.1001 276.86V295.81" stroke="#4A2A14" stroke-width="2" stroke-miterlimit="10"/>
<path d="M65.9401 259.82H1.31006V310.4H65.9401V259.82Z" stroke="#4A2A14" stroke-width="2" stroke-miterlimit="10"/>
<path d="M191.94 259.82H127.31V310.4H191.94V259.82Z" fill="#96582F"/>
<path d="M191.95 280.76H186.18V264.92H162.26V271.62H142.08V282.59H127.31V293.55H145.07V310.39H154.79V288.07H168.99V299.03H179.46V291.72H191.95V280.76Z" fill="#A56033"/>
<path d="M189.36 287.51H179.46V295.43H189.36V287.51Z" fill="#7F4C2A"/>
<path d="M171.91 271.1H162.01V279.02H171.91V271.1Z" fill="#7F4C2A"/>
<path d="M146 282.37H136.1V290.29H146V282.37Z" fill="#7F4C2A"/>
<path d="M127.31 276.58H191.95" stroke="#4A2A14" stroke-width="2" stroke-miterlimit="10"/>
<path d="M127.31 296.63H191.95" stroke="#4A2A14" stroke-width="2" stroke-miterlimit="10"/>
<path d="M160.72 259.82V276.58" stroke="#4A2A14" stroke-width="2" stroke-miterlimit="10"/>
<path d="M160.72 295.81V310.39" stroke="#4A2A14" stroke-width="2" stroke-miterlimit="10"/>
<path d="M139.96 276.86V295.81" stroke="#4A2A14" stroke-width="2" stroke-miterlimit="10"/>
<path d="M180.1 276.86V295.81" stroke="#4A2A14" stroke-width="2" stroke-miterlimit="10"/>
<path d="M191.94 259.82H127.31V310.4H191.94V259.82Z" stroke="#4A2A14" stroke-width="2" stroke-miterlimit="10"/>
<path d="M509.94 155.82H445.31V206.4H509.94V155.82Z" fill="#96582F"/>
<path d="M509.95 176.76H504.18V160.92H480.26V167.62H460.08V178.59H445.31V189.55H463.07V206.39H472.79V184.07H486.99V195.03H497.46V187.72H509.95V176.76Z" fill="#A56033"/>
<path d="M507.359 183.51H497.459V191.43H507.359V183.51Z" fill="#7F4C2A"/>
<path d="M489.91 167.1H480.01V175.02H489.91V167.1Z" fill="#7F4C2A"/>
<path d="M464 178.37H454.1V186.29H464V178.37Z" fill="#7F4C2A"/>
<path d="M445.31 172.58H509.95" stroke="#4A2A14" stroke-width="2" stroke-miterlimit="10"/>
<path d="M445.31 192.63H509.95" stroke="#4A2A14" stroke-width="2" stroke-miterlimit="10"/>
<path d="M478.72 155.82V172.58" stroke="#4A2A14" stroke-width="2" stroke-miterlimit="10"/>
<path d="M478.72 191.81V206.39" stroke="#4A2A14" stroke-width="2" stroke-miterlimit="10"/>
<path d="M457.959 172.86V191.81" stroke="#4A2A14" stroke-width="2" stroke-miterlimit="10"/>
<path d="M498.1 172.86V191.81" stroke="#4A2A14" stroke-width="2" stroke-miterlimit="10"/>
<path d="M509.94 155.82H445.31V206.4H509.94V155.82Z" stroke="#4A2A14" stroke-width="2" stroke-miterlimit="10"/>
<path d="M445.94 155.82H381.31V206.4H445.94V155.82Z" fill="#96582F"/>
<path d="M445.95 176.76H440.18V160.92H416.26V167.62H396.08V178.59H381.31V189.55H399.07V206.39H408.79V184.07H422.99V195.03H433.46V187.72H445.95V176.76Z" fill="#A56033"/>
<path d="M443.359 183.51H433.459V191.43H443.359V183.51Z" fill="#7F4C2A"/>
<path d="M425.91 167.1H416.01V175.02H425.91V167.1Z" fill="#7F4C2A"/>
<path d="M400 178.37H390.1V186.29H400V178.37Z" fill="#7F4C2A"/>
<path d="M381.31 172.58H445.95" stroke="#4A2A14" stroke-width="2" stroke-miterlimit="10"/>
<path d="M381.31 192.63H445.95" stroke="#4A2A14" stroke-width="2" stroke-miterlimit="10"/>
<path d="M414.72 155.82V172.58" stroke="#4A2A14" stroke-width="2" stroke-miterlimit="10"/>
<path d="M414.72 191.81V206.39" stroke="#4A2A14" stroke-width="2" stroke-miterlimit="10"/>
<path d="M393.959 172.86V191.81" stroke="#4A2A14" stroke-width="2" stroke-miterlimit="10"/>
<path d="M434.1 172.86V191.81" stroke="#4A2A14" stroke-width="2" stroke-miterlimit="10"/>
<path d="M445.94 155.82H381.31V206.4H445.94V155.82Z" stroke="#4A2A14" stroke-width="2" stroke-miterlimit="10"/>
<path d="M319.94 155.82H255.31V206.4H319.94V155.82Z" fill="#96582F"/>
<path d="M319.95 176.76H314.18V160.92H290.26V167.62H270.08V178.59H255.31V189.55H273.07V206.39H282.79V184.07H296.99V195.03H307.46V187.72H319.95V176.76Z" fill="#A56033"/>
<path d="M317.36 183.51H307.46V191.43H317.36V183.51Z" fill="#7F4C2A"/>
<path d="M299.91 167.1H290.01V175.02H299.91V167.1Z" fill="#7F4C2A"/>
<path d="M274 178.37H264.1V186.29H274V178.37Z" fill="#7F4C2A"/>
<path d="M255.31 172.58H319.95" stroke="#4A2A14" stroke-width="2" stroke-miterlimit="10"/>
<path d="M255.31 192.63H319.95" stroke="#4A2A14" stroke-width="2" stroke-miterlimit="10"/>
<path d="M288.72 155.82V172.58" stroke="#4A2A14" stroke-width="2" stroke-miterlimit="10"/>
<path d="M288.72 191.81V206.39" stroke="#4A2A14" stroke-width="2" stroke-miterlimit="10"/>
<path d="M267.96 172.86V191.81" stroke="#4A2A14" stroke-width="2" stroke-miterlimit="10"/>
<path d="M308.1 172.86V191.81" stroke="#4A2A14" stroke-width="2" stroke-miterlimit="10"/>
<path d="M319.94 155.82H255.31V206.4H319.94V155.82Z" stroke="#4A2A14" stroke-width="2" stroke-miterlimit="10"/>
<path d="M382.94 155.82H318.31V206.4H382.94V155.82Z" fill="#96582F"/>
<path d="M382.95 176.76H377.18V160.92H353.26V167.62H333.08V178.59H318.31V189.55H336.07V206.39H345.79V184.07H359.99V195.03H370.46V187.72H382.95V176.76Z" fill="#A56033"/>
<path d="M380.36 183.51H370.46V191.43H380.36V183.51Z" fill="#7F4C2A"/>
<path d="M362.91 167.1H353.01V175.02H362.91V167.1Z" fill="#7F4C2A"/>
<path d="M337 178.37H327.1V186.29H337V178.37Z" fill="#7F4C2A"/>
<path d="M318.31 172.58H382.95" stroke="#4A2A14" stroke-width="2" stroke-miterlimit="10"/>
<path d="M318.31 192.63H382.95" stroke="#4A2A14" stroke-width="2" stroke-miterlimit="10"/>
<path d="M351.72 155.82V172.58" stroke="#4A2A14" stroke-width="2" stroke-miterlimit="10"/>
<path d="M351.72 191.81V206.39" stroke="#4A2A14" stroke-width="2" stroke-miterlimit="10"/>
<path d="M330.96 172.86V191.81" stroke="#4A2A14" stroke-width="2" stroke-miterlimit="10"/>
<path d="M371.1 172.86V191.81" stroke="#4A2A14" stroke-width="2" stroke-miterlimit="10"/>
<path d="M382.94 155.82H318.31V206.4H382.94V155.82Z" stroke="#4A2A14" stroke-width="2" stroke-miterlimit="10"/>
<path d="M191.94 155.82H127.31V206.4H191.94V155.82Z" fill="#96582F"/>
<path d="M191.95 176.76H186.18V160.92H162.26V167.62H142.08V178.59H127.31V189.55H145.07V206.39H154.79V184.07H168.99V195.03H179.46V187.72H191.95V176.76Z" fill="#A56033"/>
<path d="M189.36 183.51H179.46V191.43H189.36V183.51Z" fill="#7F4C2A"/>
<path d="M171.91 167.1H162.01V175.02H171.91V167.1Z" fill="#7F4C2A"/>
<path d="M146 178.37H136.1V186.29H146V178.37Z" fill="#7F4C2A"/>
<path d="M127.31 172.58H191.95" stroke="#4A2A14" stroke-width="2" stroke-miterlimit="10"/>
<path d="M127.31 192.63H191.95" stroke="#4A2A14" stroke-width="2" stroke-miterlimit="10"/>
<path d="M160.72 155.82V172.58" stroke="#4A2A14" stroke-width="2" stroke-miterlimit="10"/>
<path d="M160.72 191.81V206.39" stroke="#4A2A14" stroke-width="2" stroke-miterlimit="10"/>
<path d="M139.96 172.86V191.81" stroke="#4A2A14" stroke-width="2" stroke-miterlimit="10"/>
<path d="M180.1 172.86V191.81" stroke="#4A2A14" stroke-width="2" stroke-miterlimit="10"/>
<path d="M191.94 155.82H127.31V206.4H191.94V155.82Z" stroke="#4A2A14" stroke-width="2" stroke-miterlimit="10"/>
<path d="M254.94 155.82H190.31V206.4H254.94V155.82Z" fill="#96582F"/>
<path d="M254.95 176.76H249.18V160.92H225.26V167.62H205.08V178.59H190.31V189.55H208.07V206.39H217.79V184.07H231.99V195.03H242.46V187.72H254.95V176.76Z" fill="#A56033"/>
<path d="M252.36 183.51H242.46V191.43H252.36V183.51Z" fill="#7F4C2A"/>
<path d="M234.91 167.1H225.01V175.02H234.91V167.1Z" fill="#7F4C2A"/>
<path d="M209 178.37H199.1V186.29H209V178.37Z" fill="#7F4C2A"/>
<path d="M190.31 172.58H254.95" stroke="#4A2A14" stroke-width="2" stroke-miterlimit="10"/>
<path d="M190.31 192.63H254.95" stroke="#4A2A14" stroke-width="2" stroke-miterlimit="10"/>
<path d="M223.72 155.82V172.58" stroke="#4A2A14" stroke-width="2" stroke-miterlimit="10"/>
<path d="M223.72 191.81V206.39" stroke="#4A2A14" stroke-width="2" stroke-miterlimit="10"/>
<path d="M202.96 172.86V191.81" stroke="#4A2A14" stroke-width="2" stroke-miterlimit="10"/>
<path d="M243.1 172.86V191.81" stroke="#4A2A14" stroke-width="2" stroke-miterlimit="10"/>
<path d="M254.94 155.82H190.31V206.4H254.94V155.82Z" stroke="#4A2A14" stroke-width="2" stroke-miterlimit="10"/>
<path d="M509.94 207.82H445.31V258.4H509.94V207.82Z" fill="#96582F"/>
<path d="M509.95 228.76H504.18V212.92H480.26V219.62H460.08V230.59H445.31V241.55H463.07V258.39H472.79V236.07H486.99V247.03H497.46V239.72H509.95V228.76Z" fill="#A56033"/>
<path d="M507.36 235.51H497.46V243.43H507.36V235.51Z" fill="#7F4C2A"/>
<path d="M489.91 219.1H480.01V227.02H489.91V219.1Z" fill="#7F4C2A"/>
<path d="M464 230.37H454.1V238.29H464V230.37Z" fill="#7F4C2A"/>
<path d="M445.31 224.58H509.95" stroke="#4A2A14" stroke-width="2" stroke-miterlimit="10"/>
<path d="M445.31 244.63H509.95" stroke="#4A2A14" stroke-width="2" stroke-miterlimit="10"/>
<path d="M478.72 207.82V224.58" stroke="#4A2A14" stroke-width="2" stroke-miterlimit="10"/>
<path d="M478.72 243.81V258.39" stroke="#4A2A14" stroke-width="2" stroke-miterlimit="10"/>
<path d="M457.96 224.86V243.81" stroke="#4A2A14" stroke-width="2" stroke-miterlimit="10"/>
<path d="M498.1 224.86V243.81" stroke="#4A2A14" stroke-width="2" stroke-miterlimit="10"/>
<path d="M509.94 207.82H445.31V258.4H509.94V207.82Z" stroke="#4A2A14" stroke-width="2" stroke-miterlimit="10"/>
<path d="M445.94 207.82H381.31V258.4H445.94V207.82Z" fill="#96582F"/>
<path d="M445.95 228.76H440.18V212.92H416.26V219.62H396.08V230.59H381.31V241.55H399.07V258.39H408.79V236.07H422.99V247.03H433.46V239.72H445.95V228.76Z" fill="#A56033"/>
<path d="M443.36 235.51H433.46V243.43H443.36V235.51Z" fill="#7F4C2A"/>
<path d="M425.91 219.1H416.01V227.02H425.91V219.1Z" fill="#7F4C2A"/>
<path d="M400 230.37H390.1V238.29H400V230.37Z" fill="#7F4C2A"/>
<path d="M381.31 224.58H445.95" stroke="#4A2A14" stroke-width="2" stroke-miterlimit="10"/>
<path d="M381.31 244.63H445.95" stroke="#4A2A14" stroke-width="2" stroke-miterlimit="10"/>
<path d="M414.72 207.82V224.58" stroke="#4A2A14" stroke-width="2" stroke-miterlimit="10"/>
<path d="M414.72 243.81V258.39" stroke="#4A2A14" stroke-width="2" stroke-miterlimit="10"/>
<path d="M393.96 224.86V243.81" stroke="#4A2A14" stroke-width="2" stroke-miterlimit="10"/>
<path d="M434.1 224.86V243.81" stroke="#4A2A14" stroke-width="2" stroke-miterlimit="10"/>
<path d="M445.94 207.82H381.31V258.4H445.94V207.82Z" stroke="#4A2A14" stroke-width="2" stroke-miterlimit="10"/>
<path d="M191.94 207.82H127.31V258.4H191.94V207.82Z" fill="#96582F"/>
<path d="M191.95 228.76H186.18V212.92H162.26V219.62H142.08V230.59H127.31V241.55H145.07V258.39H154.79V236.07H168.99V247.03H179.46V239.72H191.95V228.76Z" fill="#A56033"/>
<path d="M189.36 235.51H179.46V243.43H189.36V235.51Z" fill="#7F4C2A"/>
<path d="M171.91 219.1H162.01V227.02H171.91V219.1Z" fill="#7F4C2A"/>
<path d="M146 230.37H136.1V238.29H146V230.37Z" fill="#7F4C2A"/>
<path d="M127.31 224.58H191.95" stroke="#4A2A14" stroke-width="2" stroke-miterlimit="10"/>
<path d="M127.31 244.63H191.95" stroke="#4A2A14" stroke-width="2" stroke-miterlimit="10"/>
<path d="M160.72 207.82V224.58" stroke="#4A2A14" stroke-width="2" stroke-miterlimit="10"/>
<path d="M160.72 243.81V258.39" stroke="#4A2A14" stroke-width="2" stroke-miterlimit="10"/>
<path d="M139.96 224.86V243.81" stroke="#4A2A14" stroke-width="2" stroke-miterlimit="10"/>
<path d="M180.1 224.86V243.81" stroke="#4A2A14" stroke-width="2" stroke-miterlimit="10"/>
<path d="M191.94 207.82H127.31V258.4H191.94V207.82Z" stroke="#4A2A14" stroke-width="2" stroke-miterlimit="10"/>
<path d="M128.94 207.82H64.3101V258.4H128.94V207.82Z" fill="#96582F"/>
<path d="M128.95 228.76H123.18V212.92H99.2601V219.62H79.0801V230.59H64.3101V241.55H82.0701V258.39H91.79V236.07H105.99V247.03H116.46V239.72H128.95V228.76Z" fill="#A56033"/>
<path d="M126.36 235.51H116.46V243.43H126.36V235.51Z" fill="#7F4C2A"/>
<path d="M108.91 219.1H99.01V227.02H108.91V219.1Z" fill="#7F4C2A"/>
<path d="M83.0001 230.37H73.1001V238.29H83.0001V230.37Z" fill="#7F4C2A"/>
<path d="M64.3101 224.58H128.95" stroke="#4A2A14" stroke-width="2" stroke-miterlimit="10"/>
<path d="M64.3101 244.63H128.95" stroke="#4A2A14" stroke-width="2" stroke-miterlimit="10"/>
<path d="M97.72 207.82V224.58" stroke="#4A2A14" stroke-width="2" stroke-miterlimit="10"/>
<path d="M97.72 243.81V258.39" stroke="#4A2A14" stroke-width="2" stroke-miterlimit="10"/>
<path d="M76.96 224.86V243.81" stroke="#4A2A14" stroke-width="2" stroke-miterlimit="10"/>
<path d="M117.1 224.86V243.81" stroke="#4A2A14" stroke-width="2" stroke-miterlimit="10"/>
<path d="M128.94 207.82H64.3101V258.4H128.94V207.82Z" stroke="#4A2A14" stroke-width="2" stroke-miterlimit="10"/>
<path d="M254.94 207.82H190.31V258.4H254.94V207.82Z" fill="#96582F"/>
<path d="M254.95 228.76H249.18V212.92H225.26V219.62H205.08V230.59H190.31V241.55H208.07V258.39H217.79V236.07H231.99V247.03H242.46V239.72H254.95V228.76Z" fill="#A56033"/>
<path d="M252.36 235.51H242.46V243.43H252.36V235.51Z" fill="#7F4C2A"/>
<path d="M234.91 219.1H225.01V227.02H234.91V219.1Z" fill="#7F4C2A"/>
<path d="M209 230.37H199.1V238.29H209V230.37Z" fill="#7F4C2A"/>
<path d="M190.31 224.58H254.95" stroke="#4A2A14" stroke-width="2" stroke-miterlimit="10"/>
<path d="M190.31 244.63H254.95" stroke="#4A2A14" stroke-width="2" stroke-miterlimit="10"/>
<path d="M223.72 207.82V224.58" stroke="#4A2A14" stroke-width="2" stroke-miterlimit="10"/>
<path d="M223.72 243.81V258.39" stroke="#4A2A14" stroke-width="2" stroke-miterlimit="10"/>
<path d="M202.96 224.86V243.81" stroke="#4A2A14" stroke-width="2" stroke-miterlimit="10"/>
<path d="M243.1 224.86V243.81" stroke="#4A2A14" stroke-width="2" stroke-miterlimit="10"/>
<path d="M254.94 207.82H190.31V258.4H254.94V207.82Z" stroke="#4A2A14" stroke-width="2" stroke-miterlimit="10"/>
<path d="M319.94 207.82H255.31V258.4H319.94V207.82Z" fill="#96582F"/>
<path d="M319.95 228.76H314.18V212.92H290.26V219.62H270.08V230.59H255.31V241.55H273.07V258.39H282.79V236.07H296.99V247.03H307.46V239.72H319.95V228.76Z" fill="#A56033"/>
<path d="M317.36 235.51H307.46V243.43H317.36V235.51Z" fill="#7F4C2A"/>
<path d="M299.91 219.1H290.01V227.02H299.91V219.1Z" fill="#7F4C2A"/>
<path d="M274 230.37H264.1V238.29H274V230.37Z" fill="#7F4C2A"/>
<path d="M255.31 224.58H319.95" stroke="#4A2A14" stroke-width="2" stroke-miterlimit="10"/>
<path d="M255.31 244.63H319.95" stroke="#4A2A14" stroke-width="2" stroke-miterlimit="10"/>
<path d="M288.72 207.82V224.58" stroke="#4A2A14" stroke-width="2" stroke-miterlimit="10"/>
<path d="M288.72 243.81V258.39" stroke="#4A2A14" stroke-width="2" stroke-miterlimit="10"/>
<path d="M267.96 224.86V243.81" stroke="#4A2A14" stroke-width="2" stroke-miterlimit="10"/>
<path d="M308.1 224.86V243.81" stroke="#4A2A14" stroke-width="2" stroke-miterlimit="10"/>
<path d="M319.94 207.82H255.31V258.4H319.94V207.82Z" stroke="#4A2A14" stroke-width="2" stroke-miterlimit="10"/>
<path d="M382.94 207.82H318.31V258.4H382.94V207.82Z" fill="#96582F"/>
<path d="M382.95 228.76H377.18V212.92H353.26V219.62H333.08V230.59H318.31V241.55H336.07V258.39H345.79V236.07H359.99V247.03H370.46V239.72H382.95V228.76Z" fill="#A56033"/>
<path d="M380.359 235.51H370.459V243.43H380.359V235.51Z" fill="#7F4C2A"/>
<path d="M362.91 219.1H353.01V227.02H362.91V219.1Z" fill="#7F4C2A"/>
<path d="M337 230.37H327.1V238.29H337V230.37Z" fill="#7F4C2A"/>
<path d="M318.31 224.58H382.95" stroke="#4A2A14" stroke-width="2" stroke-miterlimit="10"/>
<path d="M318.31 244.63H382.95" stroke="#4A2A14" stroke-width="2" stroke-miterlimit="10"/>
<path d="M351.72 207.82V224.58" stroke="#4A2A14" stroke-width="2" stroke-miterlimit="10"/>
<path d="M351.72 243.81V258.39" stroke="#4A2A14" stroke-width="2" stroke-miterlimit="10"/>
<path d="M330.959 224.86V243.81" stroke="#4A2A14" stroke-width="2" stroke-miterlimit="10"/>
<path d="M371.1 224.86V243.81" stroke="#4A2A14" stroke-width="2" stroke-miterlimit="10"/>
<path d="M382.94 207.82H318.31V258.4H382.94V207.82Z" stroke="#4A2A14" stroke-width="2" stroke-miterlimit="10"/>
</svg>
