<svg width="377" height="312" viewBox="0 0 377 312" fill="none" xmlns="http://www.w3.org/2000/svg">
<path d="M362.58 307.58H357.88V311.47H362.58V307.58Z" fill="#222424"/>
<path d="M89.8499 303.7H85.1499V307.59H89.8499V303.7Z" fill="#1B2322"/>
<path d="M89.8499 299.81H85.1499V303.69H89.8499V299.81Z" fill="#1B2322"/>
<path d="M89.8499 295.93H85.1499V299.82H89.8499V295.93Z" fill="#1B2322"/>
<path d="M89.8499 292.04H85.1499V295.93H89.8499V292.04Z" fill="#1B2322"/>
<path d="M89.8499 288.16H85.1499V292.04H89.8499V288.16Z" fill="#1B2322"/>
<path d="M89.8499 284.27H85.1499V288.16H89.8499V284.27Z" fill="#1B2322"/>
<path d="M89.8499 280.38H85.1499V284.26H89.8499V280.38Z" fill="#1B2322"/>
<path d="M89.8499 276.5H85.1499V280.39H89.8499V276.5Z" fill="#1B2322"/>
<path d="M89.8499 272.61H85.1499V276.5H89.8499V272.61Z" fill="#1B2322"/>
<path d="M324.96 268.72H320.26V272.61H324.96V268.72Z" fill="#5C4934"/>
<path d="M89.8499 268.72H85.1499V272.61H89.8499V268.72Z" fill="#1B2322"/>
<path d="M324.96 264.84H320.26V268.72H324.96V264.84Z" fill="#5C4934"/>
<path d="M89.8499 264.84H85.1499V268.72H89.8499V264.84Z" fill="#1B2322"/>
<path d="M324.96 260.95H320.26V264.84H324.96V260.95Z" fill="#5C4934"/>
<path d="M89.8499 260.95H85.1499V264.84H89.8499V260.95Z" fill="#1B2322"/>
<path d="M324.96 257.07H320.26V260.96H324.96V257.07Z" fill="#5C4934"/>
<path d="M89.8499 257.07H85.1499V260.96H89.8499V257.07Z" fill="#1B2322"/>
<path d="M324.96 253.18H320.26V257.06H324.96V253.18Z" fill="#5C4934"/>
<path d="M207.4 253.18H202.7V257.06H207.4V253.18Z" fill="#463926"/>
<path d="M89.8499 253.18H85.1499V257.06H89.8499V253.18Z" fill="#1B2322"/>
<path d="M324.96 249.29H320.26V253.18H324.96V249.29Z" fill="#5C4934"/>
<path d="M169.79 249.29H165.09V253.18H160.38V257.07V260.95V264.84V268.72V272.61V276.5V280.38V284.27V288.16V292.04V295.93V299.81V303.7V307.58H165.09H169.79V303.7V299.81V295.93V292.04V288.16V284.27V280.38V276.5V272.61V268.72V264.84V260.95V257.07V253.18H174.49V249.29H169.79Z" fill="#2B2314"/>
<path d="M165.08 249.29H160.38V253.18H165.08V249.29Z" fill="#5C4935"/>
<path d="M89.8499 249.29H85.1499V253.18H89.8499V249.29Z" fill="#1B2322"/>
<path d="M324.96 245.41H320.26V249.29H324.96V245.41Z" fill="#5C4934"/>
<path d="M89.8499 245.41H85.1499V249.29H89.8499V245.41Z" fill="#1B2322"/>
<path d="M324.96 241.52H320.26V245.41H324.96V241.52Z" fill="#5C4934"/>
<path d="M89.8499 241.52H85.1499V245.41H89.8499V241.52Z" fill="#1B2322"/>
<path d="M324.96 237.64H320.26V241.53H324.96V237.64Z" fill="#5C4934"/>
<path d="M89.8499 237.64H85.1499V241.53H89.8499V237.64Z" fill="#1B2322"/>
<path d="M89.8499 233.75H85.1499V237.64H89.8499V233.75Z" fill="#1B2322"/>
<path d="M277.94 229.87H273.24V233.75H277.94V229.87Z" fill="#997860"/>
<path d="M259.13 229.87H254.43V233.75H259.13V229.87Z" fill="#997860"/>
<path d="M254.43 229.87H249.729V233.75H254.43V229.87Z" fill="#997860"/>
<path d="M235.62 229.87H230.92V233.75H235.62V229.87Z" fill="#997860"/>
<path d="M230.92 229.87H226.22V233.75H230.92V229.87Z" fill="#997860"/>
<path d="M226.21 229.87H221.51V233.75H226.21V229.87Z" fill="#997860"/>
<path d="M150.98 229.87H146.28V233.75H150.98V229.87Z" fill="#997860"/>
<path d="M132.17 229.87H127.47V233.75H132.17V229.87Z" fill="#997860"/>
<path d="M127.469 229.87H122.77V233.75H127.469V229.87Z" fill="#997860"/>
<path d="M108.66 229.87H103.96V233.75H108.66V229.87Z" fill="#997860"/>
<path d="M103.96 229.87H99.2598V233.75H103.96V229.87Z" fill="#997860"/>
<path d="M89.8499 229.87H85.1499V233.75H89.8499V229.87Z" fill="#1B2322"/>
<path d="M306.15 225.98H301.45V229.87H306.15V225.98Z" fill="#463926"/>
<path d="M301.45 225.98H296.75V229.87H301.45V225.98Z" fill="#463926"/>
<path d="M296.75 225.98H292.05V229.87H296.75V225.98Z" fill="#463926"/>
<path d="M89.8499 225.98H85.1499V229.87H89.8499V225.98Z" fill="#1B2322"/>
<path d="M89.8499 222.09H85.1499V225.98H89.8499V222.09Z" fill="#1B2322"/>
<path d="M136.87 218.21H132.17V222.1H136.87V218.21Z" fill="#242123"/>
<path d="M226.21 214.32H221.51V218.21H226.21V214.32Z" fill="#705C4A"/>
<path d="M150.98 214.32H146.28V218.21H150.98V214.32Z" fill="#705D4B"/>
<path d="M89.8499 214.32H85.1499V218.21H89.8499V214.32Z" fill="#1B2322"/>
<path d="M245.02 206.55H240.32V210.44H245.02V206.55Z" fill="#564531"/>
<path d="M122.77 206.55H118.07V210.44H122.77V206.55Z" fill="#4F3F2B"/>
<path d="M245.02 202.66H240.32V206.55H245.02V202.66Z" fill="#564531"/>
<path d="M122.77 202.66H118.07V206.55H122.77V202.66Z" fill="#4F3F2B"/>
<path d="M245.02 198.78H240.32V202.67H245.02V198.78Z" fill="#564531"/>
<path d="M122.77 198.78H118.07V202.67H122.77V198.78Z" fill="#50402D"/>
<path d="M245.02 194.89H240.32V198.77H245.02V194.89Z" fill="#564531"/>
<path d="M122.77 194.89H118.07V198.77H122.77V194.89Z" fill="#544330"/>
<path d="M245.02 191.01H240.32V194.9H245.02V191.01Z" fill="#564531"/>
<path d="M122.77 191.01H118.07V194.9H122.77V191.01Z" fill="#544330"/>
<path d="M245.02 187.12H240.32V191.01H245.02V187.12Z" fill="#564531"/>
<path d="M122.77 187.12H118.07V191.01H122.77V187.12Z" fill="#544330"/>
<path d="M245.02 183.24H240.32V187.13H245.02V183.24Z" fill="#564531"/>
<path d="M122.77 183.24H118.07V187.13H122.77V183.24Z" fill="#544330"/>
<path d="M240.32 179.35H235.62V183.24H240.32V179.35Z" fill="#564331"/>
<path d="M235.62 179.35H230.92V183.24H235.62V179.35Z" fill="#564331"/>
<path d="M207.4 179.35H202.7V183.24H207.4V179.35Z" fill="#564331"/>
<path d="M202.7 179.35H198V183.24H202.7V179.35Z" fill="#564331"/>
<path d="M198 179.35H193.3V183.24H198V179.35Z" fill="#564331"/>
<path d="M169.79 179.35H165.09V183.24H169.79V179.35Z" fill="#564331"/>
<path d="M165.08 179.35H160.38V183.24H165.08V179.35Z" fill="#564331"/>
<path d="M160.38 179.35H155.68V183.24H160.38V179.35Z" fill="#564331"/>
<path d="M132.17 179.35H127.47V183.24H132.17V179.35Z" fill="#564331"/>
<path d="M127.469 179.35H122.77V183.24H127.469V179.35Z" fill="#564331"/>
<path d="M155.68 222.09H150.979V225.98H155.68V222.09Z" fill="#68513B"/>
<path d="M122.77 210.44H118.07V206.55V202.66V198.78V194.89H113.36V191.01V187.12V183.24V179.35V175.46V171.58V167.69V163.81H108.66H103.96H99.2598V167.69V171.58V175.46V179.35V183.24V187.12V191.01V194.89V198.78V202.66V206.55V210.44V214.32V218.21V222.09V225.98H103.96V222.09V218.21H108.66V214.32H113.36H118.07H122.77V218.21V222.09V225.98H127.47V222.09V218.21H132.17V214.32V210.44H127.47H122.77Z" fill="#68513B"/>
<path d="M301.45 191.01H296.75H292.05V194.89H296.75H301.45H306.16V191.01H301.45Z" fill="#68513B"/>
<path d="M245.02 179.35H240.32V183.24H245.02V179.35Z" fill="#68513B"/>
<path d="M122.77 179.35H118.07V183.24H122.77V179.35Z" fill="#68513B"/>
<path d="M127.47 222.09V225.98H132.17V222.09V218.21H127.47V222.09Z" fill="#5E5444"/>
<path d="M263.83 214.32H259.13V218.21H263.83V214.32Z" fill="#5E5444"/>
<path d="M240.32 214.32H235.62V218.21H240.32H245.03H249.73V214.32H245.03H240.32Z" fill="#5E5444"/>
<path d="M212.11 214.32H207.41V218.21H212.11H216.81H221.51V214.32H216.81H212.11Z" fill="#5E5444"/>
<path d="M188.6 214.32H183.9V218.21H188.6H193.3H198V214.32H193.3H188.6Z" fill="#5E5444"/>
<path d="M165.09 214.32H160.38H155.68V218.21H160.38H165.09H169.79H174.49V214.32H169.79H165.09Z" fill="#5E5444"/>
<path d="M136.88 214.32H132.17V218.21H136.88H141.58H146.28V214.32H141.58H136.88Z" fill="#5E5444"/>
<path d="M113.36 214.32H108.66V218.21H113.36H118.07H122.77V214.32H118.07H113.36Z" fill="#5E5444"/>
<path d="M259.13 159.92H254.43H249.73H245.03H240.32H235.62H230.92H226.22H221.51H216.81H212.11H207.41H202.7H198H193.3H188.6H183.9H179.2H174.49H169.79H165.09H160.38H155.68H150.98H146.28H141.58H136.88H132.17H127.47H122.77H118.07H113.36V163.81H118.07H122.77H127.47H132.17H136.88H141.58H146.28H150.98H155.68H160.38H165.09H169.79H174.49H179.2H183.9H188.6H193.3H198H202.7H207.41H212.11H216.81H221.51H226.22H230.92H235.62H240.32H245.03H249.73H254.43H259.13H263.83V159.92H259.13Z" fill="#5E5444"/>
<path d="M113.36 159.92H108.66V163.81H113.36V159.92Z" fill="#5C5243"/>
<path d="M108.66 159.92H103.96V163.81H108.66V159.92Z" fill="#5C5243"/>
<path d="M103.96 159.92H99.2598V163.81H103.96V159.92Z" fill="#5C5243"/>
<path d="M99.2596 152.15H94.5596V156.04H99.2596V152.15Z" fill="#786451"/>
<path d="M99.2596 148.26H94.5596V152.15H99.2596V148.26Z" fill="#786451"/>
<path d="M240.32 144.37H235.62V148.26H240.32V144.37Z" fill="#887362"/>
<path d="M136.87 144.37H132.17V148.26H136.87V144.37Z" fill="#8C7562"/>
<path d="M127.469 144.37H122.77V148.26H127.469V144.37Z" fill="#977861"/>
<path d="M99.2596 144.37H94.5596V148.26H99.2596V144.37Z" fill="#786451"/>
<path d="M19.3196 144.37H14.6196V148.26H19.3196V144.37Z" fill="#76695A"/>
<path d="M249.73 140.49H245.03V144.38H249.73V140.49Z" fill="#404748"/>
<path d="M240.32 140.49H235.62V144.38H240.32V140.49Z" fill="#867362"/>
<path d="M230.92 140.49H226.22V144.38H230.92V140.49Z" fill="#997860"/>
<path d="M136.87 140.49H132.17V144.38H136.87V140.49Z" fill="#8A7361"/>
<path d="M132.17 140.49H127.47V144.38H132.17V140.49Z" fill="#373F3F"/>
<path d="M127.469 140.49H122.77V144.38H127.469V140.49Z" fill="#967861"/>
<path d="M118.06 140.49H113.36V144.38H118.06V140.49Z" fill="#19201F"/>
<path d="M99.2596 140.49H94.5596V144.38H99.2596V140.49Z" fill="#786451"/>
<path d="M89.8499 140.49H85.1499V144.38H89.8499V140.49Z" fill="#8E7662"/>
<path d="M249.73 136.6H245.03V140.49H249.73V136.6Z" fill="#424A4A"/>
<path d="M132.17 136.6H127.47V140.49H132.17V136.6Z" fill="#384040"/>
<path d="M118.06 136.6H113.36V140.49H118.06V136.6Z" fill="#1A2120"/>
<path d="M94.5496 136.6H89.8496V140.49H94.5496V136.6Z" fill="#5B5A54"/>
<path d="M14.6199 136.6H9.91992V140.49H14.6199V136.6Z" fill="#806B59"/>
<path d="M179.19 132.72H174.49V136.6H179.19V132.72Z" fill="#443825"/>
<path d="M174.49 132.72H169.79V136.6H174.49V132.72Z" fill="#554330"/>
<path d="M179.19 128.83H174.49V132.72H179.19V128.83Z" fill="#443825"/>
<path d="M174.49 128.83H169.79V132.72H174.49V128.83Z" fill="#554330"/>
<path d="M179.19 124.95H174.49V128.84H179.19V124.95Z" fill="#443825"/>
<path d="M174.49 124.95H169.79V128.84H174.49V124.95Z" fill="#554330"/>
<path d="M179.19 121.06H174.49V124.94H179.19V121.06Z" fill="#443825"/>
<path d="M174.49 121.06H169.79V124.94H174.49V121.06Z" fill="#554330"/>
<path d="M179.19 117.17H174.49V121.06H179.19V117.17Z" fill="#443825"/>
<path d="M174.49 117.17H169.79V121.06H174.49V117.17Z" fill="#554330"/>
<path d="M202.7 253.18V249.29H198V245.41H193.3H188.6H183.9H179.2H174.49H169.79V249.29H174.49V253.18H169.79V257.07V260.95V264.84V268.72V272.61V276.5V280.38V284.27V288.16V292.04V295.93V299.81V303.7V307.58H174.49H179.2H183.9H188.6H193.3H198H202.7H207.41V303.7V299.81V295.93V292.04V288.16V284.27V280.38V276.5V272.61V268.72V264.84V260.95V257.07H202.7V253.18Z" fill="#3C301D"/>
<path d="M329.66 237.64H324.96V241.52V245.41V249.29V253.18V257.07V260.95V264.84V268.72V272.61H329.66H334.37H339.07V268.72V264.84V260.95V257.07V253.18V249.29V245.41V241.52V237.64H334.37H329.66Z" fill="#3C301D"/>
<path d="M169.79 206.55V202.66V198.78V194.89V191.01V187.12V183.24H165.09H160.38H155.68V187.12V191.01V194.89V198.78V202.66V206.55V210.44H160.38H165.09H169.79V206.55Z" fill="#3C301D"/>
<path d="M66.3398 202.66V206.55V210.44V214.32V218.21V222.09V225.98H71.0398V222.09V218.21V214.32V210.44V206.55V202.66V198.78H66.3398V202.66Z" fill="#3C301D"/>
<path d="M47.5298 198.78V202.66V206.55V210.44V214.32V218.21V222.09V225.98H52.2297H56.9398V222.09V218.21V214.32V210.44V206.55V202.66V198.78H52.2297H47.5298Z" fill="#3C301D"/>
<path d="M28.7197 198.78V202.66V206.55V210.44V214.32V218.21V222.09V225.98H33.4197H38.1298V222.09V218.21V214.32V210.44V206.55V202.66V198.78H33.4197H28.7197Z" fill="#3C301D"/>
<path d="M296.75 194.89H292.05V198.78V202.66V206.55V210.44V214.32V218.21V222.09V225.98H296.75H301.45H306.16V222.09V218.21V214.32V210.44V206.55V202.66V198.78V194.89H301.45H296.75Z" fill="#3C301D"/>
<path d="M230.92 183.24V187.12V191.01V194.89V198.78V202.66V206.55V210.44H235.62H240.32V206.55V202.66V198.78V194.89V191.01V187.12V183.24H235.62H230.92Z" fill="#3C301D"/>
<path d="M198 183.24H193.3V187.12V191.01V194.89V198.78V202.66V206.55V210.44H198H202.7H207.41V206.55V202.66V198.78V194.89V191.01V187.12V183.24H202.7H198Z" fill="#3C301D"/>
<path d="M122.77 183.24V187.12V191.01V194.89V198.78V202.66V206.55V210.44H127.469H132.17V206.55V202.66V198.78V194.89V191.01V187.12V183.24H127.469H122.77Z" fill="#3C301D"/>
<path d="M66.3398 167.69V171.58V175.46V179.35V183.24V187.12H71.0398V183.24V179.35V175.46V171.58V167.69V163.81H66.3398V167.69Z" fill="#3C301D"/>
<path d="M47.5298 163.81V167.69V171.58V175.46V179.35V183.24V187.12H52.2297H56.9398V183.24V179.35V175.46V171.58V167.69V163.81H52.2297H47.5298Z" fill="#3C301D"/>
<path d="M28.7197 163.81V167.69V171.58V175.46V179.35V183.24V187.12H33.4197H38.1298V183.24V179.35V175.46V171.58V167.69V163.81H33.4197H28.7197Z" fill="#3C301D"/>
<path d="M193.3 132.72V128.83V124.95V121.06V117.17H188.6V121.06V124.95V128.83V132.72V136.6H193.3V132.72Z" fill="#3C301D"/>
<path d="M160.38 132.72V128.83V124.95V121.06V117.17H155.68V121.06V124.95V128.83V132.72V136.6H160.38V132.72Z" fill="#3C301D"/>
<path d="M334.37 117.17H329.66H324.96V121.06V124.95V128.83V132.72V136.6V140.49V144.37V148.26V152.15H329.66H334.37H339.07V148.26V144.37V140.49V136.6V132.72V128.83V124.95V121.06V117.17H334.37Z" fill="#3C301D"/>
<path d="M207.41 121.06V124.95V128.83V132.72V136.6H212.11V132.72V128.83V124.95V121.06V117.17H207.41V121.06Z" fill="#3C301D"/>
<path d="M56.9398 148.26H24.0298V288.16H66.3497V148.26H56.9398ZM56.9398 167.69V191.01H47.5397V163.81H56.9398V167.7V167.69ZM56.9398 202.66V225.98H47.5397V198.78H56.9398V202.67V202.66ZM28.7297 187.12V163.81H38.1398V191.01H28.7297V187.12ZM28.7297 222.09V198.77H38.1398V225.97H28.7297V222.08V222.09Z" fill="#B68768"/>
<path d="M61.6397 113.29H56.9397H52.2297H47.5297H42.8297H38.1297H33.4197H28.7197H24.0197H19.3197H14.6197H9.90967V117.17V121.06V124.95V128.83H14.6197H19.3197H24.0197H28.7197H33.4197H38.1297H42.8297H47.5297H52.2297H56.9397H61.6397H66.3397V124.95V121.06V117.17V113.29H61.6397Z" fill="#B68768"/>
<path d="M99.2596 105.52H94.5596V109.41H99.2596V105.52Z" fill="#262526"/>
<path d="M9.90991 105.52H5.20996V109.41H9.90991V105.52Z" fill="#231F20"/>
<path d="M5.20978 105.52H0.509766V109.41H5.20978V105.52Z" fill="#231F20"/>
<path d="M216.81 101.63H212.11V105.52H216.81V101.63Z" fill="#917560"/>
<path d="M212.11 101.63H207.41V105.52H212.11V101.63Z" fill="#917560"/>
<path d="M207.4 101.63H202.7V105.52H207.4V101.63Z" fill="#917560"/>
<path d="M202.7 101.63H198V105.52H202.7V101.63Z" fill="#917560"/>
<path d="M198 101.63H193.3V105.52H198V101.63Z" fill="#917560"/>
<path d="M193.3 101.63H188.6V105.52H193.3V101.63Z" fill="#917560"/>
<path d="M188.6 101.63H183.9V105.52H188.6V101.63Z" fill="#917560"/>
<path d="M183.9 101.63H179.2V105.52H183.9V101.63Z" fill="#917560"/>
<path d="M179.19 101.63H174.49V105.52H179.19V101.63Z" fill="#917560"/>
<path d="M174.49 101.63H169.79V105.52H174.49V101.63Z" fill="#917560"/>
<path d="M169.79 101.63H165.09V105.52H169.79V101.63Z" fill="#917560"/>
<path d="M165.08 101.63H160.38V105.52H165.08V101.63Z" fill="#917560"/>
<path d="M160.38 101.63H155.68V105.52H160.38V101.63Z" fill="#917560"/>
<path d="M155.68 101.63H150.979V105.52H155.68V101.63Z" fill="#917560"/>
<path d="M150.98 101.63H146.28V105.52H150.98V101.63Z" fill="#876E5A"/>
<path d="M146.28 97.7401H141.58V101.62H146.28V97.7401Z" fill="#262527"/>
<path d="M94.5496 97.7401H89.8496V101.62H94.5496V97.7401Z" fill="#242123"/>
<path d="M14.6199 97.7401H9.91992V101.62H14.6199V97.7401Z" fill="#231F20"/>
<path d="M19.3196 93.8601H14.6196V97.7501H19.3196V93.8601Z" fill="#A95937"/>
<path d="M277.94 89.9701H273.24V93.8601H277.94V89.9701Z" fill="#6B7377"/>
<path d="M89.8499 89.9701H85.1499V93.8601H89.8499V89.9701Z" fill="#231F20"/>
<path d="M85.1497 89.9701H80.4497V93.8601H85.1497V89.9701Z" fill="#AD5837"/>
<path d="M80.4398 89.9701H75.7397V93.8601H80.4398V89.9701Z" fill="#CC5631"/>
<path d="M367.28 86.0901H362.58V89.9701H367.28V86.0901Z" fill="#6D7579"/>
<path d="M52.2297 86.0901H47.5298V89.9701H52.2297V86.0901Z" fill="#D55830"/>
<path d="M24.0198 86.0901H19.3198V89.9701H24.0198V86.0901Z" fill="#262527"/>
<path d="M207.4 249.29H202.7V253.18H207.4V249.29Z" fill="#735A45"/>
<path d="M169.79 245.41H165.09V249.29H169.79V245.41Z" fill="#735A45"/>
<path d="M71.0398 187.12H66.3398V191.01H71.0398V187.12Z" fill="#735A45"/>
<path d="M47.5298 187.12V191.01H52.2297H56.9398V187.12H52.2297H47.5298Z" fill="#735A45"/>
<path d="M28.7197 187.12V191.01H33.4197H38.1298V187.12H33.4197H28.7197Z" fill="#735A45"/>
<path d="M254.43 163.81H113.36V194.9H118.06V179.35H132.17V214.32H150.98V222.09H155.68V214.32H174.49V225.98H179.19V218.21H183.89V214.32H198V225.98H207.41V214.32H226.22V225.98H230.92V218.21H235.62V214.32H249.73V225.98H254.43V218.21H259.13V214.32H263.83V163.8H254.43V163.81ZM165.09 210.44H155.69V179.35H169.8V210.44H165.1H165.09ZM202.71 210.44H193.31V179.35H207.42V210.44H202.72H202.71ZM240.33 210.44H230.93V179.35H245.04V210.44H240.34H240.33Z" fill="#735A45"/>
<path d="M320.26 117.17V121.06V124.95V128.83V132.72V136.6V140.49V144.37V148.26V152.15H324.96V148.26V144.37V140.49V136.6V132.72V128.83V124.95V121.06V117.17H320.26Z" fill="#735A45"/>
<path d="M277.94 82.2001H273.24V86.0901H277.94V82.2001Z" fill="#735A45"/>
<path d="M212.11 82.2001H207.41V86.0901H212.11V82.2001Z" fill="#242224"/>
<path d="M207.4 82.2001H202.7V86.0901H207.4V82.2001Z" fill="#242224"/>
<path d="M193.3 82.2001H188.6V86.0901H193.3V82.2001Z" fill="#242224"/>
<path d="M188.6 82.2001H183.9V86.0901H188.6V82.2001Z" fill="#242224"/>
<path d="M179.19 82.2001H174.49V86.0901H179.19V82.2001Z" fill="#242224"/>
<path d="M174.49 82.2001H169.79V86.0901H174.49V82.2001Z" fill="#242224"/>
<path d="M160.38 82.2001H155.68V86.0901H160.38V82.2001Z" fill="#242224"/>
<path d="M155.68 82.2001H150.979V86.0901H155.68V82.2001Z" fill="#242224"/>
<path d="M80.4398 82.2001H75.7397V86.0901H80.4398V82.2001Z" fill="#D26C41"/>
<path d="M367.28 78.3201H362.58V82.2001H367.28V78.3201Z" fill="#836B57"/>
<path d="M273.24 78.3201H268.54V82.2001H273.24V78.3201Z" fill="#4D4E48"/>
<path d="M202.7 78.3201H198V82.2001H202.7V78.3201Z" fill="#7C6754"/>
<path d="M193.3 78.3201H188.6V82.2001H193.3V78.3201Z" fill="#242224"/>
<path d="M179.19 78.3201H174.49V82.2001H179.19V78.3201Z" fill="#242224"/>
<path d="M174.49 78.3201H169.79V82.2001H174.49V78.3201Z" fill="#1A1F1F"/>
<path d="M28.7195 78.3201H24.0195V82.2001H28.7195V78.3201Z" fill="#242123"/>
<path d="M207.4 74.4301H202.7V78.3201H207.4V74.4301Z" fill="#202323"/>
<path d="M193.3 74.4301H188.6V78.3201H193.3V74.4301Z" fill="#43403A"/>
<path d="M174.49 74.4301H169.79V78.3201H174.49V74.4301Z" fill="#925C42"/>
<path d="M33.4197 74.4301H28.7197V78.3201H33.4197V74.4301Z" fill="#BB4F32"/>
<path d="M155.68 229.87H150.979V233.75H155.68V229.87Z" fill="#927158"/>
<path d="M99.2596 229.87H94.5596V233.75H99.2596V229.87Z" fill="#927158"/>
<path d="M198 148.26H193.3H188.6H183.9H179.2H174.49V144.37H169.79H165.09V140.49H160.38H155.68V144.37V148.26V152.15V156.04H160.38H165.09H169.79H174.49H179.2H183.9H188.6H193.3H198H202.7H207.41V152.15V148.26H202.7H198Z" fill="#927158"/>
<path d="M230.92 144.37H226.22V148.26H230.92V144.37Z" fill="#927158"/>
<path d="M155.68 136.6V132.72V128.83H150.98V124.95V121.06V117.17V113.29V109.4V105.52H146.28V109.4V113.29V117.17V121.06V124.95V128.83V132.72V136.6H150.98H155.68Z" fill="#927158"/>
<path d="M14.6097 132.72H9.90967V136.6H14.6097V132.72Z" fill="#927158"/>
<path d="M367.28 70.54H362.58H357.88H353.18V74.43H357.88H362.58H367.28H371.98V70.54H367.28Z" fill="#927158"/>
<path d="M198 70.54H193.3V74.43H198V70.54Z" fill="#D7592F"/>
<path d="M188.6 70.54H183.9V74.43H188.6V70.54Z" fill="#D25830"/>
<path d="M71.0398 70.54H66.3398V74.43H71.0398V70.54Z" fill="#E86032"/>
<path d="M38.1199 70.54H33.4199V74.43H38.1199V70.54Z" fill="#AE5837"/>
<path d="M212.11 62.77H207.41V66.65H212.11V62.77Z" fill="#252526"/>
<path d="M160.38 62.77H155.68V66.65H160.38V62.77Z" fill="#242123"/>
<path d="M66.3397 62.77H61.6396V66.65H66.3397V62.77Z" fill="#E86032"/>
<path d="M42.8299 62.77H38.1299V66.65H42.8299V62.77Z" fill="#D36B41"/>
<path d="M216.81 97.7401H212.11H207.41H202.7H198H193.3H188.6H183.9H179.2H174.49H169.79H165.09H160.38H155.68H150.98H146.28V101.63H150.98H155.68H160.38H165.09H169.79H174.49H179.2H183.9H188.6H193.3H198H202.7H207.41H212.11H216.81H221.51V97.7401H216.81Z" fill="#242526"/>
<path d="M207.4 58.8901H202.7V62.7801H207.4V58.8901Z" fill="#242526"/>
<path d="M174.49 58.8901H169.79V62.7801H174.49V58.8901Z" fill="#DB5B2F"/>
<path d="M165.08 58.8901H160.38V62.7801H165.08V58.8901Z" fill="#A75A38"/>
<path d="M61.64 58.8901H56.9399V62.7801H61.64V58.8901Z" fill="#D8693D"/>
<path d="M89.8499 97.7402H85.15V93.8602H80.45H75.7399H71.0399H66.34H61.64H56.9399V89.9702H52.2299H47.53V86.0902H42.83V82.2002V78.3202H38.1299V74.4302H33.4199V78.3202H28.7199V82.2002H24.02V86.0902V89.9702H19.3199V93.8602V97.7402H14.6199V101.63H9.91992V105.52V109.4H14.6199H19.3199H24.02H28.7199H33.4199H38.1299H42.83H47.53H52.2299H56.9399H61.64H66.34H71.0399H75.7399H80.45H85.15H89.8499H94.5499V105.52V101.63H89.8499V97.7402Z" fill="#BB4F32"/>
<path d="M207.41 70.5402H202.7H198V74.4301H202.7H207.41H212.11V70.5402H207.41Z" fill="#BB4F32"/>
<path d="M179.2 66.6501H174.49V62.7701H169.79V58.8901V55.0001H165.09V58.8901V62.7701H160.38V66.6501H155.68V70.5401V74.4301H160.38H165.09H169.79H174.49H179.2H183.9V70.5401H179.2V66.6501Z" fill="#BB4F32"/>
<path d="M165.08 55.0001H160.38V58.8901H165.08V55.0001Z" fill="#242123"/>
<path d="M198 51.1101H193.3V55.0001H198V51.1101Z" fill="#D36C41"/>
<path d="M169.79 51.1101H165.09V55.0001H169.79V51.1101Z" fill="#1A1F1F"/>
<path d="M52.2297 51.1101H47.5298V55.0001H52.2297V51.1101Z" fill="#E86032"/>
<path d="M47.5296 51.1101H42.8296V55.0001H47.5296V51.1101Z" fill="#242123"/>
<path d="M169.79 47.2301H165.09V51.1201H169.79V47.2301Z" fill="#19201F"/>
<path d="M362.58 43.3401H357.88V47.2201H362.58V43.3401Z" fill="#1D2121"/>
<path d="M292.04 43.3401H287.34V47.2201H292.04V43.3401Z" fill="#997860"/>
<path d="M193.3 43.3401H188.6V47.2201H193.3V43.3401Z" fill="#BF6F4C"/>
<path d="M174.49 43.3401H169.79V47.2201H174.49V43.3401Z" fill="#262526"/>
<path d="M362.58 39.4501H357.88V43.3401H362.58V39.4501Z" fill="#1D2121"/>
<path d="M292.04 39.4501H287.34V43.3401H292.04V39.4501Z" fill="#997860"/>
<path d="M174.49 39.4501H169.79V43.3401H174.49V39.4501Z" fill="#333A3A"/>
<path d="M75.7395 148.26H71.0395H66.3395V152.15V156.04V159.92V163.81H71.0395V167.69V171.58V175.46V179.35V183.24V187.12V191.01H66.3395V194.89V198.78H71.0395V202.66V206.55V210.44V214.32V218.21V222.09V225.98H66.3395V229.87V233.75V237.64V241.52V245.41V249.29V253.18V257.07V260.95V264.84V268.72V272.61V276.5V280.38V284.27V288.16H61.6395H56.9395H52.2295H47.5295H42.8295H38.1295H33.4195H28.7195H24.0195V292.04V295.93V299.81V303.7V307.58H28.7195H33.4195H38.1295H42.8295H47.5295H52.2295H56.9395H61.6395H66.3395H71.0395H75.7395H80.4495H85.1495V303.7V299.81V295.93V292.04V288.16V284.27V280.38V276.5V272.61V268.72V264.84V260.95V257.07V253.18V249.29V245.41V241.52V237.64V233.75V229.87V225.98V222.09V218.21V214.32V210.44V206.55V202.66V198.78V194.89V191.01V187.12V183.24V179.35V175.46V171.58V167.69V163.81V159.92V156.04V152.15V148.26H80.4495H75.7395Z" fill="#B58C72"/>
<path d="M263.83 144.37V148.26H259.13H254.43V152.15V156.04H259.13H263.83H268.54V152.15V148.26V144.37V140.49H263.83V144.37Z" fill="#B58C72"/>
<path d="M146.28 144.37V148.26H141.58V152.15V156.04H146.28H150.98V152.15V148.26V144.37V140.49H146.28V144.37Z" fill="#B58C72"/>
<path d="M89.8493 113.29H85.1494H80.4493H75.7393H71.0393H66.3394V117.17V121.06V124.95V128.83V132.72H71.0393H75.7393H80.4493H85.1494H89.8493H94.5493H99.2593V128.83V124.95V121.06V117.17V113.29H94.5493H89.8493Z" fill="#B58C72"/>
<path d="M348.47 93.8601H343.77H339.07H334.37V97.7401V101.63V105.52V109.4V113.29V117.17H339.07V121.06V124.95V128.83V132.72V136.6V140.49V144.37V148.26V152.15H334.37V156.04V159.92V163.81V167.69V171.58V175.46V179.35V183.24V187.12V191.01V194.89V198.78V202.66V206.55V210.44V214.32V218.21V222.09V225.98V229.87V233.75V237.64H339.07V241.52V245.41V249.29V253.18V257.07V260.95V264.84V268.72V272.61H334.37V276.5V280.38V284.27V288.16V292.04V295.93V299.81V303.7V307.58H339.07H343.77H348.47H353.18H357.88V303.7V299.81V295.93V292.04V288.16V284.27V280.38V276.5V272.61V268.72V264.84V260.95V257.07V253.18V249.29V245.41V241.52V237.64V233.75V229.87V225.98V222.09V218.21V214.32V210.44V206.55V202.66V198.78V194.89V191.01V187.12V183.24V179.35V175.46V171.58V167.69V163.81V159.92V156.04V152.15V148.26V144.37V140.49V136.6V132.72V128.83V124.95V121.06V117.17V113.29V109.4V105.52V101.63V97.7401V93.8601H353.18H348.47Z" fill="#B58C72"/>
<path d="M367.28 35.5701H362.58V39.4501V43.3401V47.2301H357.88H353.18V51.11V55.0001V58.8901V62.7701V66.6501V70.5401H357.88H362.58H367.28H371.98V66.6501V62.7701V58.8901V55.0001V51.11V47.2301V43.3401V39.4501V35.5701H367.28Z" fill="#B58C72"/>
<path d="M362.58 35.5701H357.88V39.4601H362.58V35.5701Z" fill="#1D2121"/>
<path d="M146.28 233.75V229.87V225.98V222.09H141.58H136.88V225.98V229.87H132.17V233.75H127.47H122.77V229.87H118.07V225.98V222.09H113.36H108.66V225.98V229.87V233.75H103.96H99.2598H94.5498V237.64V241.52V245.41V249.29V253.18V257.07V260.95V264.84V268.72V272.61V276.5V280.38V284.27V288.16V292.04V295.93H99.2598H103.96H108.66H113.36H118.07H122.77H127.47H132.17H136.88H141.58H146.28H150.98H155.68V292.04V288.16V284.27V280.38V276.5V272.61V268.72V264.84V260.95V257.07V253.18V249.29V245.41V241.52V237.64V233.75H150.98H146.28Z" fill="#A0795C"/>
<path d="M273.24 229.87V225.98V222.09H268.54H263.83H259.13V225.98V229.87V233.75H254.43H249.73V229.87H245.03V225.98V222.09H240.32H235.62V225.98V229.87V233.75H230.92H226.22H221.51V229.87V225.98V222.09H216.81H212.11V225.98V229.87V233.75V237.64V241.52V245.41V249.29V253.18V257.07V260.95V264.84V268.72V272.61V276.5V280.38V284.27V288.16V292.04V295.93H216.81H221.51H226.22H230.92H235.62H240.32H245.03H249.73H254.43H259.13H263.83H268.54H273.24H277.94V292.04V288.16V284.27V280.38V276.5V272.61V268.72V264.84V260.95V257.07V253.18V249.29V245.41V241.52V237.64V233.75H273.24V229.87Z" fill="#A0795C"/>
<path d="M183.9 222.09V225.98V229.87H188.6H193.3V225.98V222.09H188.6H183.9Z" fill="#A0795C"/>
<path d="M160.38 222.09V225.98V229.87H165.09H169.79V225.98V222.09H165.09H160.38Z" fill="#A0795C"/>
<path d="M108.66 156.04H113.36H118.07H122.77H127.47H132.17H136.88H141.58V152.15V148.26H136.88H132.17H127.47H122.77H118.07H113.36V144.37V140.49H108.66V144.37V148.26H103.96H99.2598V152.15V156.04H103.96H108.66Z" fill="#A0795C"/>
<path d="M216.81 152.15V156.04H221.51H226.22H230.92H235.62H240.32H245.03H249.73H254.43V152.15V148.26V144.37V140.49H249.73V144.37V148.26H245.03H240.32H235.62H230.92H226.22H221.51H216.81V152.15Z" fill="#A0795C"/>
<path d="M94.5499 132.72H89.8499H85.15H80.45H75.7399H71.0399H66.34V128.83H61.64H56.9399H52.2299H47.53H42.83H38.1299H33.4199H28.7199H24.02H19.3199H14.6199H9.91992V132.72H14.6199V136.6V140.49H19.3199V144.37H24.02V148.26H28.7199H33.4199H38.1299H42.83H47.53H52.2299H56.9399H61.64H66.34H71.0399H75.7399H80.45H85.15V144.37V140.49H89.8499V136.6H94.5499V132.72Z" fill="#A0795C"/>
<path d="M212.11 121.06V136.6H216.81V105.51H150.98V128.82H155.68V117.16H160.38V140.48H165.08V144.37H174.49V148.26H207.4V117.17H212.1V121.06H212.11ZM188.6 136.6V117.17H193.3V140.49H188.6V136.6ZM169.79 140.49V117.17H179.2V140.49H169.79Z" fill="#A0795C"/>
<path d="M324.96 93.8601H320.26H315.56H310.86H306.16H301.45H296.75H292.05V97.7401V101.63V105.52V109.4V113.29V117.17V121.06V124.95V128.83V132.72V136.6V140.49V144.37V148.26V152.15V156.04V159.92V163.81V167.69V171.58V175.46V179.35V183.24V187.12V191.01H296.75H301.45H306.16V194.89V198.78V202.66V206.55V210.44V214.32V218.21H310.86V222.09H315.56H320.26H324.96H329.66H334.37V218.21V214.32V210.44V206.55V202.66V198.78V194.89V191.01V187.12V183.24V179.35V175.46V171.58V167.69V163.81V159.92V156.04V152.15H329.66H324.96H320.26V148.26V144.37V140.49V136.6V132.72V128.83V124.95V121.06V117.17H324.96H329.66H334.37V113.29V109.4V105.52V101.63V97.7401V93.8601H329.66H324.96Z" fill="#A0795C"/>
<path d="M348.47 47.2301V43.3401V39.4501V35.5701H343.77H339.07V39.4501V43.3401V47.2301H334.37H329.66H324.96V43.3401V39.4501V35.5701H320.26H315.56V39.4501V43.3401V47.2301H310.86H306.16H301.45V43.3401V39.4501V35.5701H296.75H292.05V39.4501V43.3401V47.2301H287.34H282.64H277.94V43.3401H273.24V47.2301V51.11V55.0001V58.8901V62.7701V66.6501V70.5401H277.94H282.64H287.34H292.05H296.75H301.45H306.16H310.86H315.56H320.26H324.96H329.66H334.37H339.07H343.77H348.47H353.18V66.6501V62.7701V58.8901V55.0001V51.11V47.2301H348.47Z" fill="#A0795C"/>
<path d="M292.04 35.5701H287.34V39.4601H292.04V35.5701Z" fill="#997860"/>
<path d="M268.54 295.93H263.83H259.13H254.43H249.73H245.03H240.32H235.62H230.92H226.22H221.51H216.81H212.11V292.04V288.16V284.27V280.38V276.5V272.61V268.72V264.84V260.95V257.07V253.18V249.29V245.41V241.52V237.64V233.75V229.87H207.41H202.7H198H193.3H188.6H183.9H179.2H174.49H169.79H165.09H160.38H155.68V233.75V237.64V241.52V245.41V249.29V253.18V257.07V260.95V264.84V268.72V272.61V276.5V280.38V284.27V288.16V292.04V295.93H150.98H146.28H141.58H136.88H132.17H127.47H122.77H118.07H113.36H108.66H103.96H99.2601H94.5501V292.04V288.16V284.27V280.38V276.5V272.61V268.72V264.84V260.95V257.07V253.18V249.29V245.41V241.52V237.64V233.75V229.87V225.98V222.09H89.8501V225.98V229.87V233.75V237.64V241.52V245.41V249.29V253.18V257.07V260.95V264.84V268.72V272.61V276.5V280.38V284.27V288.16V292.04V295.93V299.81V303.7V307.58H94.5501H99.2601H103.96H108.66H113.36H118.07H122.77H127.47H132.17H136.88H141.58H146.28H150.98H155.68H160.38V303.7V299.81V295.93V292.04V288.16V284.27V280.38V276.5V272.61V268.72V264.84V260.95V257.07V253.18V249.29H165.09V245.41H169.79H174.49H179.2H183.9H188.6H193.3H198V249.29H202.7H207.41V253.18V257.07V260.95V264.84V268.72V272.61V276.5V280.38V284.27V288.16V292.04V295.93V299.81V303.7V307.58H212.11H216.81H221.51H226.22H230.92H235.62H240.32H245.03H249.73H254.43H259.13H263.83H268.54H273.24H277.94V303.7V299.81V295.93H273.24H268.54Z" fill="#7F644C"/>
<path d="M19.3198 148.26V152.15V156.04V159.92V163.81V167.69V171.58V175.46V179.35V183.24V187.12V191.01V194.89V198.78V202.66V206.55V210.44V214.32V218.21V222.09V225.98V229.87V233.75V237.64V241.52V245.41V249.29V253.18V257.07V260.95V264.84V268.72V272.61V276.5V280.38V284.27V288.16V292.04V295.93V299.81V303.7V307.58H24.0198V303.7V299.81V295.93V292.04V288.16V284.27V280.38V276.5V272.61V268.72V264.84V260.95V257.07V253.18V249.29V245.41V241.52V237.64V233.75V229.87V225.98V222.09V218.21V214.32V210.44V206.55V202.66V198.78V194.89V191.01V187.12V183.24V179.35V175.46V171.58V167.69V163.81V159.92V156.04V152.15V148.26V144.37H19.3198V148.26Z" fill="#7F644C"/>
<path d="M212.11 144.37V148.26V152.15V156.04H216.81V152.15V148.26V144.37V140.49H212.11V144.37Z" fill="#7F644C"/>
<path d="M19.3201 140.49H14.6201V144.38H19.3201V140.49Z" fill="#7F644C"/>
<path d="M193.3 136.6H188.6V140.49H193.3V136.6Z" fill="#7F644C"/>
<path d="M169.79 136.6V140.49H174.49H179.2V136.6H174.49H169.79Z" fill="#7F644C"/>
<path d="M160.38 136.6H155.68V140.49H160.38V136.6Z" fill="#7F644C"/>
<path d="M5.20996 117.17V121.06V124.95V128.83V132.72H9.91992V128.83V124.95V121.06V117.17V113.29H5.20996V117.17Z" fill="#7F644C"/>
<path d="M155.68 97.7401H160.38H165.09H169.79H174.49H179.2H183.9H188.6H193.3H198H202.7H207.41H212.11H216.81H221.51V93.86V89.9701V86.0901V82.2001V78.3201H216.81H212.11V82.2001V86.0901H207.41H202.7V82.2001H198V78.3201H193.3V82.2001V86.0901H188.6H183.9V82.2001V78.3201H179.2V82.2001V86.0901H174.49H169.79V82.2001V78.3201H165.09H160.38V82.2001V86.0901H155.68H150.98V82.2001V78.3201H146.28V82.2001V86.0901V89.9701V93.86V97.7401H150.98H155.68Z" fill="#7F644C"/>
<path d="M367.28 74.4301H362.58H357.88H353.18V70.5401H348.47H343.77H339.07H334.37H329.66H324.96H320.26H315.56H310.86H306.16H301.45H296.75H292.05H287.34H282.64H277.94H273.24V66.6501V62.7701V58.8901V55.0001V51.11V47.2301V43.3401V39.4501V35.5701H268.54H263.83V39.4501V43.3401V47.2301V51.11V55.0001V58.8901V62.7701V66.6501V70.5401V74.4301H268.54V78.3201H273.24V82.2001H277.94V86.0901V89.9701V93.86H282.64V97.7401V101.63V105.52V109.4V113.29V117.17V121.06V124.95V128.83V132.72V136.6V140.49V144.37V148.26V152.15V156.04V159.92V163.81V167.69V171.58V175.46V179.35V183.24V187.12V191.01V194.89V198.78V202.66V206.55V210.44V214.32V218.21V222.09V225.98V229.87V233.75V237.64V241.52V245.41V249.29V253.18V257.07V260.95V264.84V268.72V272.61V276.5V280.38V284.27V288.16V292.04V295.93V299.81V303.7V307.58H287.34H292.05H296.75H301.45H306.16H310.86H315.56H320.26H324.96H329.66H334.37V303.7V299.81V295.93V292.04V288.16V284.27V280.38V276.5V272.61H329.66H324.96H320.26V268.72V264.84V260.95V257.07V253.18V249.29V245.41V241.52V237.64H324.96H329.66H334.37V233.75V229.87V225.98V222.09H329.66H324.96H320.26H315.56H310.86V218.21H306.16V222.09V225.98V229.87H301.45H296.75H292.05V225.98V222.09V218.21V214.32V210.44V206.55V202.66V198.78V194.89V191.01V187.12V183.24V179.35V175.46V171.58V167.69V163.81V159.92V156.04V152.15V148.26V144.37V140.49V136.6V132.72V128.83V124.95V121.06V117.17V113.29V109.4V105.52V101.63V97.7401V93.86H296.75H301.45H306.16H310.86H315.56H320.26H324.96H329.66H334.37H339.07H343.77H348.47H353.18H357.88V89.9701V86.0901H362.58V82.2001V78.3201H367.28H371.98V74.4301H367.28Z" fill="#7F644C"/>
<path d="M183.9 35.5701H179.2V39.4601H183.9V35.5701Z" fill="#CE6D44"/>
<path d="M89.8499 35.5701H85.1499V39.4601H89.8499V35.5701Z" fill="#1B2320"/>
<path d="M371.98 31.6801H367.28V35.5701H371.98V31.6801Z" fill="#474C48"/>
<path d="M367.28 31.6801H362.58V35.5701H367.28V31.6801Z" fill="#474C48"/>
<path d="M362.58 31.6801H357.88V35.5701H362.58V31.6801Z" fill="#232022"/>
<path d="M348.469 31.6801H343.77V35.5701H348.469V31.6801Z" fill="#424543"/>
<path d="M343.77 31.6801H339.07V35.5701H343.77V31.6801Z" fill="#424543"/>
<path d="M324.96 31.6801H320.26V35.5701H324.96V31.6801Z" fill="#424543"/>
<path d="M320.26 31.6801H315.56V35.5701H320.26V31.6801Z" fill="#424543"/>
<path d="M301.45 31.6801H296.75V35.5701H301.45V31.6801Z" fill="#424543"/>
<path d="M296.75 31.6801H292.05V35.5701H296.75V31.6801Z" fill="#424543"/>
<path d="M56.9295 27.8H52.2295V31.6801H56.9295V27.8Z" fill="#2F3230"/>
<path d="M56.9295 23.9102H52.2295V27.8001H56.9295V23.9102Z" fill="#2F3230"/>
<path d="M56.9295 20.03H52.2295V23.92H56.9295V20.03Z" fill="#2F3230"/>
<path d="M56.9295 16.1401H52.2295V20.0301H56.9295V16.1401Z" fill="#2F3230"/>
<path d="M99.2596 12.2501H94.5596V16.1401H99.2596V12.2501Z" fill="#575149"/>
<path d="M56.9295 12.2501H52.2295V16.1401H56.9295V12.2501Z" fill="#2F3230"/>
<path d="M56.9295 8.37012H52.2295V12.2601H56.9295V8.37012Z" fill="#2F3230"/>
<path d="M75.7399 82.2001V78.3201H71.0399V74.4301H66.3399V70.5401V66.6501H61.6399V62.7701H56.9399V58.8901V55.0001H52.2299H47.5299V58.8901H42.8299V62.7701V66.6501H38.1299V70.5401V74.4301V78.3201H42.8299V82.2001V86.0901H47.5299H52.2299V89.9701H56.9399V93.8601H61.6399H66.3399H71.0399H75.7399V89.9701H80.4499V86.0901H75.7399V82.2001Z" fill="#E86032"/>
<path d="M202.7 62.7701V58.8901H198V55.0001H193.3V51.11V47.2301H188.6V43.3401V39.4501H183.9H179.2V43.3401H174.49V47.2301H169.79V51.11V55.0001V58.8901H174.49V62.7701V66.6501H179.2V70.5401H183.9H188.6V74.4301H193.3V70.5401H198H202.7H207.41V66.6501V62.7701H202.7Z" fill="#E86032"/>
<path d="M127.47 35.5701V31.6801H122.77V27.8001H118.07H113.36V23.9101H108.66V20.0301H103.96H99.2599V16.1401H94.5499V12.2501H89.8499V8.37009H85.15H80.45V4.4801H75.7399H71.0399H66.34H61.64H56.9399V8.37009V12.2501V16.1401V20.0301V23.9101V27.8001V31.6801H61.64H66.34H71.0399H75.7399H80.45V35.5701H85.15H89.8499H94.5499V39.4501H99.2599H103.96H108.66H113.36H118.07H122.77H127.47H132.17H136.88V35.5701H132.17H127.47Z" fill="#E86032"/>
<path d="M56.9295 4.4801H52.2295V8.37009H56.9295V4.4801Z" fill="#2F3230"/>
<path d="M348.47 307.58H343.77H339.07H334.37H329.66H324.96H320.26H315.56H310.86H306.16H301.45H296.75H292.05H287.34H282.64V303.7V299.81V295.93V292.04V288.16V284.27V280.38V276.5V272.61V268.72V264.84V260.95V257.07V253.18V249.29V245.41V241.52V237.64V233.75V229.87V225.98V222.09V218.21V214.32V210.44V206.55V202.66V198.78V194.89V191.01V187.12V183.24V179.35V175.46V171.58V167.69V163.81V159.92V156.04V152.15V148.26V144.37V140.49V136.6V132.72V128.83V124.95V121.06V117.17V113.29V109.4V105.52V101.63V97.7401V93.8601H277.94V97.7401V101.63V105.52V109.4V113.29V117.17V121.06V124.95V128.83V132.72V136.6V140.49V144.37V148.26V152.15V156.04V159.92V163.81V167.69V171.58V175.46V179.35V183.24V187.12V191.01V194.89V198.78V202.66V206.55V210.44V214.32V218.21H273.24H268.54V214.32V210.44V206.55V202.66V198.78V194.89V191.01V187.12V183.24V179.35V175.46V171.58V167.69V163.81V159.92H273.24V156.04V152.15V148.26V144.37V140.49V136.6H268.54H263.83H259.13H254.43H249.73V140.49H254.43V144.37V148.26H259.13H263.83V144.37V140.49H268.54V144.37V148.26V152.15V156.04H263.83H259.13H254.43H249.73H245.03H240.32H235.62H230.92H226.22H221.51H216.81H212.11V152.15V148.26V144.37V140.49H216.81V144.37V148.26H221.51H226.22V144.37V140.49H230.92V144.37V148.26H235.62V144.37V140.49H240.32V144.37V148.26H245.03H249.73V144.37H245.03V140.49V136.6H240.32H235.62H230.92H226.22H221.51V132.72V128.83V124.95V121.06V117.17V113.29V109.4V105.52V101.63H216.81V105.52V109.4V113.29V117.17V121.06V124.95V128.83V132.72V136.6H212.11H207.41V140.49V144.37V148.26V152.15V156.04H202.7H198H193.3H188.6H183.9H179.2H174.49H169.79H165.09H160.38H155.68V152.15V148.26V144.37V140.49V136.6H150.98H146.28V132.72V128.83V124.95V121.06V117.17V113.29V109.4V105.52V101.63H141.58V105.52V109.4V113.29V117.17V121.06V124.95V128.83V132.72V136.6H136.88H132.17V140.49H136.88V144.37V148.26H141.58H146.28V144.37V140.49H150.98V144.37V148.26V152.15V156.04H146.28H141.58H136.88H132.17H127.47H122.77H118.07H113.36H108.66H103.96H99.2596H94.5496V159.92V163.81V167.69V171.58V175.46V179.35V183.24V187.12V191.01V194.89V198.78V202.66V206.55V210.44V214.32V218.21H89.8496H85.1497V222.09H89.8496H94.5496V225.98V229.87H99.2596H103.96H108.66V225.98V222.09H113.36H118.07V225.98V229.87H122.77H127.47H132.17H136.88V225.98V222.09H132.17V225.98H127.47H122.77V222.09V218.21H118.07H113.36H108.66H103.96V222.09V225.98H99.2596V222.09V218.21V214.32V210.44V206.55V202.66V198.78V194.89V191.01V187.12V183.24V179.35V175.46V171.58V167.69V163.81V159.92H103.96H108.66H113.36H118.07H122.77H127.47H132.17H136.88H141.58H146.28H150.98H155.68H160.38H165.09H169.79H174.49H179.2H183.9H188.6H193.3H198H202.7H207.41H212.11H216.81H221.51H226.22H230.92H235.62H240.32H245.03H249.73H254.43H259.13H263.83V163.81V167.69V171.58V175.46V179.35V183.24V187.12V191.01V194.89V198.78V202.66V206.55V210.44V214.32V218.21H259.13H254.43V222.09V225.98H249.73V222.09V218.21H245.03H240.32H235.62H230.92V222.09V225.98H226.22V222.09V218.21H221.51H216.81H212.11H207.41V222.09V225.98H202.7H198V222.09V218.21H193.3H188.6H183.9H179.2V222.09V225.98H174.49V222.09V218.21H169.79H165.09H160.38H155.68V222.09V225.98H150.98V222.09V218.21H146.28H141.58H136.88V222.09H141.58H146.28V225.98V229.87H150.98H155.68H160.38V225.98V222.09H165.09H169.79V225.98V229.87H174.49H179.2H183.9V225.98V222.09H188.6H193.3V225.98V229.87H198H202.7H207.41H212.11V225.98V222.09H216.81H221.51V225.98V229.87H226.22H230.92H235.62V225.98V222.09H240.32H245.03V225.98V229.87H249.73H254.43H259.13V225.98V222.09H263.83H268.54H273.24V225.98V229.87H277.94V233.75V237.64V241.52V245.41V249.29V253.18V257.07V260.95V264.84V268.72V272.61V276.5V280.38V284.27V288.16V292.04V295.93V299.81V303.7V307.58H273.24H268.54H263.83H259.13H254.43H249.73H245.03H240.32H235.62H230.92H226.22H221.51H216.81H212.11H207.41H202.7H198H193.3H188.6H183.9H179.2H174.49H169.79H165.09H160.38H155.68H150.98H146.28H141.58H136.88H132.17H127.47H122.77H118.07H113.36H108.66H103.96H99.2596H94.5496H89.8496H85.1497H80.4496H75.7396H71.0396H66.3397H61.6396H56.9396H52.2296H47.5297H42.8297H38.1296H33.4196H28.7196H24.0197H19.3196V303.7V299.81V295.93V292.04V288.16V284.27V280.38V276.5V272.61V268.72V264.84V260.95V257.07V253.18V249.29V245.41V241.52V237.64V233.75V229.87V225.98V222.09V218.21V214.32V210.44V206.55V202.66V198.78V194.89V191.01V187.12V183.24V179.35V175.46V171.58V167.69V163.81V159.92V156.04V152.15V148.26H14.6196V152.15V156.04V159.92V163.81V167.69V171.58V175.46V179.35V183.24V187.12V191.01V194.89V198.78V202.66V206.55V210.44V214.32V218.21V222.09V225.98V229.87V233.75V237.64V241.52V245.41V249.29V253.18V257.07V260.95V264.84V268.72V272.61V276.5V280.38V284.27V288.16V292.04V295.93V299.81V303.7V307.58V311.47H19.3196H24.0197H28.7196H33.4196H38.1296H42.8297H47.5297H52.2296H56.9396H61.6396H66.3397H71.0396H75.7396H80.4496H85.1497H89.8496H94.5496H99.2596H103.96H108.66H113.36H118.07H122.77H127.47H132.17H136.88H141.58H146.28H150.98H155.68H160.38H165.09H169.79H174.49H179.2H183.9H188.6H193.3H198H202.7H207.41H212.11H216.81H221.51H226.22H230.92H235.62H240.32H245.03H249.73H254.43H259.13H263.83H268.54H273.24H277.94H282.64H287.34H292.05H296.75H301.45H306.16H310.86H315.56H320.26H324.96H329.66H334.37H339.07H343.77H348.47H353.18H357.88V307.58H353.18H348.47Z" fill="#231F20"/>
<path d="M132.17 144.37H127.47V148.26H132.17V144.37Z" fill="#231F20"/>
<path d="M85.1499 148.26V152.15V156.04V159.92V163.81V167.69V171.58V175.46V179.35V183.24V187.12V191.01V194.89V198.78V202.66V206.55V210.44V214.32H89.8499V210.44V206.55V202.66V198.78V194.89V191.01V187.12V183.24V179.35V175.46V171.58V167.69V163.81V159.92V156.04V152.15V148.26V144.37H85.1499V148.26Z" fill="#231F20"/>
<path d="M94.5496 140.49H89.8496V144.38H94.5496V140.49Z" fill="#231F20"/>
<path d="M14.6199 140.49H9.91992V144.37V148.26H14.6199V144.37V140.49Z" fill="#231F20"/>
<path d="M127.47 136.6H122.77H118.07V140.49V144.37H113.36V148.26H118.07H122.77V144.37V140.49H127.47V136.6Z" fill="#231F20"/>
<path d="M94.5498 136.6V140.49H99.2598V144.37V148.26H103.96H108.66V144.37V140.49H113.36V136.6H108.66H103.96H99.2598V132.72H94.5498V136.6Z" fill="#231F20"/>
<path d="M9.91974 132.72H5.20978V128.83V124.95V121.06V117.17V113.29H9.91974H14.6198H19.3198H24.0198H28.7197H33.4197H38.1298H42.8298H47.5298H52.2297H56.9398H61.6398H66.3398H71.0397H75.7397H80.4498H85.1498H89.8497H94.5497H99.2598V117.17V121.06V124.95V128.83V132.72H103.96V128.83V124.95V121.06V117.17V113.29V109.4H99.2598H94.5497H89.8497H85.1498H80.4498H75.7397H71.0397H66.3398H61.6398H56.9398H52.2297H47.5298H42.8298H38.1298H33.4197H28.7197H24.0198H19.3198H14.6198H9.91974H5.20978H0.509766V113.29V117.17V121.06V124.95V128.83V132.72V136.6H5.20978V140.49H9.91974V136.6V132.72Z" fill="#231F20"/>
<path d="M99.2498 101.63H94.5498V105.52H99.2498V101.63Z" fill="#231F20"/>
<path d="M9.90991 101.63H5.20996V105.52H9.90991V101.63Z" fill="#231F20"/>
<path d="M226.22 97.74V93.86V89.97V86.09V82.2V78.32V74.43H221.51H216.81V70.54H212.11V74.43H207.41V78.32H202.7V82.2H207.41H212.11V78.32H216.81H221.51V82.2V86.09V89.97V93.86V97.74V101.63H226.22V97.74Z" fill="#231F20"/>
<path d="M94.5499 93.8601H89.8499H85.1499V97.7401H89.8499H94.5499V93.8601Z" fill="#231F20"/>
<path d="M14.6199 93.8601H9.91992V97.7501H14.6199V93.8601Z" fill="#231F20"/>
<path d="M19.3196 89.9701V86.0901H14.6196V89.9701V93.8601H19.3196V89.9701Z" fill="#231F20"/>
<path d="M357.88 89.9701V93.8601V97.7401V101.63V105.52V109.4V113.29V117.17V121.06V124.95V128.83V132.72V136.6V140.49V144.37V148.26V152.15V156.04V159.92V163.81V167.69V171.58V175.46V179.35V183.24V187.12V191.01V194.89V198.78V202.66V206.55V210.44V214.32V218.21V222.09V225.98V229.87V233.75V237.64V241.52V245.41V249.29V253.18V257.07V260.95V264.84V268.72V272.61V276.5V280.38V284.27V288.16V292.04V295.93V299.81V303.7V307.58H362.58V303.7V299.81V295.93V292.04V288.16V284.27V280.38V276.5V272.61V268.72V264.84V260.95V257.07V253.18V249.29V245.41V241.52V237.64V233.75V229.87V225.98V222.09V218.21V214.32V210.44V206.55V202.66V198.78V194.89V191.01V187.12V183.24V179.35V175.46V171.58V167.69V163.81V159.92V156.04V152.15V148.26V144.37V140.49V136.6V132.72V128.83V124.95V121.06V117.17V113.29V109.4V105.52V101.63V97.7401V93.8601V89.9701V86.0901H357.88V89.9701Z" fill="#231F20"/>
<path d="M277.94 86.0901H273.24V89.9701H277.94V86.0901Z" fill="#231F20"/>
<path d="M80.4497 89.9701H85.1497V86.0901V82.2001H80.4497V86.0901V89.9701Z" fill="#231F20"/>
<path d="M367.28 82.2001H362.58V86.0901H367.28V82.2001Z" fill="#231F20"/>
<path d="M273.24 82.2001H268.54V86.0901H273.24V82.2001Z" fill="#231F20"/>
<path d="M24.0198 82.2001H19.3198V86.0901H24.0198V82.2001Z" fill="#231F20"/>
<path d="M371.98 78.3201H367.28V82.2001H371.98V78.3201Z" fill="#231F20"/>
<path d="M80.4398 78.3201H75.7397V82.2001H80.4398V78.3201Z" fill="#231F20"/>
<path d="M268.53 74.4301H263.83V78.3201H268.53V74.4301Z" fill="#231F20"/>
<path d="M198 74.4301H193.3V78.3201H198H202.7V74.4301H198Z" fill="#231F20"/>
<path d="M183.9 78.3201V82.2001H188.6V78.3201V74.4301H183.9H179.2H174.49V78.3201H179.2H183.9Z" fill="#231F20"/>
<path d="M71.0396 78.32H75.7396V74.43V70.54H71.0396V74.43V78.32Z" fill="#231F20"/>
<path d="M28.7195 74.4301H24.0195V78.3201H28.7195V74.4301Z" fill="#231F20"/>
<path d="M263.83 70.5401V66.6501V62.7701V58.8901V55.0001V51.11V47.2301V43.3401V39.4501V35.5701H268.54H273.24V39.4501V43.3401H277.94V39.4501V35.5701V31.6801V27.8H273.24H268.54H263.83V31.6801H259.13V35.5701V39.4501V43.3401V47.2301V51.11V55.0001V58.8901V62.7701V66.6501V70.5401V74.4301H263.83V70.5401Z" fill="#231F20"/>
<path d="M33.4197 70.54H38.1298V66.65V62.77H33.4197V66.65H28.7197V70.54V74.43H33.4197V70.54Z" fill="#231F20"/>
<path d="M212.11 66.6501H207.41V70.5402H212.11V66.6501Z" fill="#231F20"/>
<path d="M66.3398 70.54H71.0398V66.65V62.77H66.3398V66.65V70.54Z" fill="#231F20"/>
<path d="M150.98 66.65V70.54H146.28V74.43H141.58V78.32V82.2V86.09V89.97V93.86V97.74H146.28V93.86V89.97V86.09V82.2V78.32H150.98V82.2H155.68H160.38V78.32H165.09H169.79V74.43H165.09H160.38H155.68V70.54V66.65V62.77H150.98V66.65Z" fill="#231F20"/>
<path d="M160.38 58.8901H155.68V62.7801H160.38V58.8901Z" fill="#231F20"/>
<path d="M66.3397 58.8901H61.6396V62.7801H66.3397V58.8901Z" fill="#231F20"/>
<path d="M42.8299 58.8901H38.1299V62.7801H42.8299V58.8901Z" fill="#231F20"/>
<path d="M198 58.8901H202.7H207.41V55.0001H202.7V51.1101H198V55.0001V58.8901Z" fill="#231F20"/>
<path d="M61.64 55.0001H56.9399V58.8901H61.64V55.0001Z" fill="#231F20"/>
<path d="M47.5296 55.0001H42.8296V58.8901H47.5296V55.0001Z" fill="#231F20"/>
<path d="M52.2297 55.0001H56.9398V51.1101V47.2301H52.2297V43.3401V39.4501H56.9398V35.5701H61.6398H66.3398H71.0397V39.4501H75.7397H80.4498H85.1498V35.5701H80.4498V31.6801H75.7397H71.0397H66.3398H61.6398H56.9398H52.2297V27.8001V23.9101V20.0301V16.1401V12.2501V8.37009V4.4801H56.9398H61.6398H66.3398H71.0397H75.7397H80.4498V8.37009H85.1498H89.8497V12.2501H94.5497H99.2598V8.37009H94.5497V4.4801H89.8497H85.1498V0.600098H80.4498H75.7397H71.0397H66.3398H61.6398H56.9398H52.2297H47.5298V4.4801V8.37009V12.2501V16.1401V20.0301V23.9101V27.8001V31.6801V35.5701V39.4501V43.3401V47.2301V51.1101H52.2297V55.0001Z" fill="#231F20"/>
<path d="M193.3 51.1101H198V47.2301V43.3401H193.3V47.2301V51.1101Z" fill="#231F20"/>
<path d="M282.64 47.2301H287.339V43.3401V39.4501V35.5701H292.05V31.6801H296.75H301.449V35.5701V39.4501V43.3401V47.2301H306.16H310.859H315.56V43.3401V39.4501V35.5701V31.6801H320.26H324.959V35.5701V39.4501V43.3401V47.2301H329.66H334.37H339.069V43.3401V39.4501V35.5701V31.6801H343.77H348.469V35.5701V39.4501V43.3401V47.2301H353.18H357.88V43.3401H353.18V39.4501V35.5701V31.6801V27.8H348.469H343.77H339.069H334.37V31.6801V35.5701V39.4501V43.3401H329.66V39.4501V35.5701V31.6801V27.8H324.959H320.26H315.56H310.859V31.6801V35.5701V39.4501V43.3401H306.16V39.4501V35.5701V31.6801V27.8H301.449H296.75H292.05H287.339H282.64V31.6801V35.5701V39.4501V43.3401H277.939V47.2301H282.64Z" fill="#231F20"/>
<path d="M193.3 39.4501H188.6V43.3401H193.3V39.4501Z" fill="#231F20"/>
<path d="M179.2 39.4501V35.5701H174.49V39.4501V43.3401H179.2V39.4501Z" fill="#231F20"/>
<path d="M183.9 39.4501H188.6V35.5701V31.6801H183.9V27.8H179.2V31.6801V35.5701H183.9V39.4501Z" fill="#231F20"/>
<path d="M94.5496 35.5701H89.8496V39.4601H94.5496V35.5701Z" fill="#231F20"/>
<path d="M371.98 27.8H367.28H362.58H357.88V31.6801H362.58H367.28H371.98V35.5701V39.4501V43.3401V47.2301V51.11V55.0001V58.8901V62.7701V66.6501V70.5401V74.4301V78.3201H376.69V74.4301V70.5401V66.6501V62.7701V58.8901V55.0001V51.11V47.2301V43.3401V39.4501V35.5701V31.6801V27.8H371.98Z" fill="#231F20"/>
<path d="M113.36 23.91V27.8H118.07H122.77V31.68H127.47V35.57H132.17H136.88V39.45H132.17H127.47H122.77H118.07H113.36H108.66H103.96H99.2598H94.5498V43.34H99.2598H103.96H108.66H113.36H118.07H122.77H127.47H132.17H136.88H141.58V39.45H146.28H150.98V35.57H146.28H141.58V31.68H136.88H132.17V27.8H127.47V23.91H122.77H118.07V20.03H113.36H108.66V23.91H113.36Z" fill="#231F20"/>
<path d="M99.2598 20.0301H103.96H108.66V16.1401H103.96V12.2501H99.2598V16.1401V20.0301Z" fill="#231F20"/>
</svg>
