<svg width="59" height="55" viewBox="0 0 59 55" fill="none" xmlns="http://www.w3.org/2000/svg">
<path d="M49.14 47.58H47.21V49.38H49.14V47.58Z" fill="#F2A12C"/>
<path d="M51.07 42.1799H49.14V43.9799H51.07V42.1799Z" fill="#F2A12C"/>
<path d="M12.49 24.17H10.56V25.97H12.49V24.17Z" fill="#F6ECC7"/>
<path d="M56.86 18.76H54.93H53H51.07V20.56V22.36V24.17V25.97V27.77V29.57V31.37V33.17V34.97V36.77V38.58H49.14V40.38V42.18H51.07V43.98H49.14V42.18H47.21V43.98H45.29V45.78H43.36V47.58V49.38H41.43H39.5V51.18H37.57V52.99H35.64H33.71V54.79H35.64H37.57H39.5H41.43V52.99H43.36H45.29V51.18H47.21V49.38V47.58H49.14V49.38H51.07V47.58V45.78H53V43.98H54.93V42.18V40.38H56.86V38.58V36.77H58.79V34.97V33.17V31.37V29.57V27.77V25.97V24.17V22.36V20.56V18.76H56.86Z" fill="#F2A12C"/>
<path d="M37.57 52.9399V52.9899H33.71V54.7899H41.43V52.9899H45.29V52.9399H37.57Z" fill="#231F20"/>
<path d="M49.14 13.36H47.21V15.16H49.14V13.36Z" fill="white"/>
<path d="M47.21 18.7601V13.36H45.28V11.5601H43.35V9.76007H41.42V7.96005H39.49V6.16006H37.56V4.36005H33.7V2.56006H18.27V4.36005H14.41V6.16006H12.48V7.96005H10.55V9.76007H8.62V11.5601H6.69V15.1601H4.76001V18.7601H2.83002V36.7701H4.76001V40.3701H6.69V43.9701H8.62V45.7701H10.55V47.5701H12.48V49.3701H14.41V51.1701H18.27V52.9701H33.7V51.1701H37.56V49.3701H39.49V47.5701H41.42V45.7701H43.35V43.9701H45.28V42.1701H47.21V38.5701H49.14V18.7601H47.21ZM10.56 20.5601V16.9601H12.49V15.1601H14.42V13.36H16.35V11.5601H18.28V9.76007H33.71V11.5601H35.64V13.36H37.57V15.1601H39.5V16.9601H41.43V20.5601H43.36V34.9701H41.43V38.5701H39.5V40.3701H37.57V42.1701H35.64V43.9701H33.71V45.7701H18.28V43.9701H16.35V42.1701H14.42V40.3701H12.49V38.5701H10.56V34.9701H8.63V20.5601H10.56Z" fill="#FCCB25"/>
<path d="M14.42 18.7601H12.49V20.5601V22.36V24.1701V25.9701V27.7701V29.5701V31.3701V33.1701H14.42V34.9701V36.7701H16.35V38.58H18.28V40.3801H20.21H22.14V42.1801H24.06H25.99H27.92H29.85H31.78V40.3801H33.71H35.64V38.58H37.57V36.7701H39.5V34.9701V33.1701H41.43V31.3701V29.5701V27.7701V25.9701V24.1701V22.36H39.5V20.5601V18.7601V16.9601H37.57V15.1601H35.64V13.36H33.71H31.78V11.5601H29.85H27.92H25.99H24.06H22.14H20.21V13.36H18.28H16.35V15.1601H14.42V16.9601V18.7601Z" fill="#FCCB25"/>
<path d="M54.93 13.36V11.56V9.76001H53V11.56H51.07H49.14V13.36V15.16V16.96H51.07V15.16H53H54.93V16.96V18.76H56.86V16.96V15.16V13.36H54.93Z" fill="#F2A12C"/>
<path d="M51.07 7.95999V6.16H49.14H47.21V4.35001H45.29V2.54999H43.36H41.43V0.75H39.5H37.57H35.64H33.71V2.54999H35.64H37.57V4.35001H39.5V6.16H41.43V7.95999H43.36V9.76001H45.29H47.21H49.14H51.07H53V7.95999H51.07Z" fill="#F2A12C"/>
<path d="M54.93 13.36V11.56V9.76001H53V11.56H51.07H49.14V13.36V15.16V16.96H51.07V15.16H53H54.93V16.96V18.76H56.86V16.96V15.16V13.36H54.93Z" fill="#F2A12C"/>
<path d="M54.93 13.36V11.56V9.76001H53V11.56V13.36H54.93V15.16V16.96V18.76H56.86V16.96V15.16V13.36H54.93Z" fill="#231F20"/>
<path d="M47.22 4.34998H45.29V6.14996H47.22V4.34998Z" fill="#231F20"/>
<path d="M47.21 7.96002H49.14H51.07V6.16003H49.14H47.21V7.96002Z" fill="#231F20"/>
<path d="M43.36 4.35007H45.29V2.55005H43.36H41.43V4.35007H43.36Z" fill="#231F20"/>
<path d="M53 7.95996H51.07V9.75998H53V7.95996Z" fill="#231F20"/>
<path d="M35.64 2.54999H37.57H39.5H41.43V0.75H39.5H37.57H35.64H33.71V2.54999H35.64Z" fill="#231F20"/>
<path d="M49.14 42.1799H47.21V43.9799H49.14V42.1799Z" fill="#231F20"/>
<path d="M56.86 18.76H54.93H56.86V20.56V22.36V24.17V25.97V27.77V29.57V31.37V33.17V34.97V36.77H58.79V34.97V33.17V31.37V29.57V27.77V25.97V24.17V22.36V20.56V18.76H56.86Z" fill="#231F20"/>
<path d="M49.14 45.78V47.58V49.38H51.07V47.58V45.78H49.14Z" fill="#231F20"/>
<path d="M53 43.98H51.07V45.78H53V43.98Z" fill="#231F20"/>
<path d="M54.93 36.77V38.58V40.38H53V42.18V43.98H54.93V42.18V40.38H56.86V38.58V36.77H54.93Z" fill="#231F20"/>
<path d="M41.43 52.99H39.5V54.79H41.43V52.99Z" fill="#231F20"/>
<path d="M47.21 49.38V47.58H45.29V49.38V51.18H47.21V49.38Z" fill="#231F20"/>
<path d="M45.29 51.1799H43.36V52.9799H45.29V51.1799Z" fill="#231F20"/>
<path d="M33.71 51.1799V52.9899H31.78H29.85H27.92H25.99H24.06H22.14H20.21H18.28V54.7899H20.21H22.14H24.06H25.99H27.92H29.85H31.78H33.71V52.9899H35.64H37.57V51.1799H35.64H33.71Z" fill="#231F20"/>
<path d="M39.5 49.38H37.57V51.18H39.5V49.38Z" fill="#231F20"/>
<path d="M41.43 47.58H39.5V49.38H41.43H43.36V47.58V45.78H41.43V47.58Z" fill="#231F20"/>
<path d="M45.29 43.98H43.36V45.78H45.29V43.98Z" fill="#231F20"/>
<path d="M47.22 42.1799H45.29V43.9799H47.22V42.1799Z" fill="#231F20"/>
<path d="M47.21 40.38V42.18H49.14V40.38V38.58H47.21V40.38Z" fill="#231F20"/>
<path d="M49.14 20.5601V22.36V24.1701V25.9701V27.7701V29.5701V31.3701V33.1701V34.9701V36.7701V38.58H51.07V36.7701V34.9701V33.1701V31.3701V29.5701V27.7701V25.9701V24.1701V22.36V20.5601H49.14Z" fill="#231F20"/>
<path d="M47.21 16.96V18.76H49.14V16.96V15.16H47.21V16.96Z" fill="#231F20"/>
<path d="M47.22 11.5601H45.29V13.36H47.22V11.5601Z" fill="#231F20"/>
<path d="M37.57 40.38H35.64V42.18H37.57V40.38Z" fill="#231F20"/>
<path d="M39.5 20.56V22.36H41.43V24.17V25.97V27.77V29.57V31.37V33.17H39.5V34.97V36.77H37.57V38.58V40.38H39.5V38.58H41.43V36.77V34.97H43.36V33.17V31.37V29.57V27.77V25.97V24.17V22.36V20.56H41.43V18.76V16.96H39.5V18.76V20.56Z" fill="#231F20"/>
<path d="M39.5 15.16H37.57V16.96H39.5V15.16Z" fill="#231F20"/>
<path d="M37.57 13.36H35.64V15.16H37.57V13.36Z" fill="#231F20"/>
<path d="M45.29 9.76001H43.36V11.56H45.29V9.76001Z" fill="#231F20"/>
<path d="M43.36 7.95996H41.43V9.75998H43.36V7.95996Z" fill="#231F20"/>
<path d="M41.43 6.16003H39.5V7.96002H41.43V6.16003Z" fill="#231F20"/>
<path d="M39.5 4.34998H37.57V6.14996H39.5V4.34998Z" fill="#231F20"/>
<path d="M33.71 4.35007H35.64H37.57V2.55005H35.64H33.71V4.35007Z" fill="#231F20"/>
<path d="M16.35 51.1799H14.42V52.9899H16.35H18.28V51.1799H16.35Z" fill="#231F20"/>
<path d="M14.42 49.38H12.49V51.18H14.42V49.38Z" fill="#231F20"/>
<path d="M10.56 47.58V45.78H8.63V47.58V49.38H10.56H12.49V47.58H10.56Z" fill="#231F20"/>
<path d="M8.63 43.98H6.70001V45.78H8.63V43.98Z" fill="#231F20"/>
<path d="M20.21 45.7799H22.14H24.06H25.99H27.92H29.85H31.78H33.71V43.9799H35.64V42.1799H33.71H31.78V43.9799H29.85H27.92H25.99H24.06H22.14H20.21V42.1799H18.28H16.35V43.9799H18.28V45.7799H20.21Z" fill="#231F20"/>
<path d="M16.35 40.38H14.42V42.18H16.35V40.38Z" fill="#231F20"/>
<path d="M6.70001 40.38H4.77002V42.18V43.98H6.70001V42.18V40.38Z" fill="#231F20"/>
<path d="M4.77002 36.77H2.84998V38.58V40.38H4.77002V38.58V36.77Z" fill="#231F20"/>
<path d="M2.84998 33.1701V31.3701V29.5701V27.7701V25.9701V24.1701V22.36V20.5601H0.919983V22.36V24.1701V25.9701V27.7701V29.5701V31.3701V33.1701V34.9701H2.84998V33.1701Z" fill="#231F20"/>
<path d="M14.42 36.77H12.49V34.97V33.17H10.56V31.37V29.57V27.77V25.97V24.17V22.36H12.49V20.56V18.76H14.42V16.96V15.16H12.49V16.96H10.56V18.76V20.56H8.63V22.36V24.17V25.97V27.77V29.57V31.37V33.17V34.97H10.56V36.77V38.58H12.49V40.38H14.42V38.58V36.77Z" fill="#231F20"/>
<path d="M4.77002 16.96V15.16H2.84998V16.96V18.76H4.77002V16.96Z" fill="#231F20"/>
<path d="M16.35 13.36H14.42V15.16H16.35V13.36Z" fill="#231F20"/>
<path d="M6.70001 13.36V11.5601H4.77002V13.36V15.1601H6.70001V13.36Z" fill="#231F20"/>
<path d="M20.21 13.36V11.56H22.14H24.06H25.99H27.92H29.85H31.78V13.36H33.71H35.64V11.56H33.71V9.76001H31.78H29.85H27.92H25.99H24.06H22.14H20.21H18.28V11.56H16.35V13.36H18.28H20.21Z" fill="#231F20"/>
<path d="M8.63 9.76001H6.70001V11.56H8.63V9.76001Z" fill="#231F20"/>
<path d="M10.56 7.95996H8.63V9.75998H10.56V7.95996Z" fill="#231F20"/>
<path d="M12.49 6.16003H10.56V7.96002H12.49V6.16003Z" fill="#231F20"/>
<path d="M14.42 4.34998H12.49V6.14996H14.42V4.34998Z" fill="#231F20"/>
<path d="M18.28 4.35007V2.55005H16.35H14.42V4.35007H16.35H18.28Z" fill="#231F20"/>
<path d="M22.14 2.54999H24.06H25.99H27.92H29.85H31.78H33.71V0.75H31.78H29.85H27.92H25.99H24.06H22.14H20.21H18.28V2.54999H20.21H22.14Z" fill="#231F20"/>
<path d="M53 15.16H51.07V16.96H49.14V18.76V20.56H51.07V18.76H53H54.93V16.96V15.16H53Z" fill="white"/>
<path d="M51.07 9.76001H49.14H47.21H45.29V11.56H47.21V13.36H49.14V11.56H51.07H53V9.76001H51.07Z" fill="white"/>
<path d="M27.92 42.18H25.99H24.06H22.14V40.38H20.21H18.28V38.58H16.35V36.77H14.42V38.58V40.38H16.35V42.18H18.28H20.21V43.98H22.14H24.06H25.99H27.92H29.85H31.78V42.18H29.85H27.92Z" fill="white"/>
<path d="M31.78 40.38V42.18H33.71H35.64V40.38H33.71H31.78Z" fill="white"/>
<path d="M37.57 38.58H35.64V40.38H37.57V38.58Z" fill="white"/>
<path d="M14.42 33.17H12.49V34.97V36.77H14.42V34.97V33.17Z" fill="white"/>
<path d="M12.49 29.57V27.77V25.97H10.56V27.77V29.57V31.37V33.17H12.49V31.37V29.57Z" fill="white"/>
<path d="M12.49 22.36H10.56V24.16H12.49V22.36Z" fill="white"/>
</svg>
