<svg width="75" height="61" viewBox="0 0 75 61" fill="none" xmlns="http://www.w3.org/2000/svg">
<path d="M70.4401 15.2V18.2H66.7501H63.0501V15.2H59.3601V12.2H55.6701V9.19995H51.9701V6.18994H55.6701H59.3601H63.0501V3.18994H59.3601H55.6701H51.9701H48.2802V6.18994H44.5901V9.19995H40.9001V12.2H37.2001H33.5101V9.19995H29.8201V6.18994H26.1201V3.18994H22.4301H18.7401H15.0501V6.18994H11.3501V9.19995V12.2V15.2V18.2V21.2099V24.2099V27.2099H15.0501V30.2099H18.7401V33.2199H22.4301V36.2199V39.2199H26.1201V42.2199H29.8201V45.2299H33.5101V48.2299H37.2001V51.2299H40.9001H44.5901V48.2299H48.2802V45.2299H51.9701V42.2199H55.6701V39.2199H59.3601V36.2199H63.0501V33.2199H66.7501V30.2099H70.4401V27.2099V24.2099V21.2099H74.1301V18.2V15.2H70.4401Z" fill="#D74564"/>
<path d="M70.44 9.19995H66.75V12.2H70.44V9.19995Z" fill="#EA302E"/>
<path d="M66.7401 6.18994H63.05V9.18994H66.7401V6.18994Z" fill="#EA302E"/>
<path d="M37.2 48.2299H33.51V45.2299H29.82V42.2199H26.12V39.2199H22.43V36.2199V33.2199H18.74V30.2099H15.05V27.2099H11.35V24.2099V21.2099V18.2V15.2V12.2V9.19995V6.18994H7.65997V9.19995H3.96997V12.2V15.2V18.2V21.2099V24.2099V27.2099V30.2099H7.65997V33.2199H11.35V36.2199H15.05V39.2199H18.74V42.2199H22.43V45.2299H26.12V48.2299H29.82V51.2299V54.2299H33.51V57.2399H37.2H40.9V54.2299V51.2299H37.2V48.2299Z" fill="#B34472"/>
<path d="M15.0401 3.18994H11.3501V6.18994H15.0401V3.18994Z" fill="#B34472"/>
<path d="M70.44 6.18994H66.75V9.18994H70.44V6.18994Z" fill="#231F20"/>
<path d="M66.7401 3.18994H63.05V6.18994H66.7401V3.18994Z" fill="#231F20"/>
<path d="M40.9 54.23H37.2V57.24H33.51V60.24H37.2V57.24H40.9V54.23H44.59V51.23H40.9V54.23Z" fill="#231F20"/>
<path d="M48.2801 48.23H44.5901V51.23H48.2801V48.23Z" fill="#231F20"/>
<path d="M29.8101 48.23H26.1201V51.23H29.8101V48.23Z" fill="#231F20"/>
<path d="M33.5101 51.23H29.8201V54.23H33.5101V51.23Z" fill="#231F20"/>
<path d="M51.97 45.23H48.28V48.23H51.97V45.23Z" fill="#231F20"/>
<path d="M26.1199 45.23H22.4299V48.23H26.1199V45.23Z" fill="#231F20"/>
<path d="M55.66 42.22H51.97V45.22H55.66V42.22Z" fill="#231F20"/>
<path d="M22.43 42.22H18.74V45.22H22.43V42.22Z" fill="#231F20"/>
<path d="M59.3599 39.22H55.6699V42.22H59.3599V39.22Z" fill="#231F20"/>
<path d="M18.7401 39.22H15.05V42.22H18.7401V39.22Z" fill="#231F20"/>
<path d="M63.0499 36.22H59.3599V39.22H63.0499V36.22Z" fill="#231F20"/>
<path d="M15.0401 36.22H11.3501V39.22H15.0401V36.22Z" fill="#231F20"/>
<path d="M66.7401 33.22H63.05V36.22H66.7401V33.22Z" fill="#231F20"/>
<path d="M11.3499 33.22H7.65991V36.22H11.3499V33.22Z" fill="#231F20"/>
<path d="M7.66998 30.21H3.96997V33.21H7.66998V30.21Z" fill="#231F20"/>
<path d="M70.44 30.21H66.75V33.22H70.44V30.21H74.13V27.21H70.44V30.21Z" fill="#231F20"/>
<path d="M70.4399 9.19995V12.2V15.2H70.5099V21.2099H70.4399V24.2099V27.2099H74.1299V24.2099V21.2099V15.2V12.2V9.19995H70.4399Z" fill="#231F20"/>
<path d="M33.51 9.19995V12.2H37.2H40.9V9.19995H37.2H33.51Z" fill="#231F20"/>
<path d="M44.5899 6.18994H40.8999V9.18994H44.5899V6.18994Z" fill="#231F20"/>
<path d="M33.5101 6.18994H29.8201V9.18994H33.5101V6.18994Z" fill="#231F20"/>
<path d="M3.96997 9.19995H0.280029V12.2V15.2V18.2V21.2099V24.2099V27.1799V27.2099V30.1799H3.96997V27.2099V27.1799V24.2099V21.2099V18.2V15.2V12.2V9.19995H7.65997V6.18994H3.96997V9.19995Z" fill="#231F20"/>
<path d="M48.2801 3.18994H44.5901V6.18994H48.2801V3.18994Z" fill="#231F20"/>
<path d="M29.8101 3.18994H26.1201V6.18994H29.8101V3.18994Z" fill="#231F20"/>
<path d="M11.3499 3.18994H7.65991V6.18994H11.3499V3.18994Z" fill="#231F20"/>
<path d="M59.36 0.189941H55.67H51.97H48.28V3.18994H51.97H55.67H59.36H63.05V0.189941H59.36Z" fill="#231F20"/>
<path d="M22.4301 0.189941H18.7401H15.0501H11.3501V3.18994H15.0501H18.7401H22.4301H26.1201V0.189941H22.4301Z" fill="#231F20"/>
<path d="M66.75 12.2V9.19995H63.05V6.18994H59.36H55.67H51.97V9.19995H55.67V12.2H59.36V15.2H63.05V18.2H66.75H70.44V15.2V12.2H66.75Z" fill="white"/>
</svg>
