<svg width="131" height="205" viewBox="0 0 131 205" fill="none" xmlns="http://www.w3.org/2000/svg">
<path d="M76.02 6.76001H73.4299V13.47H76.02V6.76001Z" fill="#71B650"/>
<path d="M57.9001 13.47H55.3101V20.18H57.9001V13.47Z" fill="#399B4B"/>
<path d="M19.06 40.3201H16.47V47.0301H19.06V40.3201Z" fill="#72B651"/>
<path d="M8.69989 53.75H6.10986V60.46H8.69989V53.75Z" fill="#6FB450"/>
<path d="M104.51 73.88H101.92V80.59H104.51V73.88Z" fill="#97C25B"/>
<path d="M78.61 87.3101H76.02V94.0201H78.61V87.3101Z" fill="#60AD4A"/>
<path d="M70.84 100.73H68.25V107.44H70.84V100.73Z" fill="#66AF4D"/>
<path d="M99.33 114.16H96.74V120.87H99.33V114.16Z" fill="#9CC45D"/>
<path d="M57.9001 127.59H55.3101V134.3H57.9001V127.59Z" fill="#6CB34F"/>
<path d="M55.31 134.3H52.72V141.01H55.31V134.3Z" fill="#49A14B"/>
<path d="M91.5601 181.29H88.97V188H91.5601V181.29Z" fill="#90C057"/>
<path d="M39.77 188H37.1799V194.71H39.77V188Z" fill="#63AD4B"/>
<path d="M8.69989 53.75H11.2899V47.03H13.8799H16.4698V40.32H19.0499H21.6399H24.2299V33.61H26.8199H29.4099H31.9999H34.5899V26.89H37.1799H39.7699H42.3599H44.9499V20.18H47.5399H50.1299H52.7198H55.3099V13.47H57.8999H60.4899H63.0799H65.6699H68.2499H70.8399H73.4299V6.76001H70.8399H68.2499H65.6699H63.0799H60.4899H57.8999H55.3099H52.7198H50.1299H47.5399H44.9499H42.3599H39.7699H37.1799H34.5899H31.9999H29.4099H26.8199H24.2299H21.6399H19.0499H16.4698H13.8799H11.2899H8.69989H6.10986V13.47V20.18V26.89V33.61V40.32V47.03V53.75H8.69989Z" fill="#2A8D47"/>
<path d="M34.59 204.05V201.43H37.18V188H39.77V181.29H42.36V174.57H44.95V161.15H47.54V154.44H50.13V147.72H52.72V134.3H55.31V127.59H60.49V120.87H63.08V114.16H65.67V107.45H68.25V100.73H73.43V94.02H76.02V87.31H81.2V80.6H86.38V73.88H24.23V204.05H34.59Z" fill="#2A8D47"/>
<path d="M8.69989 67.17H11.2899H13.8799H16.4698H19.0499H21.6399H24.2299H26.8199H29.4099H31.9999H34.5899H37.1799H39.7699H42.3599V60.46H44.9499V53.75H47.5399H50.1299H52.7198H55.3099H57.8999H60.4899H63.0799H65.6699H68.2499H70.8399H73.4299H76.0199H78.6099H81.1998H83.7899H86.3799H88.9698H91.5599H94.1499H96.7399H99.3298H101.92H104.51H107.1H109.69H112.28H114.86V47.03V40.32V33.61V26.89V20.18V13.47V6.76001H112.28H109.69H107.1H104.51H101.92H99.3298H96.7399H94.1499H91.5599H88.9698H86.3799H83.7899H81.1998H78.6099H76.0199V13.47H73.4299H70.8399H68.2499H65.6699H63.0799H60.4899H57.8999V20.18H55.3099H52.7198H50.1299H47.5399H44.9499V26.89H42.3599H39.7699H37.1799H34.5899V33.61H31.9999H29.4099H26.8199H24.2299V40.32H21.6399H19.0499V47.03H16.4698H13.8799H11.2899V53.75H8.69989V60.46H6.10986V67.17H8.69989Z" fill="#80BB52"/>
<path d="M88.9698 204.05V181.29H91.5599V167.86H94.1498V141.01H96.7398V114.16H99.3298V100.73H101.92V73.88H86.3798V80.6H81.1998V87.31H78.6098V94.02H73.4298V100.73H70.8398V107.45H65.6698V114.16H63.0798V120.87H60.4898V127.59H57.8998V134.3H55.3098V141.01H52.7198V147.72H50.1298V154.44H47.5398V161.15H44.9498V174.57H42.3598V181.29H39.7698V194.71H37.1798V201.43H34.5898V204.05H88.9698Z" fill="#80BB52"/>
<path d="M44.9499 67.17H47.5399H50.1299H52.7198H55.3099H57.8999H60.4899H63.0799H65.6699H68.2499H70.8399H73.4299H76.0199H78.6099H81.1998H83.7899H86.3799H88.9698H91.5599H94.1499H96.7399H99.3298H101.92H104.51H107.1H109.69H112.28H114.86H117.45H120.04H122.63H125.22V60.46V53.75V47.03V40.32V33.61V26.89V20.18V13.47V6.76001H122.63H120.04H117.45H114.86V13.47V20.18V26.89V33.61V40.32V47.03V53.75H112.28H109.69H107.1H104.51H101.92H99.3298H96.7399H94.1499H91.5599H88.9698H86.3799H83.7899H81.1998H78.6099H76.0199H73.4299H70.8399H68.2499H65.6699H63.0799H60.4899H57.8999H55.3099H52.7198H50.1299H47.5399H44.9499V60.46H42.3599V67.17H44.9499Z" fill="#ACCB67"/>
<path d="M104.51 204.05V80.6H101.92V100.73H99.3297V120.87H96.7397V141.01H94.1498V167.86H91.5598V188H88.9697V204.05H104.51Z" fill="#ACCB67"/>
<path d="M19.0499 73.88V204.05H24.2299V73.88H104.5V204.05H109.68V73.88H130.4V0.0400391H0.929932V73.88H19.0599H19.0499ZM6.09991 6.75003H125.22V67.16H6.09991V6.75003Z" fill="#231F20"/>
</svg>
