<svg width="129" height="149" viewBox="0 0 129 149" fill="none" xmlns="http://www.w3.org/2000/svg">
<path d="M74.55 6.98999H72V13.59H74.55V6.98999Z" fill="#71B650"/>
<path d="M56.7299 13.59H54.1799V20.19H56.7299V13.59Z" fill="#399B4B"/>
<path d="M18.5198 40H15.9697V46.6H18.5198V40Z" fill="#72B651"/>
<path d="M8.33997 53.21H5.79004V59.81H8.33997V53.21Z" fill="#6FB450"/>
<path d="M102.57 73.01H100.02V79.61H102.57V73.01Z" fill="#97C25B"/>
<path d="M77.0997 86.22H74.5498V92.82H77.0997V86.22Z" fill="#60AD4A"/>
<path d="M69.4598 99.4199H66.9099V106.02H69.4598V99.4199Z" fill="#66AF4D"/>
<path d="M97.4698 112.62H94.9199V119.22H97.4698V112.62Z" fill="#9CC45D"/>
<path d="M56.7299 125.83H54.1799V132.43H56.7299V125.83Z" fill="#6CB34F"/>
<path d="M54.1799 132.43H51.6299V139.03H54.1799V132.43Z" fill="#49A14B"/>
<path d="M8.32996 53.21H10.88V46.61H13.4301H15.97V40H18.52H21.0699H23.61V33.4H26.16H28.71H31.26H33.8V26.8H36.35H38.89H41.4399H43.99V20.2H46.54H49.08H51.63H54.1801V13.59H56.72H59.27H61.8199H64.36H66.91H69.46H72V6.98999H69.46H66.91H64.36H61.8199H59.27H56.72H54.1801H51.63H49.08H46.54H43.99H41.4399H38.89H36.35H33.8H31.26H28.71H26.16H23.61H21.0699H18.52H15.97H13.4301H10.88H8.32996H5.79004V13.59V20.2V26.8V33.4V40V46.61V53.21H8.32996Z" fill="#2A8D47"/>
<path d="M49.0798 148.45V145.63H51.6299V132.43H54.1799V125.83H59.2699V119.23H61.8198V112.62H64.3599V106.02H66.9099V99.42H71.9999V92.82H74.5499V86.22H79.6399V79.61H84.7399V73.01H23.6099V148.45H49.0798Z" fill="#2A8D47"/>
<path d="M8.32996 66.41H10.88H13.4301H15.97H18.52H21.0699H23.61H26.16H28.71H31.26H33.8H36.35H38.89H41.4399V59.81H43.99V53.21H46.54H49.08H51.63H54.1801H56.72H59.27H61.8199H64.36H66.91H69.46H72H74.55H77.1H79.64H82.1899H84.74H87.28H89.83H92.38H94.92H97.47H100.02H102.56H105.11H107.66H110.2H112.75V46.61V40V33.4V26.8V20.2V13.59V6.98999H110.2H107.66H105.11H102.56H100.02H97.47H94.92H92.38H89.83H87.28H84.74H82.1899H79.64H77.1H74.55V13.59H72H69.46H66.91H64.36H61.8199H59.27H56.72V20.2H54.1801H51.63H49.08H46.54H43.99V26.8H41.4399H38.89H36.35H33.8V33.4H31.26H28.71H26.16H23.61V40H21.0699H18.52V46.61H15.97H13.4301H10.88V53.21H8.32996V59.81H5.79004V66.41H8.32996Z" fill="#80BB52"/>
<path d="M92.3801 148.45V139.03H94.9202V112.62H97.4701V99.42H100.02V73.01H84.7401V79.61H79.6401V86.22H77.1001V92.82H72.0001V99.42H69.4601V106.02H64.3601V112.62H61.8201V119.23H59.2701V125.83H56.7201V132.43H54.1802V139.03H51.6301V145.63H49.0801V148.45H92.3801Z" fill="#80BB52"/>
<path d="M43.99 66.41H46.54H49.08H51.63H54.1801H56.72H59.27H61.8199H64.36H66.91H69.46H72H74.55H77.1H79.64H82.1899H84.74H87.28H89.83H92.38H94.92H97.47H100.02H102.56H105.11H107.66H110.2H112.75H115.3H117.84H120.39H122.94V59.81V53.21V46.61V40V33.4V26.8V20.2V13.59V6.98999H120.39H117.84H115.3H112.75V13.59V20.2V26.8V33.4V40V46.61V53.21H110.2H107.66H105.11H102.56H100.02H97.47H94.92H92.38H89.83H87.28H84.74H82.1899H79.64H77.1H74.55H72H69.46H66.91H64.36H61.8199H59.27H56.72H54.1801H51.63H49.08H46.54H43.99V59.81H41.4399V66.41H43.99Z" fill="#ACCB67"/>
<path d="M102.56 148.45V79.61H100.02V99.42H97.4698V119.23H94.9199V139.03H92.3799V148.45H102.56Z" fill="#ACCB67"/>
<path d="M18.5199 73.01V148.45H23.6099V73.01H102.56V148.45H107.65V73.01H128.02V0.390015H0.679932V73.01H18.5099H18.5199ZM5.78992 6.98999H122.94V66.41H5.78992V6.98999Z" fill="#231F20"/>
</svg>
