<svg width="52" height="84" viewBox="0 0 52 84" fill="none" xmlns="http://www.w3.org/2000/svg">
<path d="M31.4698 3.03992H20.8799V11.9499H31.4698V3.03992Z" fill="#E19333"/>
<path d="M48.45 63.6599V61.1699V58.6699H46.73H45H43.28V61.1699H41.55H39.83H38.11H36.38H34.66H32.9301H31.21H29.49H27.76H26.04H24.3199H22.59H20.87H19.14H17.42H15.7H13.97H12.25V63.6599V66.1599H13.97V68.6499H15.7V71.1499H17.42H19.14V73.6399H20.87H22.59V76.1299H24.3199H26.04H27.76H29.49H31.21H32.9301H34.66H36.38H38.11H39.83H41.55H43.28V73.6399H45H46.73H48.45H50.17V71.1499V68.6499V66.1599V63.6599H48.45Z" fill="#D53876"/>
<path d="M46.7299 73.64H44.9999H43.2799V76.1299H41.5499H39.8298H38.1099H36.3799H34.6599H32.9299H31.2098H29.4899H27.7599H26.0399H24.3198H22.5898V73.64H20.8699H19.1399V71.1499H17.4199H15.6998V68.6499H13.9698V66.1599H12.2499V63.6599V61.17H10.5199H8.79993H7.07983V58.67V56.1799H5.34985V58.67H3.62988V61.17V63.6599H1.8999V66.1599V68.6499V71.1499H3.62988V73.64V76.1299H5.34985V78.6299H7.07983H8.79993V81.1199H10.5199H12.2499H13.9698H15.6998H17.4199H19.1399H20.8699H22.5898H24.3198H26.0399H27.7599H29.4899H31.2098H32.9299H34.6599H36.3799H38.1099H39.8298H41.5499H43.2799V78.6299H44.9999H46.7299V76.1299H48.4498V73.64H46.7299Z" fill="#8F3777"/>
<path d="M44.9999 56.1799H43.2799H41.5499H39.8298H38.1099V53.6799H36.3799H34.6599H32.9299H31.2098H29.4899H27.7599H26.0399H24.3198H22.5898H20.8699H19.1399H17.4199H15.6998H13.9698V56.1799H12.2499H10.5199H8.79993H7.07983V58.67V61.17H8.79993H10.5199H12.2499H13.9698H15.6998H17.4199H19.1399H20.8699H22.5898H24.3198H26.0399H27.7599H29.4899H31.2098H32.9299H34.6599H36.3799H38.1099H39.8298H41.5499H43.2799V58.67H44.9999H46.7299V56.1799H44.9999Z" fill="#803578"/>
<path d="M34.6499 43.71H32.9299V46.2H34.6499V43.71Z" fill="#202827"/>
<path d="M39.8298 51.1899V48.6999H38.1099V46.1999H36.3799H34.6599H32.9299V43.7099H31.2098V41.2099V38.7199V36.2199V33.7299V31.2299V28.7399V26.2499V23.7499V21.2599V18.7599H29.4899H27.7599H26.0399H24.3198H22.5898H20.8699V21.2599V23.7499V26.2499V28.7399V31.2299V33.7299V36.2199V38.7199V41.2099V43.7099H19.1399V46.1999H17.4199H15.6998H13.9698V48.6999H12.2499V51.1899H10.5199H8.79993V53.6799H7.07983V56.1799H8.79993H10.5199H12.2499H13.9698V53.6799H15.6998H17.4199H19.1399H20.8699H22.5898H24.3198H26.0399H27.7599H29.4899H31.2098H32.9299H34.6599H36.3799H38.1099V56.1799H39.8298H41.5499H43.2799H44.9999V53.6799H43.2799V51.1899H41.5499H39.8298Z" fill="#009454"/>
<path d="M17.4198 13.7699V16.2699H19.1398H20.8698H22.5897H24.3197H26.0398H27.7598H29.4897H31.2097H32.9298H34.6598V13.7699V11.2799H32.9298H31.2097H29.4897H27.7598H26.0398H24.3197H22.5897H20.8698H19.1398H17.4198H15.6997V13.7699H17.4198Z" fill="#009454"/>
<path d="M36.38 55.6299H38.42V57.9399H40.46V60.2499H42.49V57.9399V55.6299V53.3199H40.46V51.0099H38.42H36.38V48.7H34.35H32.3101H30.27V51.0099V53.3199H32.3101H34.35V55.6299H36.38Z" fill="white"/>
<path d="M36.3799 11.2799H28.6199V13.7699H36.3799V11.2799Z" fill="white"/>
<path d="M36.3799 43.71H34.6599V46.2H36.3799H38.1099V43.71H36.3799Z" fill="#231F20"/>
<path d="M19.1399 43.71H17.4199V46.2H19.1399V43.71Z" fill="#231F20"/>
<path d="M15.6997 16.2699H17.4198V18.7599H19.1398V21.2599V23.7499V26.2499V28.7399V31.2299V33.7299V36.2199V38.7199V41.2099V43.7099H20.8698V41.2099V38.7199V36.2199V33.7299V31.2299V28.7399V26.2499V23.7499V21.2599V18.7599H22.5897H24.3197H26.0398H27.7598H29.4897H31.2097V21.2599V23.7499V26.2499V28.7399V31.2299V33.7299V36.2199V38.7199V41.2099V43.7099H32.9298V41.2099V38.7199V36.2199V33.7299V31.2299V28.7399V26.2499V23.7499V21.2599V18.7599H34.6598V16.2699H32.9298H31.2097H29.4897H27.7598H26.0398H24.3197H22.5897H20.8698H19.1398H17.4198V13.7699H15.6997V11.2799H13.9697V13.7699V16.2699H15.6997Z" fill="#231F20"/>
<path d="M39.8297 81.1199H38.1097H36.3798H34.6598H32.9298H31.2097H29.4897H27.7598H26.0398H24.3197H22.5897H20.8698H19.1398H17.4198H15.6997H13.9697H12.2498H10.5198H8.7998V83.6199H10.5198H12.2498H13.9697H15.6997H17.4198H19.1398H20.8698H22.5897H24.3197H26.0398H27.7598H29.4897H31.2097H32.9298H34.6598H36.3798H38.1097H39.8297H41.5498H43.2798V81.1199H41.5498H39.8297Z" fill="#231F20"/>
<path d="M43.2798 78.6299V81.1199H44.9998H46.7297V78.6299H44.9998H43.2798Z" fill="#231F20"/>
<path d="M7.07983 78.6299H5.34985V81.1199H7.07983H8.79993V78.6299H7.07983Z" fill="#231F20"/>
<path d="M48.45 76.1299H46.73V78.6199H48.45V76.1299Z" fill="#231F20"/>
<path d="M5.34985 76.1299H3.62988V78.6199H5.34985V76.1299Z" fill="#231F20"/>
<path d="M50.1698 73.6399H48.4497V76.1299H50.1698V73.6399Z" fill="#231F20"/>
<path d="M3.62988 71.1499H1.8999V68.6499V66.1599V63.6599H3.62988V61.1699V58.6699H1.8999V61.1699H0.179932V63.6599V66.1599V68.6499V71.1499V73.6399H1.8999V76.1299H3.62988V73.6399V71.1499Z" fill="#231F20"/>
<path d="M50.1698 61.1699V58.6699H48.4497V61.1699V63.6599H50.1698V66.1599V68.6499V71.1499V73.6399H51.8998V71.1499V68.6499V66.1599V63.6599V61.1699H50.1698Z" fill="#231F20"/>
<path d="M48.45 56.1799H46.73V58.67H48.45V56.1799Z" fill="#231F20"/>
<path d="M5.34985 56.1799H3.62988V58.67H5.34985V56.1799Z" fill="#231F20"/>
<path d="M7.07983 53.6799H8.79993V51.1899H7.07983H5.34985V53.6799V56.1799H7.07983V53.6799Z" fill="#231F20"/>
<path d="M46.7297 51.1899H44.9998H43.2798V53.6799H44.9998V56.1799H46.7297V53.6799V51.1899Z" fill="#231F20"/>
<path d="M41.5499 48.7V46.2H39.8298H38.1099V48.7H39.8298V51.1899H41.5499H43.2799V48.7H41.5499Z" fill="#231F20"/>
<path d="M12.2498 51.1899V48.7H10.5198H8.7998V51.1899H10.5198H12.2498Z" fill="#231F20"/>
<path d="M13.97 46.2H12.25V48.6899H13.97V46.2Z" fill="#231F20"/>
<path d="M17.4198 46.2V43.71H15.6997H13.9697V46.2H15.6997H17.4198Z" fill="#231F20"/>
<path d="M34.6599 13.7699V16.2699H36.3799H38.1099V13.7699V11.2799H36.3799V13.7699H34.6599Z" fill="#231F20"/>
<path d="M19.1398 11.2799H20.8698H22.5897H24.3197H26.0398H27.7598H29.4897H31.2097H32.9298H34.6598H36.3798V8.77991H34.6598H33.6097V3.03992H31.4797V8.77991H31.2097H29.4897H27.7598H26.0398H24.3197H22.5897H20.8798V3.03992H18.7498V8.77991H17.4198H15.6997V11.2799H17.4198H19.1398Z" fill="#231F20"/>
<path d="M31.4698 0.689941H20.8799V3.03995H31.4698V0.689941Z" fill="#231F20"/>
<path d="M31.2098 20.8699H28.6199V42.6099H31.2098V20.8699Z" fill="white"/>
</svg>
