<svg width="67" height="54" viewBox="0 0 67 54" fill="none" xmlns="http://www.w3.org/2000/svg">
<path d="M65.94 1.82007H1.31V52.4001H65.94V1.82007Z" fill="#96582F"/>
<path d="M65.95 22.76H60.18V6.92004H36.26V13.62H16.08V24.59H1.31V35.55H19.07V52.39H28.79V30.07H42.99V41.03H53.46V33.72H65.95V22.76Z" fill="#A56033"/>
<path d="M63.36 29.51H53.46V37.43H63.36V29.51Z" fill="#7F4C2A"/>
<path d="M45.91 13.1001H36.01V21.0201H45.91V13.1001Z" fill="#7F4C2A"/>
<path d="M20 24.3701H10.1V32.2901H20V24.3701Z" fill="#7F4C2A"/>
<path d="M1.31 18.5801H65.95" stroke="#4A2A14" stroke-width="2" stroke-miterlimit="10"/>
<path d="M1.31 38.6301H65.95" stroke="#4A2A14" stroke-width="2" stroke-miterlimit="10"/>
<path d="M34.72 1.82007V18.58" stroke="#4A2A14" stroke-width="2" stroke-miterlimit="10"/>
<path d="M34.72 37.8101V52.3901" stroke="#4A2A14" stroke-width="2" stroke-miterlimit="10"/>
<path d="M13.96 18.8601V37.8101" stroke="#4A2A14" stroke-width="2" stroke-miterlimit="10"/>
<path d="M54.1 18.8601V37.8101" stroke="#4A2A14" stroke-width="2" stroke-miterlimit="10"/>
<path d="M65.94 1.82007H1.31V52.4001H65.94V1.82007Z" stroke="#4A2A14" stroke-width="2" stroke-miterlimit="10"/>
</svg>
