<svg width="130" height="129" viewBox="0 0 130 129" fill="none" xmlns="http://www.w3.org/2000/svg">
<path d="M75.2899 7.42993H72.7V14.14H75.2899V7.42993Z" fill="#71B650"/>
<path d="M57.17 14.14H54.5801V20.85H57.17V14.14Z" fill="#399B4B"/>
<path d="M18.33 41H15.74V47.71H18.33V41Z" fill="#72B651"/>
<path d="M7.96985 54.4199H5.37988V61.1299H7.96985V54.4199Z" fill="#6FB450"/>
<path d="M103.78 74.5599H101.19V81.27H103.78V74.5599Z" fill="#97C25B"/>
<path d="M77.8801 87.98H75.29V94.69H77.8801V87.98Z" fill="#60AD4A"/>
<path d="M70.11 101.41H67.52V108.12H70.11V101.41Z" fill="#66AF4D"/>
<path d="M98.6 114.83H96.01V121.54H98.6V114.83Z" fill="#9CC45D"/>
<path d="M7.96985 54.4199H10.5599V47.71H13.1499H15.7399V40.9999H18.3199H20.9099H23.4999V34.2799H26.0899H28.6799H31.2699H33.8599V27.5699H36.4499H39.0399H41.6299H44.2198V20.8599H46.8099H49.3999H51.9899H54.5799V14.14H57.1699H59.7599H62.3499H64.9299H67.5199H70.1099H72.6999V7.42993H70.1099H67.5199H64.9299H62.3499H59.7599H57.1699H54.5799H51.9899H49.3999H46.8099H44.2198H41.6299H39.0399H36.4499H33.8599H31.2699H28.6799H26.0899H23.4999H20.9099H18.3199H15.7399H13.1499H10.5599H7.96985H5.37988V14.14V20.8599V27.5699V34.2799V40.9999V47.71V54.4199H7.96985Z" fill="#2A8D47"/>
<path d="M59.76 128.05V121.55H62.35V114.83H64.93V108.12H67.52V101.41H72.7V94.7H75.29V87.9799H80.47V81.27H85.65V74.5599H23.5V128.05H59.76Z" fill="#2A8D47"/>
<path d="M7.96985 67.8499H10.5599H13.1499H15.7399H18.3199H20.9099H23.4999H26.0899H28.6799H31.2699H33.8599H36.4499H39.0399H41.6299V61.1299H44.2198V54.4199H46.8099H49.3999H51.9899H54.5799H57.1699H59.7599H62.3499H64.9299H67.5199H70.1099H72.6999H75.2899H77.8799H80.4698H83.0599H85.6499H88.2399H90.8299H93.4199H96.0099H98.5999H101.19H103.78H106.37H108.96H111.54H114.13V47.71V40.9999V34.2799V27.5699V20.8599V14.14V7.42993H111.54H108.96H106.37H103.78H101.19H98.5999H96.0099H93.4199H90.8299H88.2399H85.6499H83.0599H80.4698H77.8799H75.2899V14.14H72.6999H70.1099H67.5199H64.9299H62.3499H59.7599H57.1699V20.8599H54.5799H51.9899H49.3999H46.8099H44.2198V27.5699H41.6299H39.0399H36.4499H33.8599V34.2799H31.2699H28.6799H26.0899H23.4999V40.9999H20.9099H18.3199V47.71H15.7399H13.1499H10.5599V54.4199H7.96985V61.1299H5.37988V67.8499H7.96985Z" fill="#80BB52"/>
<path d="M96.0098 128.05V114.83H98.5997V101.41H101.19V74.5599H85.6498V81.27H80.4697V87.9799H77.8798V94.7H72.6998V101.41H70.1097V108.12H64.9297V114.83H62.3497V121.55H59.7598V128.05H96.0098Z" fill="#80BB52"/>
<path d="M44.2198 67.8499H46.8099H49.3999H51.9899H54.5799H57.1699H59.7599H62.3499H64.9299H67.5199H70.1099H72.6999H75.2899H77.8799H80.4698H83.0599H85.6499H88.2399H90.8299H93.4199H96.0099H98.5999H101.19H103.78H106.37H108.96H111.54H114.13H116.72H119.31H121.9H124.49V61.1299V54.4199V47.71V40.9999V34.2799V27.5699V20.8599V14.14V7.42993H121.9H119.31H116.72H114.13V14.14V20.8599V27.5699V34.2799V40.9999V47.71V54.4199H111.54H108.96H106.37H103.78H101.19H98.5999H96.0099H93.4199H90.8299H88.2399H85.6499H83.0599H80.4698H77.8799H75.2899H72.6999H70.1099H67.5199H64.9299H62.3499H59.7599H57.1699H54.5799H51.9899H49.3999H46.8099H44.2198V61.1299H41.6299V67.8499H44.2198Z" fill="#ACCB67"/>
<path d="M103.78 128.05V81.27H101.19V101.41H98.5997V121.55H96.0098V128.05H103.78Z" fill="#ACCB67"/>
<path d="M18.3199 128.05H23.4999V74.56H103.77V128.05H108.95V74.56H129.67V0.719971H0.199951V74.56H18.33V128.05H18.3199ZM5.36993 67.8499V7.43997H124.49V67.8499H5.36993Z" fill="#231F20"/>
</svg>
