<svg width="91" height="87" viewBox="0 0 91 87" fill="none" xmlns="http://www.w3.org/2000/svg">
<path d="M79.84 35.03H76.24V38.45H79.84V35.03Z" fill="#F4C52A"/>
<path d="M54.6599 35.0099H58.2499H61.8499H65.4499H69.04H72.64H76.2399V31.5999H72.64H69.04H65.4499H61.8499H58.2499V28.1799H54.6599V31.5999V35.0099Z" fill="#F4C52A"/>
<path d="M76.24 31.5999H65.54V35.0198H76.24V31.5999Z" fill="#231F20"/>
<path d="M54.66 21.3398H51.0601V24.7599V28.1798H54.66V24.7599V21.3398Z" fill="#F4C52A"/>
<path d="M51.0599 14.5099H47.46V11.0899V7.66992H43.8699V11.0899V14.5099V17.9299H40.27V21.3399V24.7599V28.1799H36.6699V31.5999V35.0099H33.08H29.4799H25.8799H22.2899H18.6899V38.4299V41.8499H22.2899V45.2699H25.8799V48.6799H29.4799V52.0999V55.5199V58.9299V62.3499V65.7699V69.1899H33.08H36.6699V65.7699H40.27H43.8699V62.3499H47.46H51.0599V65.7699H54.6599V69.1899H58.2499V72.5999H61.8499V76.0199H65.4499V79.4399H69.04V76.0199V72.5999V69.1899H65.4499V65.7699V62.3499V58.9299V55.5199H61.8499V52.0999V48.6799H65.4499H69.04V45.2699H72.64V41.8499H76.2399V38.4299H72.64H69.04H65.4499H61.8499V41.8499H58.2499H54.6599H51.0599V38.4299V35.0099V31.5999H47.46V28.1799V24.7599V21.3399H51.0599V17.9299V14.5099Z" fill="#F4C52A"/>
<path d="M22.2899 79.4399V76.0199V72.5999V69.1899H18.6899V72.5999V76.0199V79.4399V82.8599V86.2699H22.2899V82.8599H25.8799H29.4799V79.4399H25.8799H22.2899Z" fill="#231F20"/>
<path d="M61.85 76.02H58.25V79.44H61.85V76.02Z" fill="#231F20"/>
<path d="M33.08 76.02H29.48V79.44H33.08V76.02Z" fill="#231F20"/>
<path d="M69.0399 76.02V79.44H65.4498H61.8499V82.86H65.4498H69.0399V86.27H72.6399V82.86V79.44V76.02V72.6H69.0399V76.02Z" fill="#231F20"/>
<path d="M54.66 72.6H51.0601V76.02H54.66H58.2501V72.6H54.66Z" fill="#231F20"/>
<path d="M33.0801 72.6V76.02H36.67H40.2701V72.6H36.67H33.0801Z" fill="#231F20"/>
<path d="M47.46 69.1899H43.87H40.27V72.5999H43.87H47.46H51.06V69.1899H47.46Z" fill="#231F20"/>
<path d="M25.8801 65.77V62.35V58.93V55.52V52.1H22.29V55.52V58.93V62.35V65.77V69.19H25.8801V65.77Z" fill="#231F20"/>
<path d="M65.45 55.52V58.93V62.35H69.04V58.93V55.52V52.1H65.45V55.52Z" fill="#231F20"/>
<path d="M72.64 48.6799H69.04V52.0999H72.64V48.6799Z" fill="#231F20"/>
<path d="M22.2899 48.6799H18.6899V52.0999H22.2899V48.6799Z" fill="#231F20"/>
<path d="M76.2399 45.27H72.6399V48.69H76.2399V45.27Z" fill="#231F20"/>
<path d="M18.6999 45.27H15.0999V48.69H18.6999V45.27Z" fill="#231F20"/>
<path d="M79.84 41.85H76.24V45.27H79.84V41.85Z" fill="#231F20"/>
<path d="M15.1 41.85H11.5V45.27H15.1V41.85Z" fill="#231F20"/>
<path d="M83.4299 38.4299H79.8298V41.8499H83.4299V38.4299Z" fill="#231F20"/>
<path d="M11.4999 38.4299H7.8999V41.8499H11.4999V38.4299Z" fill="#231F20"/>
<path d="M87.03 31.6H83.4301H79.83H76.24V35.01H79.83H83.4301V38.43H87.03V35.01H90.62V31.6H87.03Z" fill="#231F20"/>
<path d="M11.4999 35.01H15.0999H18.6899H22.2899H25.8799V31.6H22.2899H18.6899H15.0999H11.4999H7.89996H4.30994H0.709961V35.01H4.30994V38.43H7.89996V35.01H11.4999Z" fill="#231F20"/>
<path d="M61.85 31.5999H65.45V28.1799H61.85H58.25V31.5999H61.85Z" fill="#231F20"/>
<path d="M33.0799 31.5999V28.1799H29.4799H25.8799V31.5999H29.4799H33.0799Z" fill="#231F20"/>
<path d="M36.67 24.76V21.34H33.0801V24.76V28.18H36.67V24.76Z" fill="#231F20"/>
<path d="M58.2499 21.34H54.6599V24.76V28.18H58.2499V24.76V21.34Z" fill="#231F20"/>
<path d="M40.27 17.93V14.51H36.6699V17.93V21.34H40.27V17.93Z" fill="#231F20"/>
<path d="M54.66 14.51H51.0601V17.93H54.66V14.51Z" fill="#231F20"/>
<path d="M51.0599 7.66992H47.46V11.0899V14.5099H51.0599V11.0899V7.66992Z" fill="#231F20"/>
<path d="M43.87 7.66992H40.27V11.0899H43.87V7.66992Z" fill="#231F20"/>
<path d="M47.4698 0.839966H43.8699V4.25998H47.4698V0.839966Z" fill="#231F20"/>
<path d="M76.2399 35.01H72.64H69.04H65.4499H61.8499H58.2499H54.6599V31.6V28.18H51.0599V24.76V21.34H47.46V24.76V28.18V31.6H51.0599V35.01V38.43V41.85H54.6599H58.2499H61.8499V38.43H65.4499H69.04H72.64H76.2399H79.8299V35.01H76.2399Z" fill="white"/>
<path d="M65.4498 76.02H61.8499V79.44H65.4498V76.02Z" fill="#E7A432"/>
<path d="M61.85 72.6H58.25V76.02H61.85V72.6Z" fill="#E7A432"/>
<path d="M72.64 69.1899H69.04V72.6099H72.64V69.1899Z" fill="#231F20"/>
<path d="M54.6599 69.19V65.77H51.0599V62.35H47.4599H43.8699V65.77H40.2699H36.6699V69.19H33.0799H29.4799V65.77V62.35V58.93V55.52V52.1V48.68H25.8799V45.27H22.2899V41.85H18.6899V38.43V35.01H15.0999H11.4999H7.8999V38.43H11.4999V41.85H15.0999V45.27H18.6899V48.68H22.2899V52.1H25.8799V55.52V58.93V62.35V65.77V69.19H22.2899V72.6V76.02V79.44H25.8799H29.4799V76.02H33.0799V72.6H36.6699H40.2699V69.19H43.8699H47.4599H51.0599V72.6H54.6599H58.2499V69.19H54.6599Z" fill="#E58F31"/>
<path d="M69.0398 62.35H65.4497V65.77V69.19H69.0398V65.77V62.35Z" fill="#231F20"/>
<path d="M61.8499 48.6799V52.0999V55.5199H65.4498V52.0999H69.0399V48.6799H65.4498H61.8499Z" fill="#E7A432"/>
<path d="M72.64 45.27H69.04V48.69H72.64V45.27Z" fill="#E7A432"/>
<path d="M76.2399 41.85H72.6399V45.27H76.2399V41.85Z" fill="#E7A432"/>
<path d="M79.8297 35.01H76.2397V38.43V41.85H79.8297V38.43H83.4298V35.01H79.8297Z" fill="#E7A432"/>
<path d="M33.0799 35.0099H36.6699V31.5999V28.1799H33.0799V31.5999H29.4799H25.8799V35.0099H29.4799H33.0799Z" fill="#E7A432"/>
<path d="M40.27 24.76V21.34H36.6699V24.76V28.18H40.27V24.76Z" fill="#E7A432"/>
<path d="M54.6598 17.9299H51.0598V21.3499H54.6598V17.9299Z" fill="#231F20"/>
<path d="M43.87 14.51V11.09H40.27V14.51V17.93H43.87V14.51Z" fill="#231F20"/>
<path d="M47.4698 4.26001H43.8699V7.67999H47.4698V4.26001Z" fill="#231F20"/>
</svg>
